  0
SECTION
  2
HEADER
  9
$ACADVER
  1
AC1024
  9
$ACADMAINTVER
 70
     6
  9
$DWGCODEPAGE
  3
UNDEFINED
  9
$INSBASE
 10
0.0
 20
0.0
 30
0.0
  9
$EXTMIN
 10
1.000000000000000E+20
 20
1.000000000000000E+20
 30
1.000000000000000E+20
  9
$EXTMAX
 10
-1.000000000000000E+20
 20
-1.000000000000000E+20
 30
-1.000000000000000E+20
  9
$LIMMIN
 10
0.0
 20
0.0
  9
$LIMMAX
 10
12.0
 20
9.0
  9
$ORTHOMODE
 70
     0
  9
$REGENMODE
 70
     1
  9
$FILLMODE
 70
     1
  9
$QTEXTMODE
 70
     0
  9
$MIRRTEXT
 70
     1
  9
$LTSCALE
 40
1.0
  9
$ATTMODE
 70
     1
  9
$TEXTSIZE
 40
0.2
  9
$TRACEWID
 40
0.05
  9
$TEXTSTYLE
  7
Standard
  9
$CLAYER
  8
0
  9
$CELTYPE
  6
ByLayer
  9
$CECOLOR
 62
   256
  9
$CELTSCALE
 40
1.0
  9
$DISPSILH
 70
     0
  9
$DIMSCALE
 40
1.0
  9
$DIMASZ
 40
0.18
  9
$DIMEXO
 40
0.0625
  9
$DIMDLI
 40
0.38
  9
$DIMRND
 40
0.0
  9
$DIMDLE
 40
0.0
  9
$DIMEXE
 40
0.18
  9
$DIMTP
 40
0.0
  9
$DIMTM
 40
0.0
  9
$DIMTXT
 40
0.18
  9
$DIMCEN
 40
0.09
  9
$DIMTSZ
 40
0.0
  9
$DIMTOL
 70
     0
  9
$DIMLIM
 70
     0
  9
$DIMTIH
 70
     1
  9
$DIMTOH
 70
     1
  9
$DIMSE1
 70
     0
  9
$DIMSE2
 70
     0
  9
$DIMTAD
 70
     0
  9
$DIMZIN
 70
     0
  9
$DIMBLK
  1

  9
$DIMASO
 70
     1
  9
$DIMSHO
 70
     1
  9
$DIMPOST
  1

  9
$DIMAPOST
  1

  9
$DIMALT
 70
     0
  9
$DIMALTD
 70
     2
  9
$DIMALTF
 40
25.4
  9
$DIMLFAC
 40
1.0
  9
$DIMTOFL
 70
     0
  9
$DIMTVP
 40
0.0
  9
$DIMTIX
 70
     0
  9
$DIMSOXD
 70
     0
  9
$DIMSAH
 70
     0
  9
$DIMBLK1
  1

  9
$DIMBLK2
  1

  9
$DIMSTYLE
  2
Standard
  9
$DIMCLRD
 70
     0
  9
$DIMCLRE
 70
     0
  9
$DIMCLRT
 70
     0
  9
$DIMTFAC
 40
1.0
  9
$DIMGAP
 40
0.09
  9
$DIMJUST
 70
     0
  9
$DIMSD1
 70
     0
  9
$DIMSD2
 70
     0
  9
$DIMTOLJ
 70
     1
  9
$DIMTZIN
 70
     0
  9
$DIMALTZ
 70
     0
  9
$DIMALTTZ
 70
     0
  9
$DIMUPT
 70
     0
  9
$DIMDEC
 70
     4
  9
$DIMTDEC
 70
     4
  9
$DIMALTU
 70
     2
  9
$DIMALTTD
 70
     2
  9
$DIMTXSTY
  7
Standard
  9
$DIMAUNIT
 70
     0
  9
$DIMADEC
 70
     0
  9
$DIMALTRND
 40
0.0
  9
$DIMAZIN
 70
     0
  9
$DIMDSEP
 70
    46
  9
$DIMATFIT
 70
     3
  9
$DIMFRAC
 70
     0
  9
$DIMLDRBLK
  1

  9
$DIMLUNIT
 70
     2
  9
$DIMLWD
 70
    -2
  9
$DIMLWE
 70
    -2
  9
$DIMTMOVE
 70
     0
  9
$DIMFXL
 40
1.0
  9
$DIMFXLON
 70
     0
  9
$DIMJOGANG
 40
0.7853981633974483
  9
$DIMTFILL
 70
     0
  9
$DIMTFILLCLR
 70
     0
  9
$DIMARCSYM
 70
     0
  9
$DIMLTYPE
  6

  9
$DIMLTEX1
  6

  9
$DIMLTEX2
  6

  9
$DIMTXTDIRECTION
 70
     0
  9
$LUNITS
 70
     2
  9
$LUPREC
 70
     4
  9
$SKETCHINC
 40
0.1
  9
$FILLETRAD
 40
0.5
  9
$AUNITS
 70
     0
  9
$AUPREC
 70
     0
  9
$MENU
  1
.
  9
$ELEVATION
 40
0.0
  9
$PELEVATION
 40
0.0
  9
$THICKNESS
 40
0.0
  9
$LIMCHECK
 70
     0
  9
$CHAMFERA
 40
0.5
  9
$CHAMFERB
 40
0.5
  9
$CHAMFERC
 40
1.0
  9
$CHAMFERD
 40
0.0
  9
$SKPOLY
 70
     0
  9
$TDCREATE
 40
2457692.755798611
  9
$TDUCREATE
 40
2457693.005798611
  9
$TDUPDATE
 40
2457692.755798611
  9
$TDUUPDATE
 40
2457693.005798611
  9
$TDINDWG
 40
0.0000000116
  9
$TDUSRTIMER
 40
0.0000000116
  9
$USRTIMER
 70
     1
  9
$ANGBASE
 50
0.0
  9
$ANGDIR
 70
     0
  9
$PDMODE
 70
     0
  9
$PDSIZE
 40
0.0
  9
$PLINEWID
 40
0.0
  9
$SPLFRAME
 70
     0
  9
$SPLINETYPE
 70
     6
  9
$SPLINESEGS
 70
     8
  9
$HANDSEED
  5
281
  9
$SURFTAB1
 70
     6
  9
$SURFTAB2
 70
     6
  9
$SURFTYPE
 70
     6
  9
$SURFU
 70
     6
  9
$SURFV
 70
     6
  9
$UCSBASE
  2

  9
$UCSNAME
  2

  9
$UCSORG
 10
0.0
 20
0.0
 30
0.0
  9
$UCSXDIR
 10
1.0
 20
0.0
 30
0.0
  9
$UCSYDIR
 10
0.0
 20
1.0
 30
0.0
  9
$UCSORTHOREF
  2

  9
$UCSORTHOVIEW
 70
     0
  9
$UCSORGTOP
 10
0.0
 20
0.0
 30
0.0
  9
$UCSORGBOTTOM
 10
0.0
 20
0.0
 30
0.0
  9
$UCSORGLEFT
 10
0.0
 20
0.0
 30
0.0
  9
$UCSORGRIGHT
 10
0.0
 20
0.0
 30
0.0
  9
$UCSORGFRONT
 10
0.0
 20
0.0
 30
0.0
  9
$UCSORGBACK
 10
0.0
 20
0.0
 30
0.0
  9
$PUCSBASE
  2

  9
$PUCSNAME
  2

  9
$PUCSORG
 10
0.0
 20
0.0
 30
0.0
  9
$PUCSXDIR
 10
1.0
 20
0.0
 30
0.0
  9
$PUCSYDIR
 10
0.0
 20
1.0
 30
0.0
  9
$PUCSORTHOREF
  2

  9
$PUCSORTHOVIEW
 70
     0
  9
$PUCSORGTOP
 10
0.0
 20
0.0
 30
0.0
  9
$PUCSORGBOTTOM
 10
0.0
 20
0.0
 30
0.0
  9
$PUCSORGLEFT
 10
0.0
 20
0.0
 30
0.0
  9
$PUCSORGRIGHT
 10
0.0
 20
0.0
 30
0.0
  9
$PUCSORGFRONT
 10
0.0
 20
0.0
 30
0.0
  9
$PUCSORGBACK
 10
0.0
 20
0.0
 30
0.0
  9
$USERI1
 70
     0
  9
$USERI2
 70
     0
  9
$USERI3
 70
     0
  9
$USERI4
 70
     0
  9
$USERI5
 70
     0
  9
$USERR1
 40
0.0
  9
$USERR2
 40
0.0
  9
$USERR3
 40
0.0
  9
$USERR4
 40
0.0
  9
$USERR5
 40
0.0
  9
$WORLDVIEW
 70
     1
  9
$SHADEDGE
 70
     3
  9
$SHADEDIF
 70
    70
  9
$TILEMODE
 70
     1
  9
$MAXACTVP
 70
    64
  9
$PINSBASE
 10
0.0
 20
0.0
 30
0.0
  9
$PLIMCHECK
 70
     0
  9
$PEXTMIN
 10
1.000000000000000E+20
 20
1.000000000000000E+20
 30
1.000000000000000E+20
  9
$PEXTMAX
 10
-1.000000000000000E+20
 20
-1.000000000000000E+20
 30
-1.000000000000000E+20
  9
$PLIMMIN
 10
0.0
 20
0.0
  9
$PLIMMAX
 10
12.0
 20
9.0
  9
$UNITMODE
 70
     0
  9
$VISRETAIN
 70
     1
  9
$PLINEGEN
 70
     0
  9
$PSLTSCALE
 70
     1
  9
$TREEDEPTH
 70
  3020
  9
$CMLSTYLE
  2
Standard
  9
$CMLJUST
 70
     0
  9
$CMLSCALE
 40
1.0
  9
$PROXYGRAPHICS
 70
     1
  9
$MEASUREMENT
 70
     0
  9
$CELWEIGHT
370
    -1
  9
$ENDCAPS
280
     0
  9
$JOINSTYLE
280
     0
  9
$LWDISPLAY
290
     1
  9
$INSUNITS
 70
     1
  9
$HYPERLINKBASE
  1

  9
$STYLESHEET
  1

  9
$XEDIT
290
     1
  9
$CEPSNTYPE
380
     0
  9
$PSTYLEMODE
290
     1
  9
$FINGERPRINTGUID
  2
{ED648CE0-3362-6814-A87B-97EDFCA77471}
  9
$VERSIONGUID
  2
{FAEB1C32-E019-11D5-929B-00C0DF256EC4}
  9
$EXTNAMES
290
     1
  9
$PSVPSCALE
 40
0.0
  9
$OLESTARTUP
290
     0
  9
$SORTENTS
280
   127
  9
$INDEXCTL
280
     0
  9
$HIDETEXT
280
     1
  9
$XCLIPFRAME
280
     2
  9
$HALOGAP
280
     0
  9
$OBSCOLOR
 70
   257
  9
$OBSLTYPE
280
     0
  9
$INTERSECTIONDISPLAY
280
     0
  9
$INTERSECTIONCOLOR
 70
   257
  9
$DIMASSOC
280
     2
  9
$PROJECTNAME
  1

  9
$CAMERADISPLAY
290
     0
  9
$LENSLENGTH
 40
50.0
  9
$CAMERAHEIGHT
 40
0.0
  9
$STEPSPERSEC
 40
2.0
  9
$STEPSIZE
 40
6.0
  9
$3DDWFPREC
 40
2.0
  9
$PSOLWIDTH
 40
0.25
  9
$PSOLHEIGHT
 40
4.0
  9
$LOFTANG1
 40
1.570796326794897
  9
$LOFTANG2
 40
1.570796326794897
  9
$LOFTMAG1
 40
0.0
  9
$LOFTMAG2
 40
0.0
  9
$LOFTPARAM
 70
     7
  9
$LOFTNORMALS
280
     1
  9
$LATITUDE
 40
37.795
  9
$LONGITUDE
 40
-122.394
  9
$NORTHDIRECTION
 40
0.0
  9
$TIMEZONE
 70
 -8000
  9
$LIGHTGLYPHDISPLAY
280
     1
  9
$TILEMODELIGHTSYNCH
280
     1
  9
$CMATERIAL
347
3C
  9
$SOLIDHIST
280
     1
  9
$SHOWHIST
280
     1
  9
$DWFFRAME
280
     2
  9
$DGNFRAME
280
     2
  9
$REALWORLDSCALE
290
     1
  9
$INTERFERECOLOR
 62
   256
  9
$CSHADOW
280
     0
  9
$SHADOWPLANELOCATION
 40
0.0
  0
ENDSEC
  0
SECTION
  2
CLASSES
  0
CLASS
  1
ACDBDICTIONARYWDFLT
  2
AcDbDictionaryWithDefault
  3
ObjectDBX Classes
 90
        0
 91
        4
280
     0
281
     0
  0
CLASS
  1
VISUALSTYLE
  2
AcDbVisualStyle
  3
ObjectDBX Classes
 90
     4095
 91
        4
280
     0
281
     0
  0
CLASS
  1
MATERIAL
  2
AcDbMaterial
  3
ObjectDBX Classes
 90
     1153
 91
        4
280
     0
281
     0
  0
CLASS
  1
SUN
  2
AcDbSun
  3
SCENEOE
 90
     1024
 91
        4
280
     0
281
     0
  0
ENDSEC
  0
SECTION
  2
TABLES
  0
TABLE
  2
VPORT
  5
8
330
0
100
AcDbSymbolTable
 70
     1
  0
VPORT
  5
29
330
8
100
AcDbSymbolTableRecord
100
AcDbViewportTableRecord
  2
*Active
 70
     0
 10
0.0
 20
0.0
 11
1.0
 21
1.0
 12
0.0
 22
0.0
 13
0.0
 23
0.0
 14
0.5
 24
0.5
 15
0.5
 25
0.5
 16
0.0
 26
0.0
 36
1.0
 17
11.2888888860665
 27
11.28888888606683
 37
0.0
 40
456.9999998857497
 41
1.778993435448578
 42
50.0
 43
0.0
 44
0.0
 50
0.0
 51
0.0
 71
     0
 72
   100
 73
     1
 74
     3
 75
     0
 76
     0
 77
     0
 78
     0
281
     0
 65
     1
110
0.0
120
0.0
130
0.0
111
1.0
121
0.0
131
0.0
112
0.0
122
1.0
132
0.0
 79
     0
146
0.0
 60
     3
 61
     5
292
     1
282
     1
141
0.0
142
0.0
 63
   250
361
3F
  0
ENDTAB
  0
TABLE
  2
LTYPE
  5
5
330
0
100
AcDbSymbolTable
 70
     1
  0
LTYPE
  5
14
330
5
100
AcDbSymbolTableRecord
100
AcDbLinetypeTableRecord
  2
ByBlock
 70
     0
  3

 72
    65
 73
     0
 40
0.0
  0
LTYPE
  5
15
330
5
100
AcDbSymbolTableRecord
100
AcDbLinetypeTableRecord
  2
ByLayer
 70
     0
  3

 72
    65
 73
     0
 40
0.0
  0
LTYPE
  5
16
330
5
100
AcDbSymbolTableRecord
100
AcDbLinetypeTableRecord
  2
Continuous
 70
     0
  3
Solid line
 72
    65
 73
     0
 40
0.0
  0
ENDTAB
  0
TABLE
  2
LAYER
  5
2
330
0
100
AcDbSymbolTable
 70
     2
  0
LAYER
  5
10
330
2
100
AcDbSymbolTableRecord
100
AcDbLayerTableRecord
  2
0
 70
     0
 62
     7
  6
Continuous
370
    -3
390
F
347
3E
  0
LAYER
  5
40
330
2
100
AcDbSymbolTableRecord
100
AcDbLayerTableRecord
  2
DEFAULT
 70
     0
 62
     7
  6
Continuous
370
    -3
390
F
347
3E
  0
ENDTAB
  0
TABLE
  2
STYLE
  5
3
330
0
100
AcDbSymbolTable
 70
     1
  0
STYLE
  5
11
330
3
100
AcDbSymbolTableRecord
100
AcDbTextStyleTableRecord
  2
Standard
 70
     0
 40
0.0
 41
1.0
 50
0.0
 71
     0
 42
0.2
  3
txt
  4

  0
ENDTAB
  0
TABLE
  2
VIEW
  5
6
330
0
100
AcDbSymbolTable
 70
     0
  0
ENDTAB
  0
TABLE
  2
UCS
  5
7
330
0
100
AcDbSymbolTable
 70
     0
  0
ENDTAB
  0
TABLE
  2
APPID
  5
9
330
0
100
AcDbSymbolTable
 70
     1
  0
APPID
  5
12
330
9
100
AcDbSymbolTableRecord
100
AcDbRegAppTableRecord
  2
ACAD
 70
     0
  0
ENDTAB
  0
TABLE
  2
DIMSTYLE
  5
A
330
0
100
AcDbSymbolTable
 70
     1
100
AcDbDimStyleTable
  0
DIMSTYLE
105
27
330
A
100
AcDbSymbolTableRecord
100
AcDbDimStyleTableRecord
  2
Standard
 70
     0
178
     0
340
11
  0
ENDTAB
  0
TABLE
  2
BLOCK_RECORD
  5
1
330
0
100
AcDbSymbolTable
 70
    13
  0
BLOCK_RECORD
  5
1F
330
1
100
AcDbSymbolTableRecord
100
AcDbBlockTableRecord
  2
*Model_Space
340
22
 70
     0
280
     1
281
     0
  0
BLOCK_RECORD
  5
1B
330
1
100
AcDbSymbolTableRecord
100
AcDbBlockTableRecord
  2
*Paper_Space
340
1E
 70
     0
280
     1
281
     0
  0
BLOCK_RECORD
  5
23
330
1
100
AcDbSymbolTableRecord
100
AcDbBlockTableRecord
  2
*Paper_Space0
340
26
 70
     0
280
     1
281
     0
  0
BLOCK_RECORD
  5
41
330
1
100
AcDbSymbolTableRecord
100
AcDbBlockTableRecord
  2
block 2
340
0
102
{BLKREFS
331
42
102
}
 70
     0
280
     1
281
     0
  0
BLOCK_RECORD
  5
45
330
1
100
AcDbSymbolTableRecord
100
AcDbBlockTableRecord
  2
block 3
340
0
102
{BLKREFS
331
46
102
}
 70
     0
280
     1
281
     0
  0
BLOCK_RECORD
  5
126
330
1
100
AcDbSymbolTableRecord
100
AcDbBlockTableRecord
  2
block 4
340
0
102
{BLKREFS
331
127
102
}
 70
     0
280
     1
281
     0
  0
BLOCK_RECORD
  5
12A
330
1
100
AcDbSymbolTableRecord
100
AcDbBlockTableRecord
  2
block 5
340
0
102
{BLKREFS
331
12B
102
}
 70
     0
280
     1
281
     0
  0
BLOCK_RECORD
  5
248
330
1
100
AcDbSymbolTableRecord
100
AcDbBlockTableRecord
  2
block 6
340
0
102
{BLKREFS
331
249
102
}
 70
     0
280
     1
281
     0
  0
BLOCK_RECORD
  5
24D
330
1
100
AcDbSymbolTableRecord
100
AcDbBlockTableRecord
  2
block 7
340
0
102
{BLKREFS
331
24E
102
}
 70
     0
280
     1
281
     0
  0
BLOCK_RECORD
  5
255
330
1
100
AcDbSymbolTableRecord
100
AcDbBlockTableRecord
  2
block 8
340
0
102
{BLKREFS
331
256
102
}
 70
     0
280
     1
281
     0
  0
BLOCK_RECORD
  5
25A
330
1
100
AcDbSymbolTableRecord
100
AcDbBlockTableRecord
  2
block 9
340
0
102
{BLKREFS
331
25B
102
}
 70
     0
280
     1
281
     0
  0
BLOCK_RECORD
  5
25F
330
1
100
AcDbSymbolTableRecord
100
AcDbBlockTableRecord
  2
block 10
340
0
102
{BLKREFS
331
260
102
}
 70
     0
280
     1
281
     0
  0
BLOCK_RECORD
  5
267
330
1
100
AcDbSymbolTableRecord
100
AcDbBlockTableRecord
  2
block 11
340
0
102
{BLKREFS
331
268
102
}
 70
     0
280
     1
281
     0
  0
BLOCK_RECORD
  5
26F
330
1
100
AcDbSymbolTableRecord
100
AcDbBlockTableRecord
  2
block 12
340
0
102
{BLKREFS
331
270
102
}
 70
     0
280
     1
281
     0
  0
BLOCK_RECORD
  5
277
330
1
100
AcDbSymbolTableRecord
100
AcDbBlockTableRecord
  2
block 13
340
0
102
{BLKREFS
331
278
102
}
 70
     0
280
     1
281
     0
  0
ENDTAB
  0
ENDSEC
  0
SECTION
  2
BLOCKS
  0
BLOCK
  5
20
330
1F
100
AcDbEntity
  8
0
100
AcDbBlockBegin
  2
*Model_Space
 70
     0
 10
0.0
 20
0.0
 30
0.0
  3
*Model_Space
  1

  0
ENDBLK
  5
21
330
1F
100
AcDbEntity
  8
0
100
AcDbBlockEnd
  0
BLOCK
  5
1C
330
1B
100
AcDbEntity
 67
     1
  8
0
100
AcDbBlockBegin
  2
*Paper_Space
 70
     0
 10
0.0
 20
0.0
 30
0.0
  3
*Paper_Space
  1

  0
ENDBLK
  5
1D
330
1B
100
AcDbEntity
 67
     1
  8
0
100
AcDbBlockEnd
  0
BLOCK
  5
24
330
23
100
AcDbEntity
  8
0
100
AcDbBlockBegin
  2
*Paper_Space0
 70
     0
 10
0.0
 20
0.0
 30
0.0
  3
*Paper_Space0
  1

  0
ENDBLK
  5
25
330
23
100
AcDbEntity
  8
0
100
AcDbBlockEnd
  0
BLOCK
  5
43
330
41
100
AcDbEntity
  8
0
100
AcDbBlockBegin
  2
block 2
 70
     0
 10
0.0
 20
0.0
 30
0.0
  3
block 2
  1

  0
INSERT
  5
46
330
41
100
AcDbEntity
  8
DEFAULT
100
AcDbBlockReference
  2
block 3
 10
0.0
 20
0.0
 30
0.0
  0
ENDBLK
  5
44
330
41
100
AcDbEntity
  8
0
100
AcDbBlockEnd
  0
BLOCK
  5
47
330
45
100
AcDbEntity
  8
0
100
AcDbBlockBegin
  2
block 3
 70
     0
 10
0.0
 20
0.0
 30
0.0
  3
block 3
  1

  0
POLYLINE
  5
49
330
45
100
AcDbEntity
  8
DEFAULT
370
     0
100
AcDb2dPolyline
 66
     1
 10
0.0
 20
0.0
 30
0.0
  0
VERTEX
  5
4A
330
49
100
AcDbEntity
  8
DEFAULT
370
     0
100
AcDbVertex
100
AcDb2dVertex
 10
-62.22186955909731
 20
-38.14995387501112
 30
0.0
  0
VERTEX
  5
4B
330
49
100
AcDbEntity
  8
DEFAULT
370
     0
100
AcDbVertex
100
AcDb2dVertex
 10
-65.9523912053001
 20
-30.50011935001386
 30
0.0
  0
VERTEX
  5
4C
330
49
100
AcDbEntity
  8
DEFAULT
370
     0
100
AcDbVertex
100
AcDb2dVertex
 10
-65.8082139592424
 20
-30.38195257486979
 30
0.0
  0
VERTEX
  5
4D
330
49
100
AcDbEntity
  8
DEFAULT
370
     0
100
AcDbVertex
100
AcDb2dVertex
 10
-59.33436277813516
 20
-35.29982638006393
 30
0.0
  0
VERTEX
  5
4E
330
49
100
AcDbEntity
  8
DEFAULT
370
     0
100
AcDbVertex
100
AcDb2dVertex
 10
-62.90193140788563
 20
-27.99450140359165
 30
0.0
  0
VERTEX
  5
4F
330
49
100
AcDbEntity
  8
DEFAULT
370
     0
100
AcDbVertex
100
AcDb2dVertex
 10
-62.75809867137645
 20
-27.87599011889906
 30
0.0
  0
VERTEX
  5
50
330
49
100
AcDbEntity
  8
DEFAULT
370
     0
100
AcDbVertex
100
AcDb2dVertex
 10
-55.97780624685625
 20
-33.02055120702264
 30
0.0
  0
VERTEX
  5
51
330
49
100
AcDbEntity
  8
DEFAULT
370
     0
100
AcDbVertex
100
AcDb2dVertex
 10
-56.08288165915636
 20
-33.16248914101494
 30
0.0
  0
VERTEX
  5
52
330
49
100
AcDbEntity
  8
DEFAULT
370
     0
100
AcDbVertex
100
AcDb2dVertex
 10
-62.57981498001477
 20
-28.23979220214144
 30
0.0
  0
VERTEX
  5
53
330
49
100
AcDbEntity
  8
DEFAULT
370
     0
100
AcDbVertex
100
AcDb2dVertex
 10
-59.01327987890988
 20
-35.54270561177405
 30
0.0
  0
VERTEX
  5
54
330
49
100
AcDbEntity
  8
DEFAULT
370
     0
100
AcDbVertex
100
AcDb2dVertex
 10
-59.15831839883889
 20
-35.66190591556369
 30
0.0
  0
VERTEX
  5
55
330
49
100
AcDbEntity
  8
DEFAULT
370
     0
100
AcDbVertex
100
AcDb2dVertex
 10
-65.6304470322035
 20
-30.74506563901512
 30
0.0
  0
VERTEX
  5
56
330
49
100
AcDbEntity
  8
DEFAULT
370
     0
100
AcDbVertex
100
AcDb2dVertex
 10
-62.05805526877369
 20
-38.0710611883989
 30
0.0
  0
VERTEX
  5
57
330
49
100
AcDbEntity
  8
DEFAULT
370
     0
100
AcDbVertex
100
AcDb2dVertex
 10
-62.22186955909731
 20
-38.14995387501112
 30
0.0
  0
SEQEND
  5
58
330
49
100
AcDbEntity
  8
DEFAULT
370
     0
  0
HATCH
  5
59
330
45
100
AcDbEntity
  8
DEFAULT
 62
     7
420
 16777215
100
AcDbHatch
 10
0.0
 20
0.0
 30
0.0
210
0.0
220
0.0
230
1.0
  2
SOLID
 70
     1
 71
     0
 91
        1
 92
        1
 93
       13
 72
     1
 10
-62.22186955909731
 20
-38.14995387501112
 11
-65.9523912053001
 21
-30.50011935001386
 72
     1
 10
-65.9523912053001
 20
-30.50011935001386
 11
-65.8082139592424
 21
-30.38195257486979
 72
     1
 10
-65.8082139592424
 20
-30.38195257486979
 11
-59.33436277813516
 21
-35.29982638006393
 72
     1
 10
-59.33436277813516
 20
-35.29982638006393
 11
-62.90193140788563
 21
-27.99450140359165
 72
     1
 10
-62.90193140788563
 20
-27.99450140359165
 11
-62.75809867137645
 21
-27.87599011889906
 72
     1
 10
-62.75809867137645
 20
-27.87599011889906
 11
-55.97780624685625
 21
-33.02055120702264
 72
     1
 10
-55.97780624685625
 20
-33.02055120702264
 11
-56.08288165915636
 21
-33.16248914101494
 72
     1
 10
-56.08288165915636
 20
-33.16248914101494
 11
-62.57981498001477
 21
-28.23979220214144
 72
     1
 10
-62.57981498001477
 20
-28.23979220214144
 11
-59.01327987890988
 21
-35.54270561177405
 72
     1
 10
-59.01327987890988
 20
-35.54270561177405
 11
-59.15831839883889
 21
-35.66190591556369
 72
     1
 10
-59.15831839883889
 20
-35.66190591556369
 11
-65.6304470322035
 21
-30.74506563901512
 72
     1
 10
-65.6304470322035
 20
-30.74506563901512
 11
-62.05805526877369
 21
-38.0710611883989
 72
     1
 10
-62.05805526877369
 20
-38.0710611883989
 11
-62.22186955909731
 21
-38.14995387501112
 97
        0
 75
     2
 76
     1
 98
        0
  0
POLYLINE
  5
5A
330
45
100
AcDbEntity
  8
DEFAULT
370
     0
100
AcDb2dPolyline
 66
     1
 10
0.0
 20
0.0
 30
0.0
  0
VERTEX
  5
5B
330
5A
100
AcDbEntity
  8
DEFAULT
370
     0
100
AcDbVertex
100
AcDb2dVertex
 10
-68.71208494375948
 20
-31.91260849896629
 30
0.0
  0
VERTEX
  5
5C
330
5A
100
AcDbEntity
  8
DEFAULT
370
     0
100
AcDbVertex
100
AcDb2dVertex
 10
-68.54982094640421
 20
-31.83061522641735
 30
0.0
  0
VERTEX
  5
5D
330
5A
100
AcDbEntity
  8
DEFAULT
370
     0
100
AcDbVertex
100
AcDb2dVertex
 10
-66.05677759850317
 20
-36.77157117136267
 30
0.0
  0
VERTEX
  5
5E
330
5A
100
AcDbEntity
  8
DEFAULT
370
     0
100
AcDbVertex
100
AcDb2dVertex
 10
-66.2192138506327
 20
-36.85356444391161
 30
0.0
  0
VERTEX
  5
5F
330
5A
100
AcDbEntity
  8
DEFAULT
370
     0
100
AcDbVertex
100
AcDb2dVertex
 10
-68.71208494375948
 20
-31.91260849896629
 30
0.0
  0
SEQEND
  5
60
330
5A
100
AcDbEntity
  8
DEFAULT
370
     0
  0
POLYLINE
  5
61
330
45
100
AcDbEntity
  8
DEFAULT
370
     0
100
AcDb2dPolyline
 66
     1
 10
0.0
 20
0.0
 30
0.0
  0
VERTEX
  5
62
330
61
100
AcDbEntity
  8
DEFAULT
370
     0
100
AcDbVertex
100
AcDb2dVertex
 10
-65.53570690635914
 20
-39.1631564572231
 30
0.0
  0
VERTEX
  5
63
330
61
100
AcDbEntity
  8
DEFAULT
370
     0
100
AcDbVertex
100
AcDb2dVertex
 10
-65.30643580181575
 20
-38.46690265965411
 30
0.0
  0
VERTEX
  5
64
330
61
100
AcDbEntity
  8
DEFAULT
370
     0
100
AcDbVertex
100
AcDb2dVertex
 10
-64.61018200424677
 20
-38.69634601897175
 30
0.0
  0
VERTEX
  5
65
330
61
100
AcDbEntity
  8
DEFAULT
370
     0
100
AcDbVertex
100
AcDb2dVertex
 10
-64.83945310879014
 20
-39.39259981654074
 30
0.0
  0
VERTEX
  5
66
330
61
100
AcDbEntity
  8
DEFAULT
370
     0
100
AcDbVertex
100
AcDb2dVertex
 10
-65.53570690635914
 20
-39.1631564572231
 30
0.0
  0
SEQEND
  5
67
330
61
100
AcDbEntity
  8
DEFAULT
370
     0
  0
POLYLINE
  5
68
330
45
100
AcDbEntity
  8
DEFAULT
370
     0
100
AcDb2dPolyline
 66
     1
 10
0.0
 20
0.0
 30
0.0
  0
VERTEX
  5
69
330
68
100
AcDbEntity
  8
DEFAULT
370
     0
100
AcDbVertex
100
AcDb2dVertex
 10
-65.31367050233477
 20
-39.05084634440396
 30
0.0
  0
VERTEX
  5
6A
330
68
100
AcDbEntity
  8
DEFAULT
370
     0
100
AcDbVertex
100
AcDb2dVertex
 10
-64.95176322160928
 20
-39.16970213864508
 30
0.0
  0
VERTEX
  5
6B
330
68
100
AcDbEntity
  8
DEFAULT
370
     0
100
AcDbVertex
100
AcDb2dVertex
 10
-64.83256291781964
 20
-38.80796711269385
 30
0.0
  0
VERTEX
  5
6C
330
68
100
AcDbEntity
  8
DEFAULT
370
     0
100
AcDbVertex
100
AcDb2dVertex
 10
-65.19447019854513
 20
-38.6887668089042
 30
0.0
  0
VERTEX
  5
6D
330
68
100
AcDbEntity
  8
DEFAULT
370
     0
100
AcDbVertex
100
AcDb2dVertex
 10
-65.31367050233477
 20
-39.05084634440396
 30
0.0
  0
SEQEND
  5
6E
330
68
100
AcDbEntity
  8
DEFAULT
370
     0
  0
HATCH
  5
6F
330
45
100
AcDbEntity
  8
DEFAULT
 62
     7
420
 16777215
100
AcDbHatch
 10
0.0
 20
0.0
 30
0.0
210
0.0
220
0.0
230
1.0
  2
SOLID
 70
     1
 71
     0
 91
        3
 92
        1
 93
        4
 72
     1
 10
-68.71208494375948
 20
-31.91260849896629
 11
-68.54982094640421
 21
-31.83061522641735
 72
     1
 10
-68.54982094640421
 20
-31.83061522641735
 11
-66.05677759850317
 21
-36.77157117136267
 72
     1
 10
-66.05677759850317
 20
-36.77157117136267
 11
-66.2192138506327
 21
-36.85356444391161
 72
     1
 10
-66.2192138506327
 20
-36.85356444391161
 11
-68.71208494375948
 21
-31.91260849896629
 97
        0
 92
        1
 93
        4
 72
     1
 10
-65.53570690635914
 20
-39.1631564572231
 11
-65.30643580181575
 21
-38.46690265965411
 72
     1
 10
-65.30643580181575
 20
-38.46690265965411
 11
-64.61018200424677
 21
-38.69634601897175
 72
     1
 10
-64.61018200424677
 20
-38.69634601897175
 11
-64.83945310879014
 21
-39.39259981654074
 72
     1
 10
-64.83945310879014
 20
-39.39259981654074
 11
-65.53570690635914
 21
-39.1631564572231
 97
        0
 92
        1
 93
        4
 72
     1
 10
-65.31367050233477
 20
-39.05084634440396
 11
-64.95176322160928
 21
-39.16970213864508
 72
     1
 10
-64.95176322160928
 20
-39.16970213864508
 11
-64.83256291781964
 21
-38.80796711269385
 72
     1
 10
-64.83256291781964
 20
-38.80796711269385
 11
-65.19447019854513
 21
-38.6887668089042
 72
     1
 10
-65.19447019854513
 20
-38.6887668089042
 11
-65.31367050233477
 21
-39.05084634440396
 97
        0
 75
     2
 76
     1
 98
        0
  0
POLYLINE
  5
70
330
45
100
AcDbEntity
  8
DEFAULT
370
     0
100
AcDb2dPolyline
 66
     1
 10
0.0
 20
0.0
 30
0.0
  0
VERTEX
  5
71
330
70
100
AcDbEntity
  8
DEFAULT
370
     0
100
AcDbVertex
100
AcDb2dVertex
 10
-72.50186223230857
 20
-39.19106173065362
 30
0.0
  0
VERTEX
  5
72
330
70
100
AcDbEntity
  8
DEFAULT
370
     0
100
AcDbVertex
100
AcDb2dVertex
 10
-71.3916802121868
 20
-38.82071396598927
 30
0.0
  0
VERTEX
  5
73
330
70
100
AcDbEntity
  8
DEFAULT
370
     0
100
AcDbVertex
100
AcDb2dVertex
 10
-70.80119084601499
 20
-38.224023427944
 30
0.0
  0
VERTEX
  5
74
330
70
100
AcDbEntity
  8
DEFAULT
370
     0
100
AcDbVertex
100
AcDb2dVertex
 10
-70.31233179665803
 20
-37.26628688304454
 30
0.0
  0
VERTEX
  5
75
330
70
100
AcDbEntity
  8
DEFAULT
370
     0
100
AcDbVertex
100
AcDb2dVertex
 10
-70.32180580924246
 20
-36.0246744701605
 30
0.0
  0
VERTEX
  5
76
330
70
100
AcDbEntity
  8
DEFAULT
370
     0
100
AcDbVertex
100
AcDb2dVertex
 10
-71.31140948738049
 20
-33.05844725736039
 30
0.0
  0
VERTEX
  5
77
330
70
100
AcDbEntity
  8
DEFAULT
370
     0
100
AcDbVertex
100
AcDb2dVertex
 10
-71.13898245834373
 20
-33.00091416275671
 30
0.0
  0
VERTEX
  5
78
330
70
100
AcDbEntity
  8
DEFAULT
370
     0
100
AcDbVertex
100
AcDb2dVertex
 10
-69.38732365886845
 20
-38.25055066318042
 30
0.0
  0
VERTEX
  5
79
330
70
100
AcDbEntity
  8
DEFAULT
370
     0
100
AcDbVertex
100
AcDb2dVertex
 10
-69.55992294267946
 20
-38.30808375778409
 30
0.0
  0
VERTEX
  5
7A
330
70
100
AcDbEntity
  8
DEFAULT
370
     0
100
AcDbVertex
100
AcDb2dVertex
 10
-70.13559839826472
 20
-36.58277993877098
 30
0.0
  0
VERTEX
  5
7B
330
70
100
AcDbEntity
  8
DEFAULT
370
     0
100
AcDbVertex
100
AcDb2dVertex
 10
-70.13008624548831
 20
-37.29557019466917
 30
0.0
  0
VERTEX
  5
7C
330
70
100
AcDbEntity
  8
DEFAULT
370
     0
100
AcDbVertex
100
AcDb2dVertex
 10
-70.64202743459644
 20
-38.33805608850577
 30
0.0
  0
VERTEX
  5
7D
330
70
100
AcDbEntity
  8
DEFAULT
370
     0
100
AcDbVertex
100
AcDb2dVertex
 10
-71.29418400995424
 20
-38.97987737740781
 30
0.0
  0
VERTEX
  5
7E
330
70
100
AcDbEntity
  8
DEFAULT
370
     0
100
AcDbVertex
100
AcDb2dVertex
 10
-72.4443291377049
 20
-39.36366101446464
 30
0.0
  0
VERTEX
  5
7F
330
70
100
AcDbEntity
  8
DEFAULT
370
     0
100
AcDbVertex
100
AcDb2dVertex
 10
-72.50186223230857
 20
-39.19106173065362
 30
0.0
  0
SEQEND
  5
80
330
70
100
AcDbEntity
  8
DEFAULT
370
     0
  0
HATCH
  5
81
330
45
100
AcDbEntity
  8
DEFAULT
 62
     7
420
 16777215
100
AcDbHatch
 10
0.0
 20
0.0
 30
0.0
210
0.0
220
0.0
230
1.0
  2
SOLID
 70
     1
 71
     0
 91
        1
 92
        1
 93
       14
 72
     1
 10
-72.50186223230857
 20
-39.19106173065362
 11
-71.3916802121868
 21
-38.82071396598927
 72
     1
 10
-71.3916802121868
 20
-38.82071396598927
 11
-70.80119084601499
 21
-38.224023427944
 72
     1
 10
-70.80119084601499
 20
-38.224023427944
 11
-70.31233179665803
 21
-37.26628688304454
 72
     1
 10
-70.31233179665803
 20
-37.26628688304454
 11
-70.32180580924246
 21
-36.0246744701605
 72
     1
 10
-70.32180580924246
 20
-36.0246744701605
 11
-71.31140948738049
 21
-33.05844725736039
 72
     1
 10
-71.31140948738049
 20
-33.05844725736039
 11
-71.13898245834373
 21
-33.00091416275671
 72
     1
 10
-71.13898245834373
 20
-33.00091416275671
 11
-69.38732365886845
 21
-38.25055066318042
 72
     1
 10
-69.38732365886845
 20
-38.25055066318042
 11
-69.55992294267946
 21
-38.30808375778409
 72
     1
 10
-69.55992294267946
 20
-38.30808375778409
 11
-70.13559839826472
 21
-36.58277993877098
 72
     1
 10
-70.13559839826472
 20
-36.58277993877098
 11
-70.13008624548831
 21
-37.29557019466917
 72
     1
 10
-70.13008624548831
 20
-37.29557019466917
 11
-70.64202743459644
 21
-38.33805608850577
 72
     1
 10
-70.64202743459644
 20
-38.33805608850577
 11
-71.29418400995424
 21
-38.97987737740781
 72
     1
 10
-71.29418400995424
 20
-38.97987737740781
 11
-72.4443291377049
 21
-39.36366101446464
 72
     1
 10
-72.4443291377049
 20
-39.36366101446464
 11
-72.50186223230857
 21
-39.19106173065362
 97
        0
 75
     2
 76
     1
 98
        0
  0
POLYLINE
  5
82
330
45
100
AcDbEntity
  8
DEFAULT
370
     0
100
AcDb2dPolyline
 66
     1
 10
0.0
 20
0.0
 30
0.0
  0
VERTEX
  5
83
330
82
100
AcDbEntity
  8
DEFAULT
370
     0
100
AcDbVertex
100
AcDb2dVertex
 10
-79.795473884131
 20
-37.86159938289571
 30
0.0
  0
VERTEX
  5
84
330
82
100
AcDbEntity
  8
DEFAULT
370
     0
100
AcDbVertex
100
AcDb2dVertex
 10
-75.08241100553495
 20
-37.35310328927284
 30
0.0
  0
VERTEX
  5
85
330
82
100
AcDbEntity
  8
DEFAULT
370
     0
100
AcDbVertex
100
AcDb2dVertex
 10
-75.15372448207962
 20
-36.69233397520192
 30
0.0
  0
VERTEX
  5
86
330
82
100
AcDbEntity
  8
DEFAULT
370
     0
100
AcDbVertex
100
AcDb2dVertex
 10
-75.66687145460759
 20
-35.56234265603997
 30
0.0
  0
VERTEX
  5
87
330
82
100
AcDbEntity
  8
DEFAULT
370
     0
100
AcDbVertex
100
AcDb2dVertex
 10
-76.5178100394643
 20
-34.88882648867363
 30
0.0
  0
VERTEX
  5
88
330
82
100
AcDbEntity
  8
DEFAULT
370
     0
100
AcDbVertex
100
AcDb2dVertex
 10
-77.29640161913076
 20
-34.59806042971854
 30
0.0
  0
VERTEX
  5
89
330
82
100
AcDbEntity
  8
DEFAULT
370
     0
100
AcDbVertex
100
AcDb2dVertex
 10
-78.43138832674633
 20
-34.72070582899344
 30
0.0
  0
VERTEX
  5
8A
330
82
100
AcDbEntity
  8
DEFAULT
370
     0
100
AcDbVertex
100
AcDb2dVertex
 10
-79.1419392705791
 20
-35.17993705717724
 30
0.0
  0
VERTEX
  5
8B
330
82
100
AcDbEntity
  8
DEFAULT
370
     0
100
AcDbVertex
100
AcDb2dVertex
 10
-79.83113062240334
 20
-36.04155543803822
 30
0.0
  0
VERTEX
  5
8C
330
82
100
AcDbEntity
  8
DEFAULT
370
     0
100
AcDbVertex
100
AcDb2dVertex
 10
-79.98305933330285
 20
-35.91925454831186
 30
0.0
  0
VERTEX
  5
8D
330
82
100
AcDbEntity
  8
DEFAULT
370
     0
100
AcDbVertex
100
AcDb2dVertex
 10
-79.2687187844363
 20
-35.03834363273347
 30
0.0
  0
VERTEX
  5
8E
330
82
100
AcDbEntity
  8
DEFAULT
370
     0
100
AcDbVertex
100
AcDb2dVertex
 10
-78.4958116123205
 20
-34.54466144969717
 30
0.0
  0
VERTEX
  5
8F
330
82
100
AcDbEntity
  8
DEFAULT
370
     0
100
AcDbVertex
100
AcDb2dVertex
 10
-77.27366398892812
 20
-34.4127142926121
 30
0.0
  0
VERTEX
  5
90
330
82
100
AcDbEntity
  8
DEFAULT
370
     0
100
AcDbVertex
100
AcDb2dVertex
 10
-76.40791149348483
 20
-34.72966307725508
 30
0.0
  0
VERTEX
  5
91
330
82
100
AcDbEntity
  8
DEFAULT
370
     0
100
AcDbVertex
100
AcDb2dVertex
 10
-75.51425372461102
 20
-35.459334301031
 30
0.0
  0
VERTEX
  5
92
330
82
100
AcDbEntity
  8
DEFAULT
370
     0
100
AcDbVertex
100
AcDb2dVertex
 10
-74.97785235755762
 20
-36.62653265143365
 30
0.0
  0
VERTEX
  5
93
330
82
100
AcDbEntity
  8
DEFAULT
370
     0
100
AcDbVertex
100
AcDb2dVertex
 10
-74.89034693223228
 20
-37.43785263820998
 30
0.0
  0
VERTEX
  5
94
330
82
100
AcDbEntity
  8
DEFAULT
370
     0
100
AcDbVertex
100
AcDb2dVertex
 10
-75.16526555195522
 20
-38.69255641393797
 30
0.0
  0
VERTEX
  5
95
330
82
100
AcDbEntity
  8
DEFAULT
370
     0
100
AcDbVertex
100
AcDb2dVertex
 10
-75.88201766766144
 20
-39.60171711249541
 30
0.0
  0
VERTEX
  5
96
330
82
100
AcDbEntity
  8
DEFAULT
370
     0
100
AcDbVertex
100
AcDb2dVertex
 10
-76.66095375687644
 20
-40.09023165230384
 30
0.0
  0
VERTEX
  5
97
330
82
100
AcDbEntity
  8
DEFAULT
370
     0
100
AcDbVertex
100
AcDb2dVertex
 10
-77.88310138026881
 20
-40.2221788093889
 30
0.0
  0
VERTEX
  5
98
330
82
100
AcDbEntity
  8
DEFAULT
370
     0
100
AcDbVertex
100
AcDb2dVertex
 10
-78.74265270383864
 20
-39.91039766797379
 30
0.0
  0
VERTEX
  5
99
330
82
100
AcDbEntity
  8
DEFAULT
370
     0
100
AcDbVertex
100
AcDb2dVertex
 10
-79.20429549886212
 20
-39.53867186511533
 30
0.0
  0
VERTEX
  5
9A
330
82
100
AcDbEntity
  8
DEFAULT
370
     0
100
AcDbVertex
100
AcDb2dVertex
 10
-79.69849444622122
 20
-38.7604247949974
 30
0.0
  0
VERTEX
  5
9B
330
82
100
AcDbEntity
  8
DEFAULT
370
     0
100
AcDbVertex
100
AcDb2dVertex
 10
-79.795473884131
 20
-37.86159938289571
 30
0.0
  0
SEQEND
  5
9C
330
82
100
AcDbEntity
  8
DEFAULT
370
     0
  0
POLYLINE
  5
9D
330
45
100
AcDbEntity
  8
DEFAULT
370
     0
100
AcDb2dPolyline
 66
     1
 10
0.0
 20
0.0
 30
0.0
  0
VERTEX
  5
9E
330
9D
100
AcDbEntity
  8
DEFAULT
370
     0
100
AcDbVertex
100
AcDb2dVertex
 10
-79.59514158166373
 20
-38.02317436115393
 30
0.0
  0
VERTEX
  5
9F
330
9D
100
AcDbEntity
  8
DEFAULT
370
     0
100
AcDbVertex
100
AcDb2dVertex
 10
-79.52279457647347
 20
-38.69462347122912
 30
0.0
  0
VERTEX
  5
A0
330
9D
100
AcDbEntity
  8
DEFAULT
370
     0
100
AcDbVertex
100
AcDb2dVertex
 10
-79.0666639342264
 20
-39.40190157435092
 30
0.0
  0
VERTEX
  5
A1
330
9D
100
AcDbEntity
  8
DEFAULT
370
     0
100
AcDbVertex
100
AcDb2dVertex
 10
-78.6597981574184
 20
-39.72953015499817
 30
0.0
  0
VERTEX
  5
A2
330
9D
100
AcDbEntity
  8
DEFAULT
370
     0
100
AcDbVertex
100
AcDb2dVertex
 10
-77.86070825961468
 20
-40.03683267228246
 30
0.0
  0
VERTEX
  5
A3
330
9D
100
AcDbEntity
  8
DEFAULT
370
     0
100
AcDbVertex
100
AcDb2dVertex
 10
-76.70970185799271
 20
-39.91280923481347
 30
0.0
  0
VERTEX
  5
A4
330
9D
100
AcDbEntity
  8
DEFAULT
370
     0
100
AcDbVertex
100
AcDb2dVertex
 10
-76.0172376654575
 20
-39.45874564985754
 30
0.0
  0
VERTEX
  5
A5
330
9D
100
AcDbEntity
  8
DEFAULT
370
     0
100
AcDbVertex
100
AcDb2dVertex
 10
-75.32890758750459
 20
-38.62365450423297
 30
0.0
  0
VERTEX
  5
A6
330
9D
100
AcDbEntity
  8
DEFAULT
370
     0
100
AcDbVertex
100
AcDb2dVertex
 10
-75.09584687792743
 20
-37.5374158977337
 30
0.0
  0
VERTEX
  5
A7
330
9D
100
AcDbEntity
  8
DEFAULT
370
     0
100
AcDbVertex
100
AcDb2dVertex
 10
-79.59514158166373
 20
-38.02317436115393
 30
0.0
  0
SEQEND
  5
A8
330
9D
100
AcDbEntity
  8
DEFAULT
370
     0
  0
HATCH
  5
A9
330
45
100
AcDbEntity
  8
DEFAULT
 62
     7
420
 16777215
100
AcDbHatch
 10
0.0
 20
0.0
 30
0.0
210
0.0
220
0.0
230
1.0
  2
SOLID
 70
     1
 71
     0
 91
        2
 92
        1
 93
       24
 72
     1
 10
-79.795473884131
 20
-37.86159938289571
 11
-75.08241100553495
 21
-37.35310328927284
 72
     1
 10
-75.08241100553495
 20
-37.35310328927284
 11
-75.15372448207962
 21
-36.69233397520192
 72
     1
 10
-75.15372448207962
 20
-36.69233397520192
 11
-75.66687145460759
 21
-35.56234265603997
 72
     1
 10
-75.66687145460759
 20
-35.56234265603997
 11
-76.5178100394643
 21
-34.88882648867363
 72
     1
 10
-76.5178100394643
 20
-34.88882648867363
 11
-77.29640161913076
 21
-34.59806042971854
 72
     1
 10
-77.29640161913076
 20
-34.59806042971854
 11
-78.43138832674633
 21
-34.72070582899344
 72
     1
 10
-78.43138832674633
 20
-34.72070582899344
 11
-79.1419392705791
 21
-35.17993705717724
 72
     1
 10
-79.1419392705791
 20
-35.17993705717724
 11
-79.83113062240334
 21
-36.04155543803822
 72
     1
 10
-79.83113062240334
 20
-36.04155543803822
 11
-79.98305933330285
 21
-35.91925454831186
 72
     1
 10
-79.98305933330285
 20
-35.91925454831186
 11
-79.2687187844363
 21
-35.03834363273347
 72
     1
 10
-79.2687187844363
 20
-35.03834363273347
 11
-78.4958116123205
 21
-34.54466144969717
 72
     1
 10
-78.4958116123205
 20
-34.54466144969717
 11
-77.27366398892812
 21
-34.4127142926121
 72
     1
 10
-77.27366398892812
 20
-34.4127142926121
 11
-76.40791149348483
 21
-34.72966307725508
 72
     1
 10
-76.40791149348483
 20
-34.72966307725508
 11
-75.51425372461102
 21
-35.459334301031
 72
     1
 10
-75.51425372461102
 20
-35.459334301031
 11
-74.97785235755762
 21
-36.62653265143365
 72
     1
 10
-74.97785235755762
 20
-36.62653265143365
 11
-74.89034693223228
 21
-37.43785263820998
 72
     1
 10
-74.89034693223228
 20
-37.43785263820998
 11
-75.16526555195522
 21
-38.69255641393797
 72
     1
 10
-75.16526555195522
 20
-38.69255641393797
 11
-75.88201766766144
 21
-39.60171711249541
 72
     1
 10
-75.88201766766144
 20
-39.60171711249541
 11
-76.66095375687644
 21
-40.09023165230384
 72
     1
 10
-76.66095375687644
 20
-40.09023165230384
 11
-77.88310138026881
 21
-40.2221788093889
 72
     1
 10
-77.88310138026881
 20
-40.2221788093889
 11
-78.74265270383864
 21
-39.91039766797379
 72
     1
 10
-78.74265270383864
 20
-39.91039766797379
 11
-79.20429549886212
 21
-39.53867186511533
 72
     1
 10
-79.20429549886212
 20
-39.53867186511533
 11
-79.69849444622122
 21
-38.7604247949974
 72
     1
 10
-79.69849444622122
 20
-38.7604247949974
 11
-79.795473884131
 21
-37.86159938289571
 97
        0
 92
        1
 93
        9
 72
     1
 10
-79.59514158166373
 20
-38.02317436115393
 11
-79.52279457647347
 21
-38.69462347122912
 72
     1
 10
-79.52279457647347
 20
-38.69462347122912
 11
-79.0666639342264
 21
-39.40190157435092
 72
     1
 10
-79.0666639342264
 20
-39.40190157435092
 11
-78.6597981574184
 21
-39.72953015499817
 72
     1
 10
-78.6597981574184
 20
-39.72953015499817
 11
-77.86070825961468
 21
-40.03683267228246
 72
     1
 10
-77.86070825961468
 20
-40.03683267228246
 11
-76.70970185799271
 21
-39.91280923481347
 72
     1
 10
-76.70970185799271
 20
-39.91280923481347
 11
-76.0172376654575
 21
-39.45874564985754
 72
     1
 10
-76.0172376654575
 20
-39.45874564985754
 11
-75.32890758750459
 21
-38.62365450423297
 72
     1
 10
-75.32890758750459
 20
-38.62365450423297
 11
-75.09584687792743
 21
-37.5374158977337
 72
     1
 10
-75.09584687792743
 20
-37.5374158977337
 11
-79.59514158166373
 21
-38.02317436115393
 97
        0
 75
     2
 76
     1
 98
        0
  0
POLYLINE
  5
AA
330
45
100
AcDbEntity
  8
DEFAULT
370
     0
100
AcDb2dPolyline
 66
     1
 10
0.0
 20
0.0
 30
0.0
  0
VERTEX
  5
AB
330
AA
100
AcDbEntity
  8
DEFAULT
370
     0
100
AcDbVertex
100
AcDb2dVertex
 10
-82.51296520289607
 20
-34.62803276044021
 30
0.0
  0
VERTEX
  5
AC
330
AA
100
AcDbEntity
  8
DEFAULT
370
     0
100
AcDbVertex
100
AcDb2dVertex
 10
-82.33140867082341
 20
-34.64077961373564
 30
0.0
  0
VERTEX
  5
AD
330
AA
100
AcDbEntity
  8
DEFAULT
370
     0
100
AcDbVertex
100
AcDb2dVertex
 10
-82.90897892892554
 20
-42.9221001411792
 30
0.0
  0
VERTEX
  5
AE
330
AA
100
AcDbEntity
  8
DEFAULT
370
     0
100
AcDbVertex
100
AcDb2dVertex
 10
-83.09036320622394
 20
-42.90935328788377
 30
0.0
  0
VERTEX
  5
AF
330
AA
100
AcDbEntity
  8
DEFAULT
370
     0
100
AcDbVertex
100
AcDb2dVertex
 10
-82.51296520289607
 20
-34.62803276044021
 30
0.0
  0
SEQEND
  5
B0
330
AA
100
AcDbEntity
  8
DEFAULT
370
     0
  0
HATCH
  5
B1
330
45
100
AcDbEntity
  8
DEFAULT
 62
     7
420
 16777215
100
AcDbHatch
 10
0.0
 20
0.0
 30
0.0
210
0.0
220
0.0
230
1.0
  2
SOLID
 70
     1
 71
     0
 91
        1
 92
        1
 93
        4
 72
     1
 10
-82.51296520289607
 20
-34.62803276044021
 11
-82.33140867082341
 21
-34.64077961373564
 72
     1
 10
-82.33140867082341
 20
-34.64077961373564
 11
-82.90897892892554
 21
-42.9221001411792
 72
     1
 10
-82.90897892892554
 20
-42.9221001411792
 11
-83.09036320622394
 21
-42.90935328788377
 72
     1
 10
-83.09036320622394
 20
-42.90935328788377
 11
-82.51296520289607
 21
-34.62803276044021
 97
        0
 75
     2
 76
     1
 98
        0
  0
POLYLINE
  5
B2
330
45
100
AcDbEntity
  8
DEFAULT
370
     0
100
AcDb2dPolyline
 66
     1
 10
0.0
 20
0.0
 30
0.0
  0
VERTEX
  5
B3
330
B2
100
AcDbEntity
  8
DEFAULT
370
     0
100
AcDbVertex
100
AcDb2dVertex
 10
-90.23910859289161
 20
-36.25515135812371
 30
0.0
  0
VERTEX
  5
B4
330
B2
100
AcDbEntity
  8
DEFAULT
370
     0
100
AcDbVertex
100
AcDb2dVertex
 10
-85.64455699898816
 20
-37.42200519897784
 30
0.0
  0
VERTEX
  5
B5
330
B2
100
AcDbEntity
  8
DEFAULT
370
     0
100
AcDbVertex
100
AcDb2dVertex
 10
-85.4809149634388
 20
-36.77777234323612
 30
0.0
  0
VERTEX
  5
B6
330
B2
100
AcDbEntity
  8
DEFAULT
370
     0
100
AcDbVertex
100
AcDb2dVertex
 10
-85.5677313696671
 20
-35.53994953538584
 30
0.0
  0
VERTEX
  5
B7
330
B2
100
AcDbEntity
  8
DEFAULT
370
     0
100
AcDbVertex
100
AcDb2dVertex
 10
-86.13048771718266
 20
-34.61184081165954
 30
0.0
  0
VERTEX
  5
B8
330
B2
100
AcDbEntity
  8
DEFAULT
370
     0
100
AcDbVertex
100
AcDb2dVertex
 10
-86.75870087891796
 20
-34.06786023453859
 30
0.0
  0
VERTEX
  5
B9
330
B2
100
AcDbEntity
  8
DEFAULT
370
     0
100
AcDbVertex
100
AcDb2dVertex
 10
-87.86526554878021
 20
-33.7867404429422
 30
0.0
  0
VERTEX
  5
BA
330
B2
100
AcDbEntity
  8
DEFAULT
370
     0
100
AcDbVertex
100
AcDb2dVertex
 10
-88.69122719136887
 20
-33.96967501320897
 30
0.0
  0
VERTEX
  5
BB
330
B2
100
AcDbEntity
  8
DEFAULT
370
     0
100
AcDbVertex
100
AcDb2dVertex
 10
-89.63776717594126
 20
-34.53673773008109
 30
0.0
  0
VERTEX
  5
BC
330
B2
100
AcDbEntity
  8
DEFAULT
370
     0
100
AcDbVertex
100
AcDb2dVertex
 10
-89.73750269023924
 20
-34.36930608949795
 30
0.0
  0
VERTEX
  5
BD
330
B2
100
AcDbEntity
  8
DEFAULT
370
     0
100
AcDbVertex
100
AcDb2dVertex
 10
-88.76064586539665
 20
-33.79259710526713
 30
0.0
  0
VERTEX
  5
BE
330
B2
100
AcDbEntity
  8
DEFAULT
370
     0
100
AcDbVertex
100
AcDb2dVertex
 10
-87.86423202013464
 20
-33.59932724854461
 30
0.0
  0
VERTEX
  5
BF
330
B2
100
AcDbEntity
  8
DEFAULT
370
     0
100
AcDbVertex
100
AcDb2dVertex
 10
-86.67291800133525
 20
-33.90215114169808
 30
0.0
  0
VERTEX
  5
C0
330
B2
100
AcDbEntity
  8
DEFAULT
370
     0
100
AcDbVertex
100
AcDb2dVertex
 10
-85.97184107008691
 20
-34.5009087370345
 30
0.0
  0
VERTEX
  5
C1
330
B2
100
AcDbEntity
  8
DEFAULT
370
     0
100
AcDbVertex
100
AcDb2dVertex
 10
-85.38875865920836
 20
-35.4965413322717
 30
0.0
  0
VERTEX
  5
C2
330
B2
100
AcDbEntity
  8
DEFAULT
370
     0
100
AcDbVertex
100
AcDb2dVertex
 10
-85.29315725949269
 20
-36.77742783368759
 30
0.0
  0
VERTEX
  5
C3
330
B2
100
AcDbEntity
  8
DEFAULT
370
     0
100
AcDbVertex
100
AcDb2dVertex
 10
-85.49400632628276
 20
-37.56807724755242
 30
0.0
  0
VERTEX
  5
C4
330
B2
100
AcDbEntity
  8
DEFAULT
370
     0
100
AcDbVertex
100
AcDb2dVertex
 10
-86.18922659520616
 20
-38.64845919172678
 30
0.0
  0
VERTEX
  5
C5
330
B2
100
AcDbEntity
  8
DEFAULT
370
     0
100
AcDbVertex
100
AcDb2dVertex
 10
-87.17814125424714
 20
-39.25031737299992
 30
0.0
  0
VERTEX
  5
C6
330
B2
100
AcDbEntity
  8
DEFAULT
370
     0
100
AcDbVertex
100
AcDb2dVertex
 10
-88.07851695931718
 20
-39.43704154830046
 30
0.0
  0
VERTEX
  5
C7
330
B2
100
AcDbEntity
  8
DEFAULT
370
     0
100
AcDbVertex
100
AcDb2dVertex
 10
-89.26983097811657
 20
-39.134217655147
 30
0.0
  0
VERTEX
  5
C8
330
B2
100
AcDbEntity
  8
DEFAULT
370
     0
100
AcDbVertex
100
AcDb2dVertex
 10
-89.96677379478261
 20
-38.54235025078108
 30
0.0
  0
VERTEX
  5
C9
330
B2
100
AcDbEntity
  8
DEFAULT
370
     0
100
AcDbVertex
100
AcDb2dVertex
 10
-90.26976994271034
 20
-38.03316513806116
 30
0.0
  0
VERTEX
  5
CA
330
B2
100
AcDbEntity
  8
DEFAULT
370
     0
100
AcDbVertex
100
AcDb2dVertex
 10
-90.46166176123876
 20
-37.13123914002275
 30
0.0
  0
VERTEX
  5
CB
330
B2
100
AcDbEntity
  8
DEFAULT
370
     0
100
AcDbVertex
100
AcDb2dVertex
 10
-90.23910859289161
 20
-36.25515135812371
 30
0.0
  0
SEQEND
  5
CC
330
B2
100
AcDbEntity
  8
DEFAULT
370
     0
  0
POLYLINE
  5
CD
330
45
100
AcDbEntity
  8
DEFAULT
370
     0
100
AcDb2dPolyline
 66
     1
 10
0.0
 20
0.0
 30
0.0
  0
VERTEX
  5
CE
330
CD
100
AcDbEntity
  8
DEFAULT
370
     0
100
AcDbVertex
100
AcDb2dVertex
 10
-90.10767820012933
 20
-36.47632648827675
 30
0.0
  0
VERTEX
  5
CF
330
CD
100
AcDbEntity
  8
DEFAULT
370
     0
100
AcDbVertex
100
AcDb2dVertex
 10
-90.27390405729264
 20
-37.1305501209257
 30
0.0
  0
VERTEX
  5
D0
330
CD
100
AcDbEntity
  8
DEFAULT
370
     0
100
AcDbVertex
100
AcDb2dVertex
 10
-90.09303654431702
 20
-37.95254990370631
 30
0.0
  0
VERTEX
  5
D1
330
CD
100
AcDbEntity
  8
DEFAULT
370
     0
100
AcDbVertex
100
AcDb2dVertex
 10
-89.82604164421016
 20
-38.40144584543436
 30
0.0
  0
VERTEX
  5
D2
330
CD
100
AcDbEntity
  8
DEFAULT
370
     0
100
AcDbVertex
100
AcDb2dVertex
 10
-89.18439261008238
 20
-38.96850856230649
 30
0.0
  0
VERTEX
  5
D3
330
CD
100
AcDbEntity
  8
DEFAULT
370
     0
100
AcDbVertex
100
AcDb2dVertex
 10
-88.06215275576224
 20
-39.25341795893664
 30
0.0
  0
VERTEX
  5
D4
330
CD
100
AcDbEntity
  8
DEFAULT
370
     0
100
AcDbVertex
100
AcDb2dVertex
 10
-87.2549668835682
 20
-39.06944986002431
 30
0.0
  0
VERTEX
  5
D5
330
CD
100
AcDbEntity
  8
DEFAULT
370
     0
100
AcDbVertex
100
AcDb2dVertex
 10
-86.3185899306773
 20
-38.52650281154893
 30
0.0
  0
VERTEX
  5
D6
330
CD
100
AcDbEntity
  8
DEFAULT
370
     0
100
AcDbVertex
100
AcDb2dVertex
 10
-85.72138262830924
 20
-37.59012585865803
 30
0.0
  0
VERTEX
  5
D7
330
CD
100
AcDbEntity
  8
DEFAULT
370
     0
100
AcDbVertex
100
AcDb2dVertex
 10
-90.10767820012933
 20
-36.47632648827675
 30
0.0
  0
SEQEND
  5
D8
330
CD
100
AcDbEntity
  8
DEFAULT
370
     0
  0
HATCH
  5
D9
330
45
100
AcDbEntity
  8
DEFAULT
 62
     7
420
 16777215
100
AcDbHatch
 10
0.0
 20
0.0
 30
0.0
210
0.0
220
0.0
230
1.0
  2
SOLID
 70
     1
 71
     0
 91
        2
 92
        1
 93
       24
 72
     1
 10
-90.23910859289161
 20
-36.25515135812371
 11
-85.64455699898816
 21
-37.42200519897784
 72
     1
 10
-85.64455699898816
 20
-37.42200519897784
 11
-85.4809149634388
 21
-36.77777234323612
 72
     1
 10
-85.4809149634388
 20
-36.77777234323612
 11
-85.5677313696671
 21
-35.53994953538584
 72
     1
 10
-85.5677313696671
 20
-35.53994953538584
 11
-86.13048771718266
 21
-34.61184081165954
 72
     1
 10
-86.13048771718266
 20
-34.61184081165954
 11
-86.75870087891796
 21
-34.06786023453859
 72
     1
 10
-86.75870087891796
 20
-34.06786023453859
 11
-87.86526554878021
 21
-33.7867404429422
 72
     1
 10
-87.86526554878021
 20
-33.7867404429422
 11
-88.69122719136887
 21
-33.96967501320897
 72
     1
 10
-88.69122719136887
 20
-33.96967501320897
 11
-89.63776717594126
 21
-34.53673773008109
 72
     1
 10
-89.63776717594126
 20
-34.53673773008109
 11
-89.73750269023924
 21
-34.36930608949795
 72
     1
 10
-89.73750269023924
 20
-34.36930608949795
 11
-88.76064586539665
 21
-33.79259710526713
 72
     1
 10
-88.76064586539665
 20
-33.79259710526713
 11
-87.86423202013464
 21
-33.59932724854461
 72
     1
 10
-87.86423202013464
 20
-33.59932724854461
 11
-86.67291800133525
 21
-33.90215114169808
 72
     1
 10
-86.67291800133525
 20
-33.90215114169808
 11
-85.97184107008691
 21
-34.5009087370345
 72
     1
 10
-85.97184107008691
 20
-34.5009087370345
 11
-85.38875865920836
 21
-35.4965413322717
 72
     1
 10
-85.38875865920836
 20
-35.4965413322717
 11
-85.29315725949269
 21
-36.77742783368759
 72
     1
 10
-85.29315725949269
 20
-36.77742783368759
 11
-85.49400632628276
 21
-37.56807724755242
 72
     1
 10
-85.49400632628276
 20
-37.56807724755242
 11
-86.18922659520616
 21
-38.64845919172678
 72
     1
 10
-86.18922659520616
 20
-38.64845919172678
 11
-87.17814125424714
 21
-39.25031737299992
 72
     1
 10
-87.17814125424714
 20
-39.25031737299992
 11
-88.07851695931718
 21
-39.43704154830046
 72
     1
 10
-88.07851695931718
 20
-39.43704154830046
 11
-89.26983097811657
 21
-39.134217655147
 72
     1
 10
-89.26983097811657
 20
-39.134217655147
 11
-89.96677379478261
 21
-38.54235025078108
 72
     1
 10
-89.96677379478261
 20
-38.54235025078108
 11
-90.26976994271034
 21
-38.03316513806116
 72
     1
 10
-90.26976994271034
 20
-38.03316513806116
 11
-90.46166176123876
 21
-37.13123914002275
 72
     1
 10
-90.46166176123876
 20
-37.13123914002275
 11
-90.23910859289161
 21
-36.25515135812371
 97
        0
 92
        1
 93
        9
 72
     1
 10
-90.10767820012933
 20
-36.47632648827675
 11
-90.27390405729264
 21
-37.1305501209257
 72
     1
 10
-90.27390405729264
 20
-37.1305501209257
 11
-90.09303654431702
 21
-37.95254990370631
 72
     1
 10
-90.09303654431702
 20
-37.95254990370631
 11
-89.82604164421016
 21
-38.40144584543436
 72
     1
 10
-89.82604164421016
 20
-38.40144584543436
 11
-89.18439261008238
 21
-38.96850856230649
 72
     1
 10
-89.18439261008238
 20
-38.96850856230649
 11
-88.06215275576224
 21
-39.25341795893664
 72
     1
 10
-88.06215275576224
 20
-39.25341795893664
 11
-87.2549668835682
 21
-39.06944986002431
 72
     1
 10
-87.2549668835682
 20
-39.06944986002431
 11
-86.3185899306773
 21
-38.52650281154893
 72
     1
 10
-86.3185899306773
 20
-38.52650281154893
 11
-85.72138262830924
 21
-37.59012585865803
 72
     1
 10
-85.72138262830924
 20
-37.59012585865803
 11
-90.10767820012933
 21
-36.47632648827675
 97
        0
 75
     2
 76
     1
 98
        0
  0
POLYLINE
  5
DA
330
45
100
AcDbEntity
  8
DEFAULT
370
     0
100
AcDb2dPolyline
 66
     1
 10
0.0
 20
0.0
 30
0.0
  0
VERTEX
  5
DB
330
DA
100
AcDbEntity
  8
DEFAULT
370
     0
100
AcDbVertex
100
AcDb2dVertex
 10
-95.59382050561544
 20
-31.53226995739471
 30
0.0
  0
VERTEX
  5
DC
330
DA
100
AcDbEntity
  8
DEFAULT
370
     0
100
AcDbVertex
100
AcDb2dVertex
 10
-94.83107636518112
 20
-30.98346624659441
 30
0.0
  0
VERTEX
  5
DD
330
DA
100
AcDbEntity
  8
DEFAULT
370
     0
100
AcDbVertex
100
AcDb2dVertex
 10
-93.54019908685801
 20
-31.21187607726648
 30
0.0
  0
VERTEX
  5
DE
330
DA
100
AcDbEntity
  8
DEFAULT
370
     0
100
AcDbVertex
100
AcDb2dVertex
 10
-92.47600909146433
 20
-31.7816948705268
 30
0.0
  0
VERTEX
  5
DF
330
DA
100
AcDbEntity
  8
DEFAULT
370
     0
100
AcDbVertex
100
AcDb2dVertex
 10
-91.5751166220715
 20
-32.72668456213083
 30
0.0
  0
VERTEX
  5
E0
330
DA
100
AcDbEntity
  8
DEFAULT
370
     0
100
AcDbVertex
100
AcDb2dVertex
 10
-91.6031941502763
 20
-33.64307996120728
 30
0.0
  0
VERTEX
  5
E1
330
DA
100
AcDbEntity
  8
DEFAULT
370
     0
100
AcDbVertex
100
AcDb2dVertex
 10
-91.7799275486696
 20
-33.65065917127484
 30
0.0
  0
VERTEX
  5
E2
330
DA
100
AcDbEntity
  8
DEFAULT
370
     0
100
AcDbVertex
100
AcDb2dVertex
 10
-91.75977374008089
 20
-32.81281194926208
 30
0.0
  0
VERTEX
  5
E3
330
DA
100
AcDbEntity
  8
DEFAULT
370
     0
100
AcDbVertex
100
AcDb2dVertex
 10
-92.58763018518643
 20
-31.92811142864992
 30
0.0
  0
VERTEX
  5
E4
330
DA
100
AcDbEntity
  8
DEFAULT
370
     0
100
AcDbVertex
100
AcDb2dVertex
 10
-93.60806746791744
 20
-31.38171928468929
 30
0.0
  0
VERTEX
  5
E5
330
DA
100
AcDbEntity
  8
DEFAULT
370
     0
100
AcDbVertex
100
AcDb2dVertex
 10
-94.77905542335385
 20
-31.18638237067563
 30
0.0
  0
VERTEX
  5
E6
330
DA
100
AcDbEntity
  8
DEFAULT
370
     0
100
AcDbVertex
100
AcDb2dVertex
 10
-95.45653345052823
 20
-31.66146103809158
 30
0.0
  0
VERTEX
  5
E7
330
DA
100
AcDbEntity
  8
DEFAULT
370
     0
100
AcDbVertex
100
AcDb2dVertex
 10
-95.62051999562613
 20
-31.96738551718177
 30
0.0
  0
VERTEX
  5
E8
330
DA
100
AcDbEntity
  8
DEFAULT
370
     0
100
AcDbVertex
100
AcDb2dVertex
 10
-95.64187958763468
 20
-32.80006509596665
 30
0.0
  0
VERTEX
  5
E9
330
DA
100
AcDbEntity
  8
DEFAULT
370
     0
100
AcDbVertex
100
AcDb2dVertex
 10
-95.15422632169756
 20
-33.48632811662842
 30
0.0
  0
VERTEX
  5
EA
330
DA
100
AcDbEntity
  8
DEFAULT
370
     0
100
AcDbVertex
100
AcDb2dVertex
 10
-93.59755992668742
 20
-34.76376952255906
 30
0.0
  0
VERTEX
  5
EB
330
DA
100
AcDbEntity
  8
DEFAULT
370
     0
100
AcDbVertex
100
AcDb2dVertex
 10
-93.07132159131551
 20
-35.52100151021698
 30
0.0
  0
VERTEX
  5
EC
330
DA
100
AcDbEntity
  8
DEFAULT
370
     0
100
AcDbVertex
100
AcDb2dVertex
 10
-93.0980210813262
 20
-36.48183864105315
 30
0.0
  0
VERTEX
  5
ED
330
DA
100
AcDbEntity
  8
DEFAULT
370
     0
100
AcDbVertex
100
AcDb2dVertex
 10
-93.88815373086824
 20
-37.04683430063412
 30
0.0
  0
VERTEX
  5
EE
330
DA
100
AcDbEntity
  8
DEFAULT
370
     0
100
AcDbVertex
100
AcDb2dVertex
 10
-95.1714517991238
 20
-36.81601290312238
 30
0.0
  0
VERTEX
  5
EF
330
DA
100
AcDbEntity
  8
DEFAULT
370
     0
100
AcDbVertex
100
AcDb2dVertex
 10
-96.23581404929175
 20
-36.24619410986207
 30
0.0
  0
VERTEX
  5
F0
330
DA
100
AcDbEntity
  8
DEFAULT
370
     0
100
AcDbVertex
100
AcDb2dVertex
 10
-97.14411347397787
 20
-35.30361598509771
 30
0.0
  0
VERTEX
  5
F1
330
DA
100
AcDbEntity
  8
DEFAULT
370
     0
100
AcDbVertex
100
AcDb2dVertex
 10
-97.11827525783849
 20
-34.37929686640518
 30
0.0
  0
VERTEX
  5
F2
330
DA
100
AcDbEntity
  8
DEFAULT
370
     0
100
AcDbVertex
100
AcDb2dVertex
 10
-96.94171411421944
 20
-34.37929686640518
 30
0.0
  0
VERTEX
  5
F3
330
DA
100
AcDbEntity
  8
DEFAULT
370
     0
100
AcDbVertex
100
AcDb2dVertex
 10
-96.9487765599642
 20
-35.22024467435466
 30
0.0
  0
VERTEX
  5
F4
330
DA
100
AcDbEntity
  8
DEFAULT
370
     0
100
AcDbVertex
100
AcDb2dVertex
 10
-96.14055715912458
 20
-36.09082030347729
 30
0.0
  0
VERTEX
  5
F5
330
DA
100
AcDbEntity
  8
DEFAULT
370
     0
100
AcDbVertex
100
AcDb2dVertex
 10
-95.11185164722899
 20
-36.64169107156874
 30
0.0
  0
VERTEX
  5
F6
330
DA
100
AcDbEntity
  8
DEFAULT
370
     0
100
AcDbVertex
100
AcDb2dVertex
 10
-93.93207869830518
 20
-36.84012857151914
 30
0.0
  0
VERTEX
  5
F7
330
DA
100
AcDbEntity
  8
DEFAULT
370
     0
100
AcDbVertex
100
AcDb2dVertex
 10
-93.28285045410985
 20
-36.38916557249993
 30
0.0
  0
VERTEX
  5
F8
330
DA
100
AcDbEntity
  8
DEFAULT
370
     0
100
AcDbVertex
100
AcDb2dVertex
 10
-93.25477292590506
 20
-35.57577852843244
 30
0.0
  0
VERTEX
  5
F9
330
DA
100
AcDbEntity
  8
DEFAULT
370
     0
100
AcDbVertex
100
AcDb2dVertex
 10
-93.74208168229364
 20
-34.89433864145003
 30
0.0
  0
VERTEX
  5
FA
330
DA
100
AcDbEntity
  8
DEFAULT
370
     0
100
AcDbVertex
100
AcDb2dVertex
 10
-95.30012611549789
 20
-33.61586370687381
 30
0.0
  0
VERTEX
  5
FB
330
DA
100
AcDbEntity
  8
DEFAULT
370
     0
100
AcDbVertex
100
AcDb2dVertex
 10
-95.83256562274325
 20
-32.85553113327917
 30
0.0
  0
VERTEX
  5
FC
330
DA
100
AcDbEntity
  8
DEFAULT
370
     0
100
AcDbVertex
100
AcDb2dVertex
 10
-95.80207652769879
 20
-31.92122123767942
 30
0.0
  0
VERTEX
  5
FD
330
DA
100
AcDbEntity
  8
DEFAULT
370
     0
100
AcDbVertex
100
AcDb2dVertex
 10
-95.59382050561544
 20
-31.53226995739471
 30
0.0
  0
SEQEND
  5
FE
330
DA
100
AcDbEntity
  8
DEFAULT
370
     0
  0
HATCH
  5
FF
330
45
100
AcDbEntity
  8
DEFAULT
 62
     7
420
 16777215
100
AcDbHatch
 10
0.0
 20
0.0
 30
0.0
210
0.0
220
0.0
230
1.0
  2
SOLID
 70
     1
 71
     0
 91
        1
 92
        1
 93
       34
 72
     1
 10
-95.59382050561544
 20
-31.53226995739471
 11
-94.83107636518112
 21
-30.98346624659441
 72
     1
 10
-94.83107636518112
 20
-30.98346624659441
 11
-93.54019908685801
 21
-31.21187607726648
 72
     1
 10
-93.54019908685801
 20
-31.21187607726648
 11
-92.47600909146433
 21
-31.7816948705268
 72
     1
 10
-92.47600909146433
 20
-31.7816948705268
 11
-91.5751166220715
 21
-32.72668456213083
 72
     1
 10
-91.5751166220715
 20
-32.72668456213083
 11
-91.6031941502763
 21
-33.64307996120728
 72
     1
 10
-91.6031941502763
 20
-33.64307996120728
 11
-91.7799275486696
 21
-33.65065917127484
 72
     1
 10
-91.7799275486696
 20
-33.65065917127484
 11
-91.75977374008089
 21
-32.81281194926208
 72
     1
 10
-91.75977374008089
 20
-32.81281194926208
 11
-92.58763018518643
 21
-31.92811142864992
 72
     1
 10
-92.58763018518643
 20
-31.92811142864992
 11
-93.60806746791744
 21
-31.38171928468929
 72
     1
 10
-93.60806746791744
 20
-31.38171928468929
 11
-94.77905542335385
 21
-31.18638237067563
 72
     1
 10
-94.77905542335385
 20
-31.18638237067563
 11
-95.45653345052823
 21
-31.66146103809158
 72
     1
 10
-95.45653345052823
 20
-31.66146103809158
 11
-95.62051999562613
 21
-31.96738551718177
 72
     1
 10
-95.62051999562613
 20
-31.96738551718177
 11
-95.64187958763468
 21
-32.80006509596665
 72
     1
 10
-95.64187958763468
 20
-32.80006509596665
 11
-95.15422632169756
 21
-33.48632811662842
 72
     1
 10
-95.15422632169756
 20
-33.48632811662842
 11
-93.59755992668742
 21
-34.76376952255906
 72
     1
 10
-93.59755992668742
 20
-34.76376952255906
 11
-93.07132159131551
 21
-35.52100151021698
 72
     1
 10
-93.07132159131551
 20
-35.52100151021698
 11
-93.0980210813262
 21
-36.48183864105315
 72
     1
 10
-93.0980210813262
 20
-36.48183864105315
 11
-93.88815373086824
 21
-37.04683430063412
 72
     1
 10
-93.88815373086824
 20
-37.04683430063412
 11
-95.1714517991238
 21
-36.81601290312238
 72
     1
 10
-95.1714517991238
 20
-36.81601290312238
 11
-96.23581404929175
 21
-36.24619410986207
 72
     1
 10
-96.23581404929175
 20
-36.24619410986207
 11
-97.14411347397787
 21
-35.30361598509771
 72
     1
 10
-97.14411347397787
 20
-35.30361598509771
 11
-97.11827525783849
 21
-34.37929686640518
 72
     1
 10
-97.11827525783849
 20
-34.37929686640518
 11
-96.94171411421944
 21
-34.37929686640518
 72
     1
 10
-96.94171411421944
 20
-34.37929686640518
 11
-96.9487765599642
 21
-35.22024467435466
 72
     1
 10
-96.9487765599642
 20
-35.22024467435466
 11
-96.14055715912458
 21
-36.09082030347729
 72
     1
 10
-96.14055715912458
 20
-36.09082030347729
 11
-95.11185164722899
 21
-36.64169107156874
 72
     1
 10
-95.11185164722899
 20
-36.64169107156874
 11
-93.93207869830518
 21
-36.84012857151914
 72
     1
 10
-93.93207869830518
 20
-36.84012857151914
 11
-93.28285045410985
 21
-36.38916557249993
 72
     1
 10
-93.28285045410985
 20
-36.38916557249993
 11
-93.25477292590506
 21
-35.57577852843244
 72
     1
 10
-93.25477292590506
 20
-35.57577852843244
 11
-93.74208168229364
 21
-34.89433864145003
 72
     1
 10
-93.74208168229364
 20
-34.89433864145003
 11
-95.30012611549789
 21
-33.61586370687381
 72
     1
 10
-95.30012611549789
 20
-33.61586370687381
 11
-95.83256562274325
 21
-32.85553113327917
 72
     1
 10
-95.83256562274325
 20
-32.85553113327917
 11
-95.80207652769879
 21
-31.92122123767942
 72
     1
 10
-95.80207652769879
 20
-31.92122123767942
 11
-95.59382050561544
 21
-31.53226995739471
 97
        0
 75
     2
 76
     1
 98
        0
  0
POLYLINE
  5
100
330
45
100
AcDbEntity
  8
DEFAULT
370
     0
100
AcDb2dPolyline
 66
     1
 10
0.0
 20
0.0
 30
0.0
  0
VERTEX
  5
101
330
100
100
AcDbEntity
  8
DEFAULT
370
     0
100
AcDbVertex
100
AcDb2dVertex
 10
-100.5974771883923
 20
-27.40022243238606
 30
0.0
  0
VERTEX
  5
102
330
100
100
AcDbEntity
  8
DEFAULT
370
     0
100
AcDbVertex
100
AcDb2dVertex
 10
-99.72845185223802
 20
-27.04296603056565
 30
0.0
  0
VERTEX
  5
103
330
100
100
AcDbEntity
  8
DEFAULT
370
     0
100
AcDbVertex
100
AcDb2dVertex
 10
-98.52559676356304
 20
-27.56420897748395
 30
0.0
  0
VERTEX
  5
104
330
100
100
AcDbEntity
  8
DEFAULT
370
     0
100
AcDbVertex
100
AcDb2dVertex
 10
-97.62229272733055
 20
-28.36519367780454
 30
0.0
  0
VERTEX
  5
105
330
100
100
AcDbEntity
  8
DEFAULT
370
     0
100
AcDbVertex
100
AcDb2dVertex
 10
-96.96496850874487
 20
-29.49311793967533
 30
0.0
  0
VERTEX
  5
106
330
100
100
AcDbEntity
  8
DEFAULT
370
     0
100
AcDbVertex
100
AcDb2dVertex
 10
-97.204574899744
 20
-30.37816296983602
 30
0.0
  0
VERTEX
  5
107
330
100
100
AcDbEntity
  8
DEFAULT
370
     0
100
AcDbVertex
100
AcDb2dVertex
 10
-97.37820771220059
 20
-30.34474554362909
 30
0.0
  0
VERTEX
  5
108
330
100
100
AcDbEntity
  8
DEFAULT
370
     0
100
AcDbVertex
100
AcDb2dVertex
 10
-97.16443953734084
 20
-29.53411457594981
 30
0.0
  0
VERTEX
  5
109
330
100
100
AcDbEntity
  8
DEFAULT
370
     0
100
AcDbVertex
100
AcDb2dVertex
 10
-97.76491968041988
 20
-28.4819824147545
 30
0.0
  0
VERTEX
  5
10A
330
100
100
AcDbEntity
  8
DEFAULT
370
     0
100
AcDbVertex
100
AcDb2dVertex
 10
-98.6310166854117
 20
-27.71407063109232
 30
0.0
  0
VERTEX
  5
10B
330
100
100
AcDbEntity
  8
DEFAULT
370
     0
100
AcDbVertex
100
AcDb2dVertex
 10
-99.72483450197852
 20
-27.25242783606884
 30
0.0
  0
VERTEX
  5
10C
330
100
100
AcDbEntity
  8
DEFAULT
370
     0
100
AcDbVertex
100
AcDb2dVertex
 10
-100.4939520690605
 20
-27.55766329606197
 30
0.0
  0
VERTEX
  5
10D
330
100
100
AcDbEntity
  8
DEFAULT
370
     0
100
AcDbVertex
100
AcDb2dVertex
 10
-100.7244289570238
 20
-27.81742349564981
 30
0.0
  0
VERTEX
  5
10E
330
100
100
AcDbEntity
  8
DEFAULT
370
     0
100
AcDbVertex
100
AcDb2dVertex
 10
-100.9380248771092
 20
-28.6225423105527
 30
0.0
  0
VERTEX
  5
10F
330
100
100
AcDbEntity
  8
DEFAULT
370
     0
100
AcDbVertex
100
AcDb2dVertex
 10
-100.6226263854346
 20
-29.40285643796179
 30
0.0
  0
VERTEX
  5
110
330
100
100
AcDbEntity
  8
DEFAULT
370
     0
100
AcDbVertex
100
AcDb2dVertex
 10
-99.40426836707601
 20
-31.00620387679706
 30
0.0
  0
VERTEX
  5
111
330
100
100
AcDbEntity
  8
DEFAULT
370
     0
100
AcDbVertex
100
AcDb2dVertex
 10
-99.0676825381671
 20
-31.86472167172132
 30
0.0
  0
VERTEX
  5
112
330
100
100
AcDbEntity
  8
DEFAULT
370
     0
100
AcDbVertex
100
AcDb2dVertex
 10
-99.31641843220216
 20
-32.79317490499615
 30
0.0
  0
VERTEX
  5
113
330
100
100
AcDbEntity
  8
DEFAULT
370
     0
100
AcDbVertex
100
AcDb2dVertex
 10
-100.2159328634009
 20
-33.15973306462674
 30
0.0
  0
VERTEX
  5
114
330
100
100
AcDbEntity
  8
DEFAULT
370
     0
100
AcDbVertex
100
AcDb2dVertex
 10
-101.4108642324598
 20
-32.63814560815991
 30
0.0
  0
VERTEX
  5
115
330
100
100
AcDbEntity
  8
DEFAULT
370
     0
100
AcDbVertex
100
AcDb2dVertex
 10
-102.3141682686923
 20
-31.83716090783932
 30
0.0
  0
VERTEX
  5
116
330
100
100
AcDbEntity
  8
DEFAULT
370
     0
100
AcDbVertex
100
AcDb2dVertex
 10
-102.9792439521198
 20
-30.70958115551705
 30
0.0
  0
VERTEX
  5
117
330
100
100
AcDbEntity
  8
DEFAULT
370
     0
100
AcDbVertex
100
AcDb2dVertex
 10
-102.7401543254434
 20
-29.81661240574029
 30
0.0
  0
VERTEX
  5
118
330
100
100
AcDbEntity
  8
DEFAULT
370
     0
100
AcDbVertex
100
AcDb2dVertex
 10
-102.5684163155037
 20
-29.85760904201477
 30
0.0
  0
VERTEX
  5
119
330
100
100
AcDbEntity
  8
DEFAULT
370
     0
100
AcDbVertex
100
AcDb2dVertex
 10
-102.7701266561651
 20
-30.67375216247045
 30
0.0
  0
VERTEX
  5
11A
330
100
100
AcDbEntity
  8
DEFAULT
370
     0
100
AcDbVertex
100
AcDb2dVertex
 10
-102.1854939523182
 20
-31.70796982714245
 30
0.0
  0
VERTEX
  5
11B
330
100
100
AcDbEntity
  8
DEFAULT
370
     0
100
AcDbVertex
100
AcDb2dVertex
 10
-101.3125067563559
 20
-32.48208278267809
 30
0.0
  0
VERTEX
  5
11C
330
100
100
AcDbEntity
  8
DEFAULT
370
     0
100
AcDbVertex
100
AcDb2dVertex
 10
-100.210765220173
 20
-32.94854871138092
 30
0.0
  0
VERTEX
  5
11D
330
100
100
AcDbEntity
  8
DEFAULT
370
     0
100
AcDbVertex
100
AcDb2dVertex
 10
-99.47472056974938
 20
-32.66019421926551
 30
0.0
  0
VERTEX
  5
11E
330
100
100
AcDbEntity
  8
DEFAULT
370
     0
100
AcDbVertex
100
AcDb2dVertex
 10
-99.25888533759847
 20
-31.87574597727412
 30
0.0
  0
VERTEX
  5
11F
330
100
100
AcDbEntity
  8
DEFAULT
370
     0
100
AcDbVertex
100
AcDb2dVertex
 10
-99.57497284837015
 20
-31.09956596444733
 30
0.0
  0
VERTEX
  5
120
330
100
100
AcDbEntity
  8
DEFAULT
370
     0
100
AcDbVertex
100
AcDb2dVertex
 10
-100.7945366501486
 20
-29.49518499696648
 30
0.0
  0
VERTEX
  5
121
330
100
100
AcDbEntity
  8
DEFAULT
370
     0
100
AcDbVertex
100
AcDb2dVertex
 10
-101.1362901222854
 20
-28.6321885779114
 30
0.0
  0
VERTEX
  5
122
330
100
100
AcDbEntity
  8
DEFAULT
370
     0
100
AcDbVertex
100
AcDb2dVertex
 10
-100.8901380498643
 20
-27.73026257987299
 30
0.0
  0
VERTEX
  5
123
330
100
100
AcDbEntity
  8
DEFAULT
370
     0
100
AcDbVertex
100
AcDb2dVertex
 10
-100.5974771883923
 20
-27.40022243238606
 30
0.0
  0
SEQEND
  5
124
330
100
100
AcDbEntity
  8
DEFAULT
370
     0
  0
HATCH
  5
125
330
45
100
AcDbEntity
  8
DEFAULT
 62
     7
420
 16777215
100
AcDbHatch
 10
0.0
 20
0.0
 30
0.0
210
0.0
220
0.0
230
1.0
  2
SOLID
 70
     1
 71
     0
 91
        1
 92
        1
 93
       34
 72
     1
 10
-100.5974771883923
 20
-27.40022243238606
 11
-99.72845185223802
 21
-27.04296603056565
 72
     1
 10
-99.72845185223802
 20
-27.04296603056565
 11
-98.52559676356304
 21
-27.56420897748395
 72
     1
 10
-98.52559676356304
 20
-27.56420897748395
 11
-97.62229272733055
 21
-28.36519367780454
 72
     1
 10
-97.62229272733055
 20
-28.36519367780454
 11
-96.96496850874487
 21
-29.49311793967533
 72
     1
 10
-96.96496850874487
 20
-29.49311793967533
 11
-97.204574899744
 21
-30.37816296983602
 72
     1
 10
-97.204574899744
 20
-30.37816296983602
 11
-97.37820771220059
 21
-30.34474554362909
 72
     1
 10
-97.37820771220059
 20
-30.34474554362909
 11
-97.16443953734084
 21
-29.53411457594981
 72
     1
 10
-97.16443953734084
 20
-29.53411457594981
 11
-97.76491968041988
 21
-28.4819824147545
 72
     1
 10
-97.76491968041988
 20
-28.4819824147545
 11
-98.6310166854117
 21
-27.71407063109232
 72
     1
 10
-98.6310166854117
 20
-27.71407063109232
 11
-99.72483450197852
 21
-27.25242783606884
 72
     1
 10
-99.72483450197852
 20
-27.25242783606884
 11
-100.4939520690605
 21
-27.55766329606197
 72
     1
 10
-100.4939520690605
 20
-27.55766329606197
 11
-100.7244289570238
 21
-27.81742349564981
 72
     1
 10
-100.7244289570238
 20
-27.81742349564981
 11
-100.9380248771092
 21
-28.6225423105527
 72
     1
 10
-100.9380248771092
 20
-28.6225423105527
 11
-100.6226263854346
 21
-29.40285643796179
 72
     1
 10
-100.6226263854346
 20
-29.40285643796179
 11
-99.40426836707601
 21
-31.00620387679706
 72
     1
 10
-99.40426836707601
 20
-31.00620387679706
 11
-99.0676825381671
 21
-31.86472167172132
 72
     1
 10
-99.0676825381671
 20
-31.86472167172132
 11
-99.31641843220216
 21
-32.79317490499615
 72
     1
 10
-99.31641843220216
 20
-32.79317490499615
 11
-100.2159328634009
 21
-33.15973306462674
 72
     1
 10
-100.2159328634009
 20
-33.15973306462674
 11
-101.4108642324598
 21
-32.63814560815991
 72
     1
 10
-101.4108642324598
 20
-32.63814560815991
 11
-102.3141682686923
 21
-31.83716090783932
 72
     1
 10
-102.3141682686923
 20
-31.83716090783932
 11
-102.9792439521198
 21
-30.70958115551705
 72
     1
 10
-102.9792439521198
 20
-30.70958115551705
 11
-102.7401543254434
 21
-29.81661240574029
 72
     1
 10
-102.7401543254434
 20
-29.81661240574029
 11
-102.5684163155037
 21
-29.85760904201477
 72
     1
 10
-102.5684163155037
 20
-29.85760904201477
 11
-102.7701266561651
 21
-30.67375216247045
 72
     1
 10
-102.7701266561651
 20
-30.67375216247045
 11
-102.1854939523182
 21
-31.70796982714245
 72
     1
 10
-102.1854939523182
 20
-31.70796982714245
 11
-101.3125067563559
 21
-32.48208278267809
 72
     1
 10
-101.3125067563559
 20
-32.48208278267809
 11
-100.210765220173
 21
-32.94854871138092
 72
     1
 10
-100.210765220173
 20
-32.94854871138092
 11
-99.47472056974938
 21
-32.66019421926551
 72
     1
 10
-99.47472056974938
 20
-32.66019421926551
 11
-99.25888533759847
 21
-31.87574597727412
 72
     1
 10
-99.25888533759847
 20
-31.87574597727412
 11
-99.57497284837015
 21
-31.09956596444733
 72
     1
 10
-99.57497284837015
 20
-31.09956596444733
 11
-100.7945366501486
 21
-29.49518499696648
 72
     1
 10
-100.7945366501486
 20
-29.49518499696648
 11
-101.1362901222854
 21
-28.6321885779114
 72
     1
 10
-101.1362901222854
 20
-28.6321885779114
 11
-100.8901380498643
 21
-27.73026257987299
 72
     1
 10
-100.8901380498643
 20
-27.73026257987299
 11
-100.5974771883923
 21
-27.40022243238606
 97
        0
 75
     2
 76
     1
 98
        0
  0
ENDBLK
  5
48
330
45
100
AcDbEntity
  8
0
100
AcDbBlockEnd
  0
BLOCK
  5
128
330
126
100
AcDbEntity
  8
0
100
AcDbBlockBegin
  2
block 4
 70
     0
 10
0.0
 20
0.0
 30
0.0
  3
block 4
  1

  0
INSERT
  5
12B
330
126
100
AcDbEntity
  8
DEFAULT
100
AcDbBlockReference
  2
block 5
 10
0.0
 20
0.0
 30
0.0
  0
ENDBLK
  5
129
330
126
100
AcDbEntity
  8
0
100
AcDbBlockEnd
  0
BLOCK
  5
12C
330
12A
100
AcDbEntity
  8
0
100
AcDbBlockBegin
  2
block 5
 70
     0
 10
0.0
 20
0.0
 30
0.0
  3
block 5
  1

  0
POLYLINE
  5
12E
330
12A
100
AcDbEntity
  8
DEFAULT
370
     0
100
AcDb2dPolyline
 66
     1
 10
0.0
 20
0.0
 30
0.0
  0
VERTEX
  5
12F
330
12E
100
AcDbEntity
  8
DEFAULT
370
     0
100
AcDbVertex
100
AcDb2dVertex
 10
-104.5736341426934
 20
17.41134032767842
 30
0.0
  0
VERTEX
  5
130
330
12E
100
AcDbEntity
  8
DEFAULT
370
     0
100
AcDbVertex
100
AcDb2dVertex
 10
-99.37601858409697
 20
10.6715277751099
 30
0.0
  0
VERTEX
  5
131
330
12E
100
AcDbEntity
  8
DEFAULT
370
     0
100
AcDbVertex
100
AcDb2dVertex
 10
-99.49349634014399
 20
10.52648925518088
 30
0.0
  0
VERTEX
  5
132
330
12E
100
AcDbEntity
  8
DEFAULT
370
     0
100
AcDbVertex
100
AcDb2dVertex
 10
-106.8265543352725
 20
14.0368692998762
 30
0.0
  0
VERTEX
  5
133
330
12E
100
AcDbEntity
  8
DEFAULT
370
     0
100
AcDbVertex
100
AcDb2dVertex
 10
-101.8582098812195
 20
7.601947697752292
 30
0.0
  0
VERTEX
  5
134
330
12E
100
AcDbEntity
  8
DEFAULT
370
     0
100
AcDbVertex
100
AcDb2dVertex
 10
-101.9751708729437
 20
7.456564668274748
 30
0.0
  0
VERTEX
  5
135
330
12E
100
AcDbEntity
  8
DEFAULT
370
     0
100
AcDbVertex
100
AcDb2dVertex
 10
-109.6541164547913
 20
11.12731390780845
 30
0.0
  0
VERTEX
  5
136
330
12E
100
AcDbEntity
  8
DEFAULT
370
     0
100
AcDbVertex
100
AcDb2dVertex
 10
-109.5798746470842
 20
11.28751084787257
 30
0.0
  0
VERTEX
  5
137
330
12E
100
AcDbEntity
  8
DEFAULT
370
     0
100
AcDbVertex
100
AcDb2dVertex
 10
-102.2232177478817
 20
7.776958548402983
 30
0.0
  0
VERTEX
  5
138
330
12E
100
AcDbEntity
  8
DEFAULT
370
     0
100
AcDbVertex
100
AcDb2dVertex
 10
-107.1900119089664
 20
14.21015760278427
 30
0.0
  0
VERTEX
  5
139
330
12E
100
AcDbEntity
  8
DEFAULT
370
     0
100
AcDbVertex
100
AcDb2dVertex
 10
-107.0721896433708
 20
14.3560573965846
 30
0.0
  0
VERTEX
  5
13A
330
12E
100
AcDbEntity
  8
DEFAULT
370
     0
100
AcDbVertex
100
AcDb2dVertex
 10
-99.74085419598492
 20
10.84653862576059
 30
0.0
  0
VERTEX
  5
13B
330
12E
100
AcDbEntity
  8
DEFAULT
370
     0
100
AcDbVertex
100
AcDb2dVertex
 10
-104.7181558982996
 20
17.30092501737616
 30
0.0
  0
VERTEX
  5
13C
330
12E
100
AcDbEntity
  8
DEFAULT
370
     0
100
AcDbVertex
100
AcDb2dVertex
 10
-104.5736341426934
 20
17.41134032767842
 30
0.0
  0
SEQEND
  5
13D
330
12E
100
AcDbEntity
  8
DEFAULT
370
     0
  0
HATCH
  5
13E
330
12A
100
AcDbEntity
  8
DEFAULT
 62
     7
420
 16777215
100
AcDbHatch
 10
0.0
 20
0.0
 30
0.0
210
0.0
220
0.0
230
1.0
  2
SOLID
 70
     1
 71
     0
 91
        1
 92
        1
 93
       13
 72
     1
 10
-104.5736341426934
 20
17.41134032767842
 11
-99.37601858409697
 21
10.6715277751099
 72
     1
 10
-99.37601858409697
 20
10.6715277751099
 11
-99.49349634014399
 21
10.52648925518088
 72
     1
 10
-99.49349634014399
 20
10.52648925518088
 11
-106.8265543352725
 21
14.0368692998762
 72
     1
 10
-106.8265543352725
 20
14.0368692998762
 11
-101.8582098812195
 21
7.601947697752292
 72
     1
 10
-101.8582098812195
 20
7.601947697752292
 11
-101.9751708729437
 21
7.456564668274748
 72
     1
 10
-101.9751708729437
 20
7.456564668274748
 11
-109.6541164547913
 21
11.12731390780845
 72
     1
 10
-109.6541164547913
 20
11.12731390780845
 11
-109.5798746470842
 21
11.28751084787257
 72
     1
 10
-109.5798746470842
 20
11.28751084787257
 11
-102.2232177478817
 21
7.776958548402983
 72
     1
 10
-102.2232177478817
 20
7.776958548402983
 11
-107.1900119089664
 21
14.21015760278427
 72
     1
 10
-107.1900119089664
 20
14.21015760278427
 11
-107.0721896433708
 21
14.3560573965846
 72
     1
 10
-107.0721896433708
 20
14.3560573965846
 11
-99.74085419598492
 21
10.84653862576059
 72
     1
 10
-99.74085419598492
 20
10.84653862576059
 11
-104.7181558982996
 21
17.30092501737616
 72
     1
 10
-104.7181558982996
 20
17.30092501737616
 11
-104.5736341426934
 21
17.41134032767842
 97
        0
 75
     2
 76
     1
 98
        0
  0
POLYLINE
  5
13F
330
12A
100
AcDbEntity
  8
DEFAULT
370
     0
100
AcDb2dPolyline
 66
     1
 10
0.0
 20
0.0
 30
0.0
  0
VERTEX
  5
140
330
13F
100
AcDbEntity
  8
DEFAULT
370
     0
100
AcDbVertex
100
AcDb2dVertex
 10
-101.5352321794773
 20
19.07377115408573
 30
0.0
  0
VERTEX
  5
141
330
13F
100
AcDbEntity
  8
DEFAULT
370
     0
100
AcDbVertex
100
AcDb2dVertex
 10
-101.6187757449946
 20
18.34547796850391
 30
0.0
  0
VERTEX
  5
142
330
13F
100
AcDbEntity
  8
DEFAULT
370
     0
100
AcDbVertex
100
AcDb2dVertex
 10
-102.3468966758022
 20
18.42902153402122
 30
0.0
  0
VERTEX
  5
143
330
13F
100
AcDbEntity
  8
DEFAULT
370
     0
100
AcDbVertex
100
AcDb2dVertex
 10
-102.2635253650591
 20
19.15731471960303
 30
0.0
  0
VERTEX
  5
144
330
13F
100
AcDbEntity
  8
DEFAULT
370
     0
100
AcDbVertex
100
AcDb2dVertex
 10
-101.5352321794773
 20
19.07377115408573
 30
0.0
  0
SEQEND
  5
145
330
13F
100
AcDbEntity
  8
DEFAULT
370
     0
  0
POLYLINE
  5
146
330
12A
100
AcDbEntity
  8
DEFAULT
370
     0
100
AcDb2dPolyline
 66
     1
 10
0.0
 20
0.0
 30
0.0
  0
VERTEX
  5
147
330
146
100
AcDbEntity
  8
DEFAULT
370
     0
100
AcDbVertex
100
AcDb2dVertex
 10
-101.7298800743939
 20
18.91856960247522
 30
0.0
  0
VERTEX
  5
148
330
146
100
AcDbEntity
  8
DEFAULT
370
     0
100
AcDbVertex
100
AcDb2dVertex
 10
-102.1083238134486
 20
18.96197780558937
 30
0.0
  0
VERTEX
  5
149
330
146
100
AcDbEntity
  8
DEFAULT
370
     0
100
AcDbVertex
100
AcDb2dVertex
 10
-102.1517320165628
 20
18.58336181176041
 30
0.0
  0
VERTEX
  5
14A
330
146
100
AcDbEntity
  8
DEFAULT
370
     0
100
AcDbVertex
100
AcDb2dVertex
 10
-101.7731160227338
 20
18.53995360864626
 30
0.0
  0
VERTEX
  5
14B
330
146
100
AcDbEntity
  8
DEFAULT
370
     0
100
AcDbVertex
100
AcDb2dVertex
 10
-101.7298800743939
 20
18.91856960247522
 30
0.0
  0
SEQEND
  5
14C
330
146
100
AcDbEntity
  8
DEFAULT
370
     0
  0
POLYLINE
  5
14D
330
12A
100
AcDbEntity
  8
DEFAULT
370
     0
100
AcDb2dPolyline
 66
     1
 10
0.0
 20
0.0
 30
0.0
  0
VERTEX
  5
14E
330
14D
100
AcDbEntity
  8
DEFAULT
370
     0
100
AcDbVertex
100
AcDb2dVertex
 10
-96.9556667509347
 20
12.61697319563048
 30
0.0
  0
VERTEX
  5
14F
330
14D
100
AcDbEntity
  8
DEFAULT
370
     0
100
AcDbVertex
100
AcDb2dVertex
 10
-97.09812144924977
 20
12.50380180894002
 30
0.0
  0
VERTEX
  5
150
330
14D
100
AcDbEntity
  8
DEFAULT
370
     0
100
AcDbVertex
100
AcDb2dVertex
 10
-100.5402886033372
 20
16.83721516506153
 30
0.0
  0
VERTEX
  5
151
330
14D
100
AcDbEntity
  8
DEFAULT
370
     0
100
AcDbVertex
100
AcDb2dVertex
 10
-100.3978339050221
 20
16.95038655175199
 30
0.0
  0
VERTEX
  5
152
330
14D
100
AcDbEntity
  8
DEFAULT
370
     0
100
AcDbVertex
100
AcDb2dVertex
 10
-96.9556667509347
 20
12.61697319563048
 30
0.0
  0
SEQEND
  5
153
330
14D
100
AcDbEntity
  8
DEFAULT
370
     0
  0
HATCH
  5
154
330
12A
100
AcDbEntity
  8
DEFAULT
 62
     7
420
 16777215
100
AcDbHatch
 10
0.0
 20
0.0
 30
0.0
210
0.0
220
0.0
230
1.0
  2
SOLID
 70
     1
 71
     0
 91
        3
 92
        1
 93
        4
 72
     1
 10
-101.5352321794773
 20
19.07377115408573
 11
-101.6187757449946
 21
18.34547796850391
 72
     1
 10
-101.6187757449946
 20
18.34547796850391
 11
-102.3468966758022
 21
18.42902153402122
 72
     1
 10
-102.3468966758022
 20
18.42902153402122
 11
-102.2635253650591
 21
19.15731471960303
 72
     1
 10
-102.2635253650591
 20
19.15731471960303
 11
-101.5352321794773
 21
19.07377115408573
 97
        0
 92
        1
 93
        4
 72
     1
 10
-101.7298800743939
 20
18.91856960247522
 11
-102.1083238134486
 21
18.96197780558937
 72
     1
 10
-102.1083238134486
 20
18.96197780558937
 11
-102.1517320165628
 21
18.58336181176041
 72
     1
 10
-102.1517320165628
 20
18.58336181176041
 11
-101.7731160227338
 21
18.53995360864626
 72
     1
 10
-101.7731160227338
 20
18.53995360864626
 11
-101.7298800743939
 21
18.91856960247522
 97
        0
 92
        1
 93
        4
 72
     1
 10
-96.9556667509347
 20
12.61697319563048
 11
-97.09812144924977
 21
12.50380180894002
 72
     1
 10
-97.09812144924977
 20
12.50380180894002
 11
-100.5402886033372
 21
16.83721516506153
 72
     1
 10
-100.5402886033372
 20
16.83721516506153
 11
-100.3978339050221
 21
16.95038655175199
 72
     1
 10
-100.3978339050221
 20
16.95038655175199
 11
-96.9556667509347
 21
12.61697319563048
 97
        0
 75
     2
 76
     1
 98
        0
  0
POLYLINE
  5
155
330
12A
100
AcDbEntity
  8
DEFAULT
370
     0
100
AcDb2dPolyline
 66
     1
 10
0.0
 20
0.0
 30
0.0
  0
VERTEX
  5
156
330
155
100
AcDbEntity
  8
DEFAULT
370
     0
100
AcDbVertex
100
AcDb2dVertex
 10
-94.58630233095413
 20
14.28491617481419
 30
0.0
  0
VERTEX
  5
157
330
155
100
AcDbEntity
  8
DEFAULT
370
     0
100
AcDbVertex
100
AcDb2dVertex
 10
-94.74012584437052
 20
14.1879367369044
 30
0.0
  0
VERTEX
  5
158
330
155
100
AcDbEntity
  8
DEFAULT
370
     0
100
AcDbVertex
100
AcDb2dVertex
 10
-99.16517874039968
 20
21.21162515745751
 30
0.0
  0
VERTEX
  5
159
330
155
100
AcDbEntity
  8
DEFAULT
370
     0
100
AcDbVertex
100
AcDb2dVertex
 10
-99.01135522698328
 20
21.3086045953673
 30
0.0
  0
VERTEX
  5
15A
330
155
100
AcDbEntity
  8
DEFAULT
370
     0
100
AcDbVertex
100
AcDb2dVertex
 10
-94.58630233095413
 20
14.28491617481419
 30
0.0
  0
SEQEND
  5
15B
330
155
100
AcDbEntity
  8
DEFAULT
370
     0
  0
HATCH
  5
15C
330
12A
100
AcDbEntity
  8
DEFAULT
 62
     7
420
 16777215
100
AcDbHatch
 10
0.0
 20
0.0
 30
0.0
210
0.0
220
0.0
230
1.0
  2
SOLID
 70
     1
 71
     0
 91
        1
 92
        1
 93
        4
 72
     1
 10
-94.58630233095413
 20
14.28491617481419
 11
-94.74012584437052
 21
14.1879367369044
 72
     1
 10
-94.74012584437052
 20
14.1879367369044
 11
-99.16517874039968
 21
21.21162515745751
 72
     1
 10
-99.16517874039968
 20
21.21162515745751
 11
-99.01135522698328
 21
21.3086045953673
 72
     1
 10
-99.01135522698328
 20
21.3086045953673
 11
-94.58630233095413
 21
14.28491617481419
 97
        0
 75
     2
 76
     1
 98
        0
  0
POLYLINE
  5
15D
330
12A
100
AcDbEntity
  8
DEFAULT
370
     0
100
AcDb2dPolyline
 66
     1
 10
0.0
 20
0.0
 30
0.0
  0
VERTEX
  5
15E
330
15D
100
AcDbEntity
  8
DEFAULT
370
     0
100
AcDbVertex
100
AcDb2dVertex
 10
-88.16137150573743
 20
17.29437933595418
 30
0.0
  0
VERTEX
  5
15F
330
15D
100
AcDbEntity
  8
DEFAULT
370
     0
100
AcDbVertex
100
AcDb2dVertex
 10
-88.33069794883747
 20
17.2277167383146
 30
0.0
  0
VERTEX
  5
160
330
15D
100
AcDbEntity
  8
DEFAULT
370
     0
100
AcDbVertex
100
AcDb2dVertex
 10
-88.68847111498066
 20
18.13532714390367
 30
0.0
  0
VERTEX
  5
161
330
15D
100
AcDbEntity
  8
DEFAULT
370
     0
100
AcDbVertex
100
AcDb2dVertex
 10
-89.04813908364075
 20
17.288350418855
 30
0.0
  0
VERTEX
  5
162
330
15D
100
AcDbEntity
  8
DEFAULT
370
     0
100
AcDbVertex
100
AcDb2dVertex
 10
-89.66239960866079
 20
16.60777180574389
 30
0.0
  0
VERTEX
  5
163
330
15D
100
AcDbEntity
  8
DEFAULT
370
     0
100
AcDbVertex
100
AcDb2dVertex
 10
-90.80582680021521
 20
16.15680880672469
 30
0.0
  0
VERTEX
  5
164
330
15D
100
AcDbEntity
  8
DEFAULT
370
     0
100
AcDbVertex
100
AcDb2dVertex
 10
-91.72463376613135
 20
16.23311767172297
 30
0.0
  0
VERTEX
  5
165
330
15D
100
AcDbEntity
  8
DEFAULT
370
     0
100
AcDbVertex
100
AcDb2dVertex
 10
-92.77969425848912
 20
16.69992810997432
 30
0.0
  0
VERTEX
  5
166
330
15D
100
AcDbEntity
  8
DEFAULT
370
     0
100
AcDbVertex
100
AcDb2dVertex
 10
-93.60600041062628
 20
17.68350287101315
 30
0.0
  0
VERTEX
  5
167
330
15D
100
AcDbEntity
  8
DEFAULT
370
     0
100
AcDbVertex
100
AcDb2dVertex
 10
-93.90537920829449
 20
18.44245740641369
 30
0.0
  0
VERTEX
  5
168
330
15D
100
AcDbEntity
  8
DEFAULT
370
     0
100
AcDbVertex
100
AcDb2dVertex
 10
-93.97273082503112
 20
19.72523871034647
 30
0.0
  0
VERTEX
  5
169
330
15D
100
AcDbEntity
  8
DEFAULT
370
     0
100
AcDbVertex
100
AcDb2dVertex
 10
-93.5222845903347
 20
20.79166801780556
 30
0.0
  0
VERTEX
  5
16A
330
15D
100
AcDbEntity
  8
DEFAULT
370
     0
100
AcDbVertex
100
AcDb2dVertex
 10
-92.90078936479564
 20
21.4693182997542
 30
0.0
  0
VERTEX
  5
16B
330
15D
100
AcDbEntity
  8
DEFAULT
370
     0
100
AcDbVertex
100
AcDb2dVertex
 10
-91.75718991846696
 20
21.9202812987734
 30
0.0
  0
VERTEX
  5
16C
330
15D
100
AcDbEntity
  8
DEFAULT
370
     0
100
AcDbVertex
100
AcDb2dVertex
 10
-90.84561765306985
 20
21.84724527448611
 30
0.0
  0
VERTEX
  5
16D
330
15D
100
AcDbEntity
  8
DEFAULT
370
     0
100
AcDbVertex
100
AcDb2dVertex
 10
-90.00484209989463
 20
21.47362466911076
 30
0.0
  0
VERTEX
  5
16E
330
15D
100
AcDbEntity
  8
DEFAULT
370
     0
100
AcDbVertex
100
AcDb2dVertex
 10
-91.3758178482498
 20
24.95024277805064
 30
0.0
  0
VERTEX
  5
16F
330
15D
100
AcDbEntity
  8
DEFAULT
370
     0
100
AcDbVertex
100
AcDb2dVertex
 10
-91.20649140514978
 20
25.01707763046448
 30
0.0
  0
VERTEX
  5
170
330
15D
100
AcDbEntity
  8
DEFAULT
370
     0
100
AcDbVertex
100
AcDb2dVertex
 10
-88.16137150573743
 20
17.29437933595418
 30
0.0
  0
SEQEND
  5
171
330
15D
100
AcDbEntity
  8
DEFAULT
370
     0
  0
POLYLINE
  5
172
330
12A
100
AcDbEntity
  8
DEFAULT
370
     0
100
AcDb2dPolyline
 66
     1
 10
0.0
 20
0.0
 30
0.0
  0
VERTEX
  5
173
330
172
100
AcDbEntity
  8
DEFAULT
370
     0
100
AcDbVertex
100
AcDb2dVertex
 10
-88.78079967398536
 20
18.3694213821264
 30
0.0
  0
VERTEX
  5
174
330
172
100
AcDbEntity
  8
DEFAULT
370
     0
100
AcDbVertex
100
AcDb2dVertex
 10
-89.91251354088993
 20
21.23953043088803
 30
0.0
  0
VERTEX
  5
175
330
172
100
AcDbEntity
  8
DEFAULT
370
     0
100
AcDbVertex
100
AcDb2dVertex
 10
-90.87748478630841
 20
21.6507025770526
 30
0.0
  0
VERTEX
  5
176
330
172
100
AcDbEntity
  8
DEFAULT
370
     0
100
AcDbVertex
100
AcDb2dVertex
 10
-91.72962915458496
 20
21.73562418076401
 30
0.0
  0
VERTEX
  5
177
330
172
100
AcDbEntity
  8
DEFAULT
370
     0
100
AcDbVertex
100
AcDb2dVertex
 10
-92.79175209268749
 20
21.31670056975763
 30
0.0
  0
VERTEX
  5
178
330
172
100
AcDbEntity
  8
DEFAULT
370
     0
100
AcDbVertex
100
AcDb2dVertex
 10
-93.35433618542878
 20
20.68349201956871
 30
0.0
  0
VERTEX
  5
179
330
172
100
AcDbEntity
  8
DEFAULT
370
     0
100
AcDbVertex
100
AcDb2dVertex
 10
-93.7978922291547
 20
19.70336235401513
 30
0.0
  0
VERTEX
  5
17A
330
172
100
AcDbEntity
  8
DEFAULT
370
     0
100
AcDbVertex
100
AcDb2dVertex
 10
-93.73277992448348
 20
18.50050726534015
 30
0.0
  0
VERTEX
  5
17B
330
172
100
AcDbEntity
  8
DEFAULT
370
     0
100
AcDbVertex
100
AcDb2dVertex
 10
-93.4538994449525
 20
17.79357367176689
 30
0.0
  0
VERTEX
  5
17C
330
172
100
AcDbEntity
  8
DEFAULT
370
     0
100
AcDbVertex
100
AcDb2dVertex
 10
-92.65980493560241
 20
16.83979898667547
 30
0.0
  0
VERTEX
  5
17D
330
172
100
AcDbEntity
  8
DEFAULT
370
     0
100
AcDbVertex
100
AcDb2dVertex
 10
-91.66089949965422
 20
16.41570773244121
 30
0.0
  0
VERTEX
  5
17E
330
172
100
AcDbEntity
  8
DEFAULT
370
     0
100
AcDbVertex
100
AcDb2dVertex
 10
-90.83321530932295
 20
16.34163817950834
 30
0.0
  0
VERTEX
  5
17F
330
172
100
AcDbEntity
  8
DEFAULT
370
     0
100
AcDbVertex
100
AcDb2dVertex
 10
-89.78022187425634
 20
16.75677218548095
 30
0.0
  0
VERTEX
  5
180
330
172
100
AcDbEntity
  8
DEFAULT
370
     0
100
AcDbVertex
100
AcDb2dVertex
 10
-89.2197048388062
 20
17.37757839192297
 30
0.0
  0
VERTEX
  5
181
330
172
100
AcDbEntity
  8
DEFAULT
370
     0
100
AcDbVertex
100
AcDb2dVertex
 10
-88.78079967398536
 20
18.3694213821264
 30
0.0
  0
SEQEND
  5
182
330
172
100
AcDbEntity
  8
DEFAULT
370
     0
  0
HATCH
  5
183
330
12A
100
AcDbEntity
  8
DEFAULT
 62
     7
420
 16777215
100
AcDbHatch
 10
0.0
 20
0.0
 30
0.0
210
0.0
220
0.0
230
1.0
  2
SOLID
 70
     1
 71
     0
 91
        2
 92
        1
 93
       18
 72
     1
 10
-88.16137150573743
 20
17.29437933595418
 11
-88.33069794883747
 21
17.2277167383146
 72
     1
 10
-88.33069794883747
 20
17.2277167383146
 11
-88.68847111498066
 21
18.13532714390367
 72
     1
 10
-88.68847111498066
 20
18.13532714390367
 11
-89.04813908364075
 21
17.288350418855
 72
     1
 10
-89.04813908364075
 20
17.288350418855
 11
-89.66239960866079
 21
16.60777180574389
 72
     1
 10
-89.66239960866079
 20
16.60777180574389
 11
-90.80582680021521
 21
16.15680880672469
 72
     1
 10
-90.80582680021521
 20
16.15680880672469
 11
-91.72463376613135
 21
16.23311767172297
 72
     1
 10
-91.72463376613135
 20
16.23311767172297
 11
-92.77969425848912
 21
16.69992810997432
 72
     1
 10
-92.77969425848912
 20
16.69992810997432
 11
-93.60600041062628
 21
17.68350287101315
 72
     1
 10
-93.60600041062628
 20
17.68350287101315
 11
-93.90537920829449
 21
18.44245740641369
 72
     1
 10
-93.90537920829449
 20
18.44245740641369
 11
-93.97273082503112
 21
19.72523871034647
 72
     1
 10
-93.97273082503112
 20
19.72523871034647
 11
-93.5222845903347
 21
20.79166801780556
 72
     1
 10
-93.5222845903347
 20
20.79166801780556
 11
-92.90078936479564
 21
21.4693182997542
 72
     1
 10
-92.90078936479564
 20
21.4693182997542
 11
-91.75718991846696
 21
21.9202812987734
 72
     1
 10
-91.75718991846696
 20
21.9202812987734
 11
-90.84561765306985
 21
21.84724527448611
 72
     1
 10
-90.84561765306985
 20
21.84724527448611
 11
-90.00484209989463
 21
21.47362466911076
 72
     1
 10
-90.00484209989463
 20
21.47362466911076
 11
-91.3758178482498
 21
24.95024277805064
 72
     1
 10
-91.3758178482498
 20
24.95024277805064
 11
-91.20649140514978
 21
25.01707763046448
 72
     1
 10
-91.20649140514978
 20
25.01707763046448
 11
-88.16137150573743
 21
17.29437933595418
 97
        0
 92
        1
 93
       14
 72
     1
 10
-88.78079967398536
 20
18.3694213821264
 11
-89.91251354088993
 21
21.23953043088803
 72
     1
 10
-89.91251354088993
 20
21.23953043088803
 11
-90.87748478630841
 21
21.6507025770526
 72
     1
 10
-90.87748478630841
 20
21.6507025770526
 11
-91.72962915458496
 21
21.73562418076401
 72
     1
 10
-91.72962915458496
 20
21.73562418076401
 11
-92.79175209268749
 21
21.31670056975763
 72
     1
 10
-92.79175209268749
 20
21.31670056975763
 11
-93.35433618542878
 21
20.68349201956871
 72
     1
 10
-93.35433618542878
 20
20.68349201956871
 11
-93.7978922291547
 21
19.70336235401513
 72
     1
 10
-93.7978922291547
 20
19.70336235401513
 11
-93.73277992448348
 21
18.50050726534015
 72
     1
 10
-93.73277992448348
 20
18.50050726534015
 11
-93.4538994449525
 21
17.79357367176689
 72
     1
 10
-93.4538994449525
 20
17.79357367176689
 11
-92.65980493560241
 21
16.83979898667547
 72
     1
 10
-92.65980493560241
 20
16.83979898667547
 11
-91.66089949965422
 21
16.41570773244121
 72
     1
 10
-91.66089949965422
 20
16.41570773244121
 11
-90.83321530932295
 21
16.34163817950834
 72
     1
 10
-90.83321530932295
 20
16.34163817950834
 11
-89.78022187425634
 21
16.75677218548095
 72
     1
 10
-89.78022187425634
 20
16.75677218548095
 11
-89.2197048388062
 21
17.37757839192297
 72
     1
 10
-89.2197048388062
 20
17.37757839192297
 11
-88.78079967398536
 21
18.3694213821264
 97
        0
 75
     2
 76
     1
 98
        0
  0
POLYLINE
  5
184
330
12A
100
AcDbEntity
  8
DEFAULT
370
     0
100
AcDb2dPolyline
 66
     1
 10
0.0
 20
0.0
 30
0.0
  0
VERTEX
  5
185
330
184
100
AcDbEntity
  8
DEFAULT
370
     0
100
AcDbVertex
100
AcDb2dVertex
 10
-81.65306936977771
 20
21.45260958665074
 30
0.0
  0
VERTEX
  5
186
330
184
100
AcDbEntity
  8
DEFAULT
370
     0
100
AcDbVertex
100
AcDb2dVertex
 10
-86.36010333127456
 20
20.89002549390944
 30
0.0
  0
VERTEX
  5
187
330
184
100
AcDbEntity
  8
DEFAULT
370
     0
100
AcDbVertex
100
AcDb2dVertex
 10
-86.28121064466234
 20
20.23011745370983
 30
0.0
  0
VERTEX
  5
188
330
184
100
AcDbEntity
  8
DEFAULT
370
     0
100
AcDbVertex
100
AcDb2dVertex
 10
-85.7551445640647
 20
19.10615505164707
 30
0.0
  0
VERTEX
  5
189
330
184
100
AcDbEntity
  8
DEFAULT
370
     0
100
AcDbVertex
100
AcDb2dVertex
 10
-84.89662676914043
 20
18.44245740641369
 30
0.0
  0
VERTEX
  5
18A
330
184
100
AcDbEntity
  8
DEFAULT
370
     0
100
AcDbVertex
100
AcDb2dVertex
 10
-84.11476234876298
 20
18.16064859572025
 30
0.0
  0
VERTEX
  5
18B
330
184
100
AcDbEntity
  8
DEFAULT
370
     0
100
AcDbVertex
100
AcDb2dVertex
 10
-82.98115367934152
 20
18.29604084829057
 30
0.0
  0
VERTEX
  5
18C
330
184
100
AcDbEntity
  8
DEFAULT
370
     0
100
AcDbVertex
100
AcDb2dVertex
 10
-82.27611488828514
 20
18.76336805086471
 30
0.0
  0
VERTEX
  5
18D
330
184
100
AcDbEntity
  8
DEFAULT
370
     0
100
AcDbVertex
100
AcDb2dVertex
 10
-81.59674205859388
 20
19.63291015134177
 30
0.0
  0
VERTEX
  5
18E
330
184
100
AcDbEntity
  8
DEFAULT
370
     0
100
AcDbVertex
100
AcDb2dVertex
 10
-81.44343530950026
 20
19.51250406413229
 30
0.0
  0
VERTEX
  5
18F
330
184
100
AcDbEntity
  8
DEFAULT
370
     0
100
AcDbVertex
100
AcDb2dVertex
 10
-82.14761282668532
 20
18.62332491938931
 30
0.0
  0
VERTEX
  5
190
330
184
100
AcDbEntity
  8
DEFAULT
370
     0
100
AcDbVertex
100
AcDb2dVertex
 10
-82.91483559125047
 20
18.12085774286562
 30
0.0
  0
VERTEX
  5
191
330
184
100
AcDbEntity
  8
DEFAULT
370
     0
100
AcDbVertex
100
AcDb2dVertex
 10
-84.13526066690022
 20
17.97495794906529
 30
0.0
  0
VERTEX
  5
192
330
184
100
AcDbEntity
  8
DEFAULT
370
     0
100
AcDbVertex
100
AcDb2dVertex
 10
-85.00463051260301
 20
18.28191595680105
 30
0.0
  0
VERTEX
  5
193
330
184
100
AcDbEntity
  8
DEFAULT
370
     0
100
AcDbVertex
100
AcDb2dVertex
 10
-85.90672876541568
 20
19.00125189412121
 30
0.0
  0
VERTEX
  5
194
330
184
100
AcDbEntity
  8
DEFAULT
370
     0
100
AcDbVertex
100
AcDb2dVertex
 10
-86.45622149531303
 20
20.16242132742467
 30
0.0
  0
VERTEX
  5
195
330
184
100
AcDbEntity
  8
DEFAULT
370
     0
100
AcDbVertex
100
AcDb2dVertex
 10
-86.55302867844856
 20
20.97236327600691
 30
0.0
  0
VERTEX
  5
196
330
184
100
AcDbEntity
  8
DEFAULT
370
     0
100
AcDbVertex
100
AcDb2dVertex
 10
-86.29257945976366
 20
22.23033989244589
 30
0.0
  0
VERTEX
  5
197
330
184
100
AcDbEntity
  8
DEFAULT
370
     0
100
AcDbVertex
100
AcDb2dVertex
 10
-85.58616263051319
 20
23.14759656539366
 30
0.0
  0
VERTEX
  5
198
330
184
100
AcDbEntity
  8
DEFAULT
370
     0
100
AcDbVertex
100
AcDb2dVertex
 10
-84.81291094884885
 20
23.645240608238
 30
0.0
  0
VERTEX
  5
199
330
184
100
AcDbEntity
  8
DEFAULT
370
     0
100
AcDbVertex
100
AcDb2dVertex
 10
-83.59248587319911
 20
23.79114040203833
 30
0.0
  0
VERTEX
  5
19A
330
184
100
AcDbEntity
  8
DEFAULT
370
     0
100
AcDbVertex
100
AcDb2dVertex
 10
-82.72931719936976
 20
23.48917778275618
 30
0.0
  0
VERTEX
  5
19B
330
184
100
AcDbEntity
  8
DEFAULT
370
     0
100
AcDbVertex
100
AcDb2dVertex
 10
-82.26354028976398
 20
23.12279187789986
 30
0.0
  0
VERTEX
  5
19C
330
184
100
AcDbEntity
  8
DEFAULT
370
     0
100
AcDbVertex
100
AcDb2dVertex
 10
-81.76038409414325
 20
22.35022921533258
 30
0.0
  0
VERTEX
  5
19D
330
184
100
AcDbEntity
  8
DEFAULT
370
     0
100
AcDbVertex
100
AcDb2dVertex
 10
-81.65306936977771
 20
21.45260958665074
 30
0.0
  0
SEQEND
  5
19E
330
184
100
AcDbEntity
  8
DEFAULT
370
     0
  0
POLYLINE
  5
19F
330
12A
100
AcDbEntity
  8
DEFAULT
370
     0
100
AcDb2dPolyline
 66
     1
 10
0.0
 20
0.0
 30
0.0
  0
VERTEX
  5
1A0
330
19F
100
AcDbEntity
  8
DEFAULT
370
     0
100
AcDbVertex
100
AcDb2dVertex
 10
-81.85529647476187
 20
21.61160074329502
 30
0.0
  0
VERTEX
  5
1A1
330
19F
100
AcDbEntity
  8
DEFAULT
370
     0
100
AcDbVertex
100
AcDb2dVertex
 10
-81.93539494479393
 20
22.2821885794989
 30
0.0
  0
VERTEX
  5
1A2
330
19F
100
AcDbEntity
  8
DEFAULT
370
     0
100
AcDbVertex
100
AcDb2dVertex
 10
-82.39944930665709
 20
22.98412678461855
 30
0.0
  0
VERTEX
  5
1A3
330
19F
100
AcDbEntity
  8
DEFAULT
370
     0
100
AcDbVertex
100
AcDb2dVertex
 10
-82.81010468849887
 20
23.30710448636072
 30
0.0
  0
VERTEX
  5
1A4
330
19F
100
AcDbEntity
  8
DEFAULT
370
     0
100
AcDbVertex
100
AcDb2dVertex
 10
-83.61263968178781
 20
23.60544975538336
 30
0.0
  0
VERTEX
  5
1A5
330
19F
100
AcDbEntity
  8
DEFAULT
370
     0
100
AcDbVertex
100
AcDb2dVertex
 10
-84.76226804521569
 20
23.46799044552189
 30
0.0
  0
VERTEX
  5
1A6
330
19F
100
AcDbEntity
  8
DEFAULT
370
     0
100
AcDbVertex
100
AcDb2dVertex
 10
-85.44939233974877
 20
23.00617539572415
 30
0.0
  0
VERTEX
  5
1A7
330
19F
100
AcDbEntity
  8
DEFAULT
370
     0
100
AcDbVertex
100
AcDb2dVertex
 10
-86.12807615034299
 20
22.16316053048352
 30
0.0
  0
VERTEX
  5
1A8
330
19F
100
AcDbEntity
  8
DEFAULT
370
     0
100
AcDbVertex
100
AcDb2dVertex
 10
-86.34873451617324
 20
21.07451035714457
 30
0.0
  0
VERTEX
  5
1A9
330
19F
100
AcDbEntity
  8
DEFAULT
370
     0
100
AcDbVertex
100
AcDb2dVertex
 10
-81.85529647476187
 20
21.61160074329502
 30
0.0
  0
SEQEND
  5
1AA
330
19F
100
AcDbEntity
  8
DEFAULT
370
     0
  0
HATCH
  5
1AB
330
12A
100
AcDbEntity
  8
DEFAULT
 62
     7
420
 16777215
100
AcDbHatch
 10
0.0
 20
0.0
 30
0.0
210
0.0
220
0.0
230
1.0
  2
SOLID
 70
     1
 71
     0
 91
        2
 92
        1
 93
       24
 72
     1
 10
-81.65306936977771
 20
21.45260958665074
 11
-86.36010333127456
 21
20.89002549390944
 72
     1
 10
-86.36010333127456
 20
20.89002549390944
 11
-86.28121064466234
 21
20.23011745370983
 72
     1
 10
-86.28121064466234
 20
20.23011745370983
 11
-85.7551445640647
 21
19.10615505164707
 72
     1
 10
-85.7551445640647
 20
19.10615505164707
 11
-84.89662676914043
 21
18.44245740641369
 72
     1
 10
-84.89662676914043
 20
18.44245740641369
 11
-84.11476234876298
 21
18.16064859572025
 72
     1
 10
-84.11476234876298
 20
18.16064859572025
 11
-82.98115367934152
 21
18.29604084829057
 72
     1
 10
-82.98115367934152
 20
18.29604084829057
 11
-82.27611488828514
 21
18.76336805086471
 72
     1
 10
-82.27611488828514
 20
18.76336805086471
 11
-81.59674205859388
 21
19.63291015134177
 72
     1
 10
-81.59674205859388
 20
19.63291015134177
 11
-81.44343530950026
 21
19.51250406413229
 72
     1
 10
-81.44343530950026
 20
19.51250406413229
 11
-82.14761282668532
 21
18.62332491938931
 72
     1
 10
-82.14761282668532
 20
18.62332491938931
 11
-82.91483559125047
 21
18.12085774286562
 72
     1
 10
-82.91483559125047
 20
18.12085774286562
 11
-84.13526066690022
 21
17.97495794906529
 72
     1
 10
-84.13526066690022
 20
17.97495794906529
 11
-85.00463051260301
 21
18.28191595680105
 72
     1
 10
-85.00463051260301
 20
18.28191595680105
 11
-85.90672876541568
 21
19.00125189412121
 72
     1
 10
-85.90672876541568
 20
19.00125189412121
 11
-86.45622149531303
 21
20.16242132742467
 72
     1
 10
-86.45622149531303
 20
20.16242132742467
 11
-86.55302867844856
 21
20.97236327600691
 72
     1
 10
-86.55302867844856
 20
20.97236327600691
 11
-86.29257945976366
 21
22.23033989244589
 72
     1
 10
-86.29257945976366
 20
22.23033989244589
 11
-85.58616263051319
 21
23.14759656539366
 72
     1
 10
-85.58616263051319
 20
23.14759656539366
 11
-84.81291094884885
 21
23.645240608238
 72
     1
 10
-84.81291094884885
 20
23.645240608238
 11
-83.59248587319911
 21
23.79114040203833
 72
     1
 10
-83.59248587319911
 20
23.79114040203833
 11
-82.72931719936976
 21
23.48917778275618
 72
     1
 10
-82.72931719936976
 20
23.48917778275618
 11
-82.26354028976398
 21
23.12279187789986
 72
     1
 10
-82.26354028976398
 20
23.12279187789986
 11
-81.76038409414325
 21
22.35022921533258
 72
     1
 10
-81.76038409414325
 20
22.35022921533258
 11
-81.65306936977771
 21
21.45260958665074
 97
        0
 92
        1
 93
        9
 72
     1
 10
-81.85529647476187
 20
21.61160074329502
 11
-81.93539494479393
 21
22.2821885794989
 72
     1
 10
-81.93539494479393
 20
22.2821885794989
 11
-82.39944930665709
 21
22.98412678461855
 72
     1
 10
-82.39944930665709
 20
22.98412678461855
 11
-82.81010468849887
 21
23.30710448636072
 72
     1
 10
-82.81010468849887
 20
23.30710448636072
 11
-83.61263968178781
 21
23.60544975538336
 72
     1
 10
-83.61263968178781
 20
23.60544975538336
 11
-84.76226804521569
 21
23.46799044552189
 72
     1
 10
-84.76226804521569
 20
23.46799044552189
 11
-85.44939233974877
 21
23.00617539572415
 72
     1
 10
-85.44939233974877
 20
23.00617539572415
 11
-86.12807615034299
 21
22.16316053048352
 72
     1
 10
-86.12807615034299
 20
22.16316053048352
 11
-86.34873451617324
 21
21.07451035714457
 72
     1
 10
-86.34873451617324
 20
21.07451035714457
 11
-81.85529647476187
 21
21.61160074329502
 97
        0
 75
     2
 76
     1
 98
        0
  0
POLYLINE
  5
1AC
330
12A
100
AcDbEntity
  8
DEFAULT
370
     0
100
AcDb2dPolyline
 66
     1
 10
0.0
 20
0.0
 30
0.0
  0
VERTEX
  5
1AD
330
1AC
100
AcDbEntity
  8
DEFAULT
370
     0
100
AcDbVertex
100
AcDb2dVertex
 10
-75.40693900024549
 20
23.40218912175362
 30
0.0
  0
VERTEX
  5
1AE
330
1AC
100
AcDbEntity
  8
DEFAULT
370
     0
100
AcDbVertex
100
AcDb2dVertex
 10
-76.57241480290551
 20
23.51036511999046
 30
0.0
  0
VERTEX
  5
1AF
330
1AC
100
AcDbEntity
  8
DEFAULT
370
     0
100
AcDbVertex
100
AcDb2dVertex
 10
-77.35307343986312
 20
23.20220132883487
 30
0.0
  0
VERTEX
  5
1B0
330
1AC
100
AcDbEntity
  8
DEFAULT
370
     0
100
AcDbVertex
100
AcDb2dVertex
 10
-78.18644203774505
 20
22.52231173482081
 30
0.0
  0
VERTEX
  5
1B1
330
1AC
100
AcDbEntity
  8
DEFAULT
370
     0
100
AcDbVertex
100
AcDb2dVertex
 10
-78.67788490871595
 20
21.38232963875164
 30
0.0
  0
VERTEX
  5
1B2
330
1AC
100
AcDbEntity
  8
DEFAULT
370
     0
100
AcDbVertex
100
AcDb2dVertex
 10
-78.96675616515415
 20
18.26865233918284
 30
0.0
  0
VERTEX
  5
1B3
330
1AC
100
AcDbEntity
  8
DEFAULT
370
     0
100
AcDbVertex
100
AcDb2dVertex
 10
-79.14796818767829
 20
18.28553330706056
 30
0.0
  0
VERTEX
  5
1B4
330
1AC
100
AcDbEntity
  8
DEFAULT
370
     0
100
AcDbVertex
100
AcDb2dVertex
 10
-78.63654376289296
 20
23.79596353571768
 30
0.0
  0
VERTEX
  5
1B5
330
1AC
100
AcDbEntity
  8
DEFAULT
370
     0
100
AcDbVertex
100
AcDb2dVertex
 10
-78.45550399514308
 20
23.77925482261422
 30
0.0
  0
VERTEX
  5
1B6
330
1AC
100
AcDbEntity
  8
DEFAULT
370
     0
100
AcDbVertex
100
AcDb2dVertex
 10
-78.623452400049
 20
21.96799587124411
 30
0.0
  0
VERTEX
  5
1B7
330
1AC
100
AcDbEntity
  8
DEFAULT
370
     0
100
AcDbVertex
100
AcDb2dVertex
 10
-78.34129907980704
 20
22.62273626821585
 30
0.0
  0
VERTEX
  5
1B8
330
1AC
100
AcDbEntity
  8
DEFAULT
370
     0
100
AcDbVertex
100
AcDb2dVertex
 10
-77.45298120893537
 20
23.37049424328932
 30
0.0
  0
VERTEX
  5
1B9
330
1AC
100
AcDbEntity
  8
DEFAULT
370
     0
100
AcDbVertex
100
AcDb2dVertex
 10
-76.59756399994784
 20
23.69536674754838
 30
0.0
  0
VERTEX
  5
1BA
330
1AC
100
AcDbEntity
  8
DEFAULT
370
     0
100
AcDbVertex
100
AcDb2dVertex
 10
-75.39023028714203
 20
23.58340114427776
 30
0.0
  0
VERTEX
  5
1BB
330
1AC
100
AcDbEntity
  8
DEFAULT
370
     0
100
AcDbVertex
100
AcDb2dVertex
 10
-75.40693900024549
 20
23.40218912175362
 30
0.0
  0
SEQEND
  5
1BC
330
1AC
100
AcDbEntity
  8
DEFAULT
370
     0
  0
HATCH
  5
1BD
330
12A
100
AcDbEntity
  8
DEFAULT
 62
     7
420
 16777215
100
AcDbHatch
 10
0.0
 20
0.0
 30
0.0
210
0.0
220
0.0
230
1.0
  2
SOLID
 70
     1
 71
     0
 91
        1
 92
        1
 93
       14
 72
     1
 10
-75.40693900024549
 20
23.40218912175362
 11
-76.57241480290551
 21
23.51036511999046
 72
     1
 10
-76.57241480290551
 20
23.51036511999046
 11
-77.35307343986312
 21
23.20220132883487
 72
     1
 10
-77.35307343986312
 20
23.20220132883487
 11
-78.18644203774505
 21
22.52231173482081
 72
     1
 10
-78.18644203774505
 20
22.52231173482081
 11
-78.67788490871595
 21
21.38232963875164
 72
     1
 10
-78.67788490871595
 20
21.38232963875164
 11
-78.96675616515415
 21
18.26865233918284
 72
     1
 10
-78.96675616515415
 20
18.26865233918284
 11
-79.14796818767829
 21
18.28553330706056
 72
     1
 10
-79.14796818767829
 20
18.28553330706056
 11
-78.63654376289296
 21
23.79596353571768
 72
     1
 10
-78.63654376289296
 20
23.79596353571768
 11
-78.45550399514308
 21
23.77925482261422
 72
     1
 10
-78.45550399514308
 20
23.77925482261422
 11
-78.623452400049
 21
21.96799587124411
 72
     1
 10
-78.623452400049
 20
21.96799587124411
 11
-78.34129907980704
 21
22.62273626821585
 72
     1
 10
-78.34129907980704
 20
22.62273626821585
 11
-77.45298120893537
 21
23.37049424328932
 72
     1
 10
-77.45298120893537
 20
23.37049424328932
 11
-76.59756399994784
 21
23.69536674754838
 72
     1
 10
-76.59756399994784
 20
23.69536674754838
 11
-75.39023028714203
 21
23.58340114427776
 72
     1
 10
-75.39023028714203
 20
23.58340114427776
 11
-75.40693900024549
 21
23.40218912175362
 97
        0
 75
     2
 76
     1
 98
        0
  0
POLYLINE
  5
1BE
330
12A
100
AcDbEntity
  8
DEFAULT
370
     0
100
AcDb2dPolyline
 66
     1
 10
0.0
 20
0.0
 30
0.0
  0
VERTEX
  5
1BF
330
1BE
100
AcDbEntity
  8
DEFAULT
370
     0
100
AcDbVertex
100
AcDb2dVertex
 10
-70.21173500848873
 20
16.31166584878667
 30
0.0
  0
VERTEX
  5
1C0
330
1BE
100
AcDbEntity
  8
DEFAULT
370
     0
100
AcDbVertex
100
AcDb2dVertex
 10
-70.38467880184828
 20
16.36782090519624
 30
0.0
  0
VERTEX
  5
1C1
330
1BE
100
AcDbEntity
  8
DEFAULT
370
     0
100
AcDbVertex
100
AcDb2dVertex
 10
-69.16442598097278
 20
20.12642007960381
 30
0.0
  0
VERTEX
  5
1C2
330
1BE
100
AcDbEntity
  8
DEFAULT
370
     0
100
AcDbVertex
100
AcDb2dVertex
 10
-69.17837861768805
 20
21.30481499033352
 30
0.0
  0
VERTEX
  5
1C3
330
1BE
100
AcDbEntity
  8
DEFAULT
370
     0
100
AcDbVertex
100
AcDb2dVertex
 10
-69.76180553811511
 20
21.88565808914664
 30
0.0
  0
VERTEX
  5
1C4
330
1BE
100
AcDbEntity
  8
DEFAULT
370
     0
100
AcDbVertex
100
AcDb2dVertex
 10
-70.85596786423045
 20
22.2408474336759
 30
0.0
  0
VERTEX
  5
1C5
330
1BE
100
AcDbEntity
  8
DEFAULT
370
     0
100
AcDbVertex
100
AcDb2dVertex
 10
-71.68554685707862
 20
22.11165635297903
 30
0.0
  0
VERTEX
  5
1C6
330
1BE
100
AcDbEntity
  8
DEFAULT
370
     0
100
AcDbVertex
100
AcDb2dVertex
 10
-73.13886038753127
 20
21.3797458171377
 30
0.0
  0
VERTEX
  5
1C7
330
1BE
100
AcDbEntity
  8
DEFAULT
370
     0
100
AcDbVertex
100
AcDb2dVertex
 10
-74.34826115762822
 20
17.65456406893706
 30
0.0
  0
VERTEX
  5
1C8
330
1BE
100
AcDbEntity
  8
DEFAULT
370
     0
100
AcDbVertex
100
AcDb2dVertex
 10
-74.52120495098775
 20
17.71071912534663
 30
0.0
  0
VERTEX
  5
1C9
330
1BE
100
AcDbEntity
  8
DEFAULT
370
     0
100
AcDbVertex
100
AcDb2dVertex
 10
-72.81226533552957
 20
22.97448051725985
 30
0.0
  0
VERTEX
  5
1CA
330
1BE
100
AcDbEntity
  8
DEFAULT
370
     0
100
AcDbVertex
100
AcDb2dVertex
 10
-72.63914928739577
 20
22.91832546085028
 30
0.0
  0
VERTEX
  5
1CB
330
1BE
100
AcDbEntity
  8
DEFAULT
370
     0
100
AcDbVertex
100
AcDb2dVertex
 10
-73.06134573911314
 20
21.61814642471699
 30
0.0
  0
VERTEX
  5
1CC
330
1BE
100
AcDbEntity
  8
DEFAULT
370
     0
100
AcDbVertex
100
AcDb2dVertex
 10
-71.7453192637477
 20
22.29786376395678
 30
0.0
  0
VERTEX
  5
1CD
330
1BE
100
AcDbEntity
  8
DEFAULT
370
     0
100
AcDbVertex
100
AcDb2dVertex
 10
-70.83977591544978
 20
22.42688258987939
 30
0.0
  0
VERTEX
  5
1CE
330
1BE
100
AcDbEntity
  8
DEFAULT
370
     0
100
AcDbVertex
100
AcDb2dVertex
 10
-69.66551511930237
 20
22.0456827744365
 30
0.0
  0
VERTEX
  5
1CF
330
1BE
100
AcDbEntity
  8
DEFAULT
370
     0
100
AcDbVertex
100
AcDb2dVertex
 10
-68.99113767806472
 20
21.39197590611034
 30
0.0
  0
VERTEX
  5
1D0
330
1BE
100
AcDbEntity
  8
DEFAULT
370
     0
100
AcDbVertex
100
AcDb2dVertex
 10
-68.98786483735373
 20
20.08111707397278
 30
0.0
  0
VERTEX
  5
1D1
330
1BE
100
AcDbEntity
  8
DEFAULT
370
     0
100
AcDbVertex
100
AcDb2dVertex
 10
-70.21173500848873
 20
16.31166584878667
 30
0.0
  0
SEQEND
  5
1D2
330
1BE
100
AcDbEntity
  8
DEFAULT
370
     0
  0
HATCH
  5
1D3
330
12A
100
AcDbEntity
  8
DEFAULT
 62
     7
420
 16777215
100
AcDbHatch
 10
0.0
 20
0.0
 30
0.0
210
0.0
220
0.0
230
1.0
  2
SOLID
 70
     1
 71
     0
 91
        1
 92
        1
 93
       18
 72
     1
 10
-70.21173500848873
 20
16.31166584878667
 11
-70.38467880184828
 21
16.36782090519624
 72
     1
 10
-70.38467880184828
 20
16.36782090519624
 11
-69.16442598097278
 21
20.12642007960381
 72
     1
 10
-69.16442598097278
 20
20.12642007960381
 11
-69.17837861768805
 21
21.30481499033352
 72
     1
 10
-69.17837861768805
 20
21.30481499033352
 11
-69.76180553811511
 21
21.88565808914664
 72
     1
 10
-69.76180553811511
 20
21.88565808914664
 11
-70.85596786423045
 21
22.2408474336759
 72
     1
 10
-70.85596786423045
 20
22.2408474336759
 11
-71.68554685707862
 21
22.11165635297903
 72
     1
 10
-71.68554685707862
 20
22.11165635297903
 11
-73.13886038753127
 21
21.3797458171377
 72
     1
 10
-73.13886038753127
 20
21.3797458171377
 11
-74.34826115762822
 21
17.65456406893706
 72
     1
 10
-74.34826115762822
 20
17.65456406893706
 11
-74.52120495098775
 21
17.71071912534663
 72
     1
 10
-74.52120495098775
 20
17.71071912534663
 11
-72.81226533552957
 21
22.97448051725985
 72
     1
 10
-72.81226533552957
 20
22.97448051725985
 11
-72.63914928739577
 21
22.91832546085028
 72
     1
 10
-72.63914928739577
 20
22.91832546085028
 11
-73.06134573911314
 21
21.61814642471699
 72
     1
 10
-73.06134573911314
 20
21.61814642471699
 11
-71.7453192637477
 21
22.29786376395678
 72
     1
 10
-71.7453192637477
 20
22.29786376395678
 11
-70.83977591544978
 21
22.42688258987939
 72
     1
 10
-70.83977591544978
 20
22.42688258987939
 11
-69.66551511930237
 21
22.0456827744365
 72
     1
 10
-69.66551511930237
 20
22.0456827744365
 11
-68.99113767806472
 21
21.39197590611034
 72
     1
 10
-68.99113767806472
 20
21.39197590611034
 11
-68.98786483735373
 21
20.08111707397278
 72
     1
 10
-68.98786483735373
 20
20.08111707397278
 11
-70.21173500848873
 21
16.31166584878667
 97
        0
 75
     2
 76
     1
 98
        0
  0
POLYLINE
  5
1D4
330
12A
100
AcDbEntity
  8
DEFAULT
370
     0
100
AcDb2dPolyline
 66
     1
 10
0.0
 20
0.0
 30
0.0
  0
VERTEX
  5
1D5
330
1D4
100
AcDbEntity
  8
DEFAULT
370
     0
100
AcDbVertex
100
AcDb2dVertex
 10
-62.53347844573816
 20
15.37528889589576
 30
0.0
  0
VERTEX
  5
1D6
330
1D4
100
AcDbEntity
  8
DEFAULT
370
     0
100
AcDbVertex
100
AcDb2dVertex
 10
-66.52324352720599
 20
17.93533935098491
 30
0.0
  0
VERTEX
  5
1D7
330
1D4
100
AcDbEntity
  8
DEFAULT
370
     0
100
AcDbVertex
100
AcDb2dVertex
 10
-66.88205022199477
 20
17.37602809895461
 30
0.0
  0
VERTEX
  5
1D8
330
1D4
100
AcDbEntity
  8
DEFAULT
370
     0
100
AcDbVertex
100
AcDb2dVertex
 10
-67.19124754179595
 20
16.1742065389252
 30
0.0
  0
VERTEX
  5
1D9
330
1D4
100
AcDbEntity
  8
DEFAULT
370
     0
100
AcDbVertex
100
AcDb2dVertex
 10
-66.95095213169976
 20
15.11587320585645
 30
0.0
  0
VERTEX
  5
1DA
330
1D4
100
AcDbEntity
  8
DEFAULT
370
     0
100
AcDbVertex
100
AcDb2dVertex
 10
-66.52686087746551
 20
14.40118814744137
 30
0.0
  0
VERTEX
  5
1DB
330
1D4
100
AcDbEntity
  8
DEFAULT
370
     0
100
AcDbVertex
100
AcDb2dVertex
 10
-65.56602374662933
 20
13.78451605558165
 30
0.0
  0
VERTEX
  5
1DC
330
1D4
100
AcDbEntity
  8
DEFAULT
370
     0
100
AcDbVertex
100
AcDb2dVertex
 10
-64.72473142913132
 20
13.69666612070778
 30
0.0
  0
VERTEX
  5
1DD
330
1D4
100
AcDbEntity
  8
DEFAULT
370
     0
100
AcDbVertex
100
AcDb2dVertex
 10
-63.6474500708937
 20
13.93541123783559
 30
0.0
  0
VERTEX
  5
1DE
330
1D4
100
AcDbEntity
  8
DEFAULT
370
     0
100
AcDbVertex
100
AcDb2dVertex
 10
-63.60576441552217
 20
13.74489745750128
 30
0.0
  0
VERTEX
  5
1DF
330
1D4
100
AcDbEntity
  8
DEFAULT
370
     0
100
AcDbVertex
100
AcDb2dVertex
 10
-64.7147406522241
 20
13.50684135947051
 30
0.0
  0
VERTEX
  5
1E0
330
1D4
100
AcDbEntity
  8
DEFAULT
370
     0
100
AcDbVertex
100
AcDb2dVertex
 10
-65.6263129176212
 20
13.60709363809128
 30
0.0
  0
VERTEX
  5
1E1
330
1D4
100
AcDbEntity
  8
DEFAULT
370
     0
100
AcDbVertex
100
AcDb2dVertex
 10
-66.66087509184173
 20
14.27096353809893
 30
0.0
  0
VERTEX
  5
1E2
330
1D4
100
AcDbEntity
  8
DEFAULT
370
     0
100
AcDbVertex
100
AcDb2dVertex
 10
-67.13647052358047
 20
15.06075167809245
 30
0.0
  0
VERTEX
  5
1E3
330
1D4
100
AcDbEntity
  8
DEFAULT
370
     0
100
AcDbVertex
100
AcDb2dVertex
 10
-67.37487113115976
 20
16.18953721383456
 30
0.0
  0
VERTEX
  5
1E4
330
1D4
100
AcDbEntity
  8
DEFAULT
370
     0
100
AcDbVertex
100
AcDb2dVertex
 10
-67.06033391335644
 20
17.43511148652664
 30
0.0
  0
VERTEX
  5
1E5
330
1D4
100
AcDbEntity
  8
DEFAULT
370
     0
100
AcDbVertex
100
AcDb2dVertex
 10
-66.61970620079299
 20
18.12171901673693
 30
0.0
  0
VERTEX
  5
1E6
330
1D4
100
AcDbEntity
  8
DEFAULT
370
     0
100
AcDbVertex
100
AcDb2dVertex
 10
-65.61856145277939
 20
18.92683783163982
 30
0.0
  0
VERTEX
  5
1E7
330
1D4
100
AcDbEntity
  8
DEFAULT
370
     0
100
AcDbVertex
100
AcDb2dVertex
 10
-64.4901204265858
 20
19.18504773825929
 30
0.0
  0
VERTEX
  5
1E8
330
1D4
100
AcDbEntity
  8
DEFAULT
370
     0
100
AcDbVertex
100
AcDb2dVertex
 10
-63.57682561344608
 20
19.07721624957097
 30
0.0
  0
VERTEX
  5
1E9
330
1D4
100
AcDbEntity
  8
DEFAULT
370
     0
100
AcDbVertex
100
AcDb2dVertex
 10
-62.54226343922555
 20
18.41334634956333
 30
0.0
  0
VERTEX
  5
1EA
330
1D4
100
AcDbEntity
  8
DEFAULT
370
     0
100
AcDbVertex
100
AcDb2dVertex
 10
-62.06839055522943
 20
17.63148192918588
 30
0.0
  0
VERTEX
  5
1EB
330
1D4
100
AcDbEntity
  8
DEFAULT
370
     0
100
AcDbVertex
100
AcDb2dVertex
 10
-61.94212780569503
 20
17.05236137811538
 30
0.0
  0
VERTEX
  5
1EC
330
1D4
100
AcDbEntity
  8
DEFAULT
370
     0
100
AcDbVertex
100
AcDb2dVertex
 10
-62.04530841547826
 20
16.13613823381319
 30
0.0
  0
VERTEX
  5
1ED
330
1D4
100
AcDbEntity
  8
DEFAULT
370
     0
100
AcDbVertex
100
AcDb2dVertex
 10
-62.53347844573816
 20
15.37528889589576
 30
0.0
  0
SEQEND
  5
1EE
330
1D4
100
AcDbEntity
  8
DEFAULT
370
     0
  0
POLYLINE
  5
1EF
330
12A
100
AcDbEntity
  8
DEFAULT
370
     0
100
AcDb2dPolyline
 66
     1
 10
0.0
 20
0.0
 30
0.0
  0
VERTEX
  5
1F0
330
1EF
100
AcDbEntity
  8
DEFAULT
370
     0
100
AcDbVertex
100
AcDb2dVertex
 10
-62.58825546395364
 20
15.62660861154474
 30
0.0
  0
VERTEX
  5
1F1
330
1EF
100
AcDbEntity
  8
DEFAULT
370
     0
100
AcDbVertex
100
AcDb2dVertex
 10
-62.22359210683994
 20
16.19504936661096
 30
0.0
  0
VERTEX
  5
1F2
330
1EF
100
AcDbEntity
  8
DEFAULT
370
     0
100
AcDbVertex
100
AcDb2dVertex
 10
-62.13505315286902
 20
17.03203531475241
 30
0.0
  0
VERTEX
  5
1F3
330
1EF
100
AcDbEntity
  8
DEFAULT
370
     0
100
AcDbVertex
100
AcDb2dVertex
 10
-62.24650199181685
 20
17.54242621089217
 30
0.0
  0
VERTEX
  5
1F4
330
1EF
100
AcDbEntity
  8
DEFAULT
370
     0
100
AcDbVertex
100
AcDb2dVertex
 10
-62.67593314405324
 20
18.28312174022089
 30
0.0
  0
VERTEX
  5
1F5
330
1EF
100
AcDbEntity
  8
DEFAULT
370
     0
100
AcDbVertex
100
AcDb2dVertex
 10
-63.65037840205616
 20
18.90823431601947
 30
0.0
  0
VERTEX
  5
1F6
330
1EF
100
AcDbEntity
  8
DEFAULT
370
     0
100
AcDbVertex
100
AcDb2dVertex
 10
-64.47444524212791
 20
18.98902180514858
 30
0.0
  0
VERTEX
  5
1F7
330
1EF
100
AcDbEntity
  8
DEFAULT
370
     0
100
AcDbVertex
100
AcDb2dVertex
 10
-65.53432886816503
 20
18.77025824183522
 30
0.0
  0
VERTEX
  5
1F8
330
1EF
100
AcDbEntity
  8
DEFAULT
370
     0
100
AcDbVertex
100
AcDb2dVertex
 10
-66.39715303244586
 20
18.07055934878097
 30
0.0
  0
VERTEX
  5
1F9
330
1EF
100
AcDbEntity
  8
DEFAULT
370
     0
100
AcDbVertex
100
AcDb2dVertex
 10
-62.58825546395364
 20
15.62660861154474
 30
0.0
  0
SEQEND
  5
1FA
330
1EF
100
AcDbEntity
  8
DEFAULT
370
     0
  0
HATCH
  5
1FB
330
12A
100
AcDbEntity
  8
DEFAULT
 62
     7
420
 16777215
100
AcDbHatch
 10
0.0
 20
0.0
 30
0.0
210
0.0
220
0.0
230
1.0
  2
SOLID
 70
     1
 71
     0
 91
        2
 92
        1
 93
       24
 72
     1
 10
-62.53347844573816
 20
15.37528889589576
 11
-66.52324352720599
 21
17.93533935098491
 72
     1
 10
-66.52324352720599
 20
17.93533935098491
 11
-66.88205022199477
 21
17.37602809895461
 72
     1
 10
-66.88205022199477
 20
17.37602809895461
 11
-67.19124754179595
 21
16.1742065389252
 72
     1
 10
-67.19124754179595
 20
16.1742065389252
 11
-66.95095213169976
 21
15.11587320585645
 72
     1
 10
-66.95095213169976
 20
15.11587320585645
 11
-66.52686087746551
 21
14.40118814744137
 72
     1
 10
-66.52686087746551
 20
14.40118814744137
 11
-65.56602374662933
 21
13.78451605558165
 72
     1
 10
-65.56602374662933
 20
13.78451605558165
 11
-64.72473142913132
 21
13.69666612070778
 72
     1
 10
-64.72473142913132
 20
13.69666612070778
 11
-63.6474500708937
 21
13.93541123783559
 72
     1
 10
-63.6474500708937
 20
13.93541123783559
 11
-63.60576441552217
 21
13.74489745750128
 72
     1
 10
-63.60576441552217
 20
13.74489745750128
 11
-64.7147406522241
 21
13.50684135947051
 72
     1
 10
-64.7147406522241
 20
13.50684135947051
 11
-65.6263129176212
 21
13.60709363809128
 72
     1
 10
-65.6263129176212
 20
13.60709363809128
 11
-66.66087509184173
 21
14.27096353809893
 72
     1
 10
-66.66087509184173
 20
14.27096353809893
 11
-67.13647052358047
 21
15.06075167809245
 72
     1
 10
-67.13647052358047
 20
15.06075167809245
 11
-67.37487113115976
 21
16.18953721383456
 72
     1
 10
-67.37487113115976
 20
16.18953721383456
 11
-67.06033391335644
 21
17.43511148652664
 72
     1
 10
-67.06033391335644
 20
17.43511148652664
 11
-66.61970620079299
 21
18.12171901673693
 72
     1
 10
-66.61970620079299
 20
18.12171901673693
 11
-65.61856145277939
 21
18.92683783163982
 72
     1
 10
-65.61856145277939
 20
18.92683783163982
 11
-64.4901204265858
 21
19.18504773825929
 72
     1
 10
-64.4901204265858
 20
19.18504773825929
 11
-63.57682561344608
 21
19.07721624957097
 72
     1
 10
-63.57682561344608
 20
19.07721624957097
 11
-62.54226343922555
 21
18.41334634956333
 72
     1
 10
-62.54226343922555
 20
18.41334634956333
 11
-62.06839055522943
 21
17.63148192918588
 72
     1
 10
-62.06839055522943
 20
17.63148192918588
 11
-61.94212780569503
 21
17.05236137811538
 72
     1
 10
-61.94212780569503
 20
17.05236137811538
 11
-62.04530841547826
 21
16.13613823381319
 72
     1
 10
-62.04530841547826
 20
16.13613823381319
 11
-62.53347844573816
 21
15.37528889589576
 97
        0
 92
        1
 93
        9
 72
     1
 10
-62.58825546395364
 20
15.62660861154474
 11
-62.22359210683994
 21
16.19504936661096
 72
     1
 10
-62.22359210683994
 20
16.19504936661096
 11
-62.13505315286902
 21
17.03203531475241
 72
     1
 10
-62.13505315286902
 20
17.03203531475241
 11
-62.24650199181685
 21
17.54242621089217
 72
     1
 10
-62.24650199181685
 20
17.54242621089217
 11
-62.67593314405324
 21
18.28312174022089
 72
     1
 10
-62.67593314405324
 20
18.28312174022089
 11
-63.65037840205616
 21
18.90823431601947
 72
     1
 10
-63.65037840205616
 20
18.90823431601947
 11
-64.47444524212791
 21
18.98902180514858
 72
     1
 10
-64.47444524212791
 20
18.98902180514858
 11
-65.53432886816503
 21
18.77025824183522
 72
     1
 10
-65.53432886816503
 20
18.77025824183522
 11
-66.39715303244586
 21
18.07055934878097
 72
     1
 10
-66.39715303244586
 20
18.07055934878097
 11
-62.58825546395364
 21
15.62660861154474
 97
        0
 75
     2
 76
     1
 98
        0
  0
POLYLINE
  5
1FC
330
12A
100
AcDbEntity
  8
DEFAULT
370
     0
100
AcDb2dPolyline
 66
     1
 10
0.0
 20
0.0
 30
0.0
  0
VERTEX
  5
1FD
330
1FC
100
AcDbEntity
  8
DEFAULT
370
     0
100
AcDbVertex
100
AcDb2dVertex
 10
-58.93869356165422
 20
9.212874346655115
 30
0.0
  0
VERTEX
  5
1FE
330
1FC
100
AcDbEntity
  8
DEFAULT
370
     0
100
AcDbVertex
100
AcDb2dVertex
 10
-59.83493515214197
 20
8.931065535961679
 30
0.0
  0
VERTEX
  5
1FF
330
1FC
100
AcDbEntity
  8
DEFAULT
370
     0
100
AcDbVertex
100
AcDb2dVertex
 10
-60.98886988492639
 20
9.552560761500748
 30
0.0
  0
VERTEX
  5
200
330
1FC
100
AcDbEntity
  8
DEFAULT
370
     0
100
AcDbVertex
100
AcDb2dVertex
 10
-61.82068818983997
 20
10.42761501475421
 30
0.0
  0
VERTEX
  5
201
330
1FC
100
AcDbEntity
  8
DEFAULT
370
     0
100
AcDbVertex
100
AcDb2dVertex
 10
-62.37948267754749
 20
11.60773247322654
 30
0.0
  0
VERTEX
  5
202
330
1FC
100
AcDbEntity
  8
DEFAULT
370
     0
100
AcDbVertex
100
AcDb2dVertex
 10
-62.06528996929271
 20
12.46917859931326
 30
0.0
  0
VERTEX
  5
203
330
1FC
100
AcDbEntity
  8
DEFAULT
370
     0
100
AcDbVertex
100
AcDb2dVertex
 10
-61.89527450709563
 20
12.42094726251976
 30
0.0
  0
VERTEX
  5
204
330
1FC
100
AcDbEntity
  8
DEFAULT
370
     0
100
AcDbVertex
100
AcDb2dVertex
 10
-62.17725557256333
 20
11.63167588684903
 30
0.0
  0
VERTEX
  5
205
330
1FC
100
AcDbEntity
  8
DEFAULT
370
     0
100
AcDbVertex
100
AcDb2dVertex
 10
-61.66875947894045
 20
10.53165689840875
 30
0.0
  0
VERTEX
  5
206
330
1FC
100
AcDbEntity
  8
DEFAULT
370
     0
100
AcDbVertex
100
AcDb2dVertex
 10
-60.87121987410512
 20
9.693120657298943
 30
0.0
  0
VERTEX
  5
207
330
1FC
100
AcDbEntity
  8
DEFAULT
370
     0
100
AcDbVertex
100
AcDb2dVertex
 10
-59.82063800587817
 20
9.139838322367819
 30
0.0
  0
VERTEX
  5
208
330
1FC
100
AcDbEntity
  8
DEFAULT
370
     0
100
AcDbVertex
100
AcDb2dVertex
 10
-59.02826604427072
 20
9.378238929947107
 30
0.0
  0
VERTEX
  5
209
330
1FC
100
AcDbEntity
  8
DEFAULT
370
     0
100
AcDbVertex
100
AcDb2dVertex
 10
-58.77660181907321
 20
9.618017575720495
 30
0.0
  0
VERTEX
  5
20A
330
1FC
100
AcDbEntity
  8
DEFAULT
370
     0
100
AcDbVertex
100
AcDb2dVertex
 10
-58.49496526315404
 20
10.40143228906631
 30
0.0
  0
VERTEX
  5
20B
330
1FC
100
AcDbEntity
  8
DEFAULT
370
     0
100
AcDbVertex
100
AcDb2dVertex
 10
-58.74283988331776
 20
11.20620659442067
 30
0.0
  0
VERTEX
  5
20C
330
1FC
100
AcDbEntity
  8
DEFAULT
370
     0
100
AcDbVertex
100
AcDb2dVertex
 10
-59.82012124155539
 20
12.9075669998113
 30
0.0
  0
VERTEX
  5
20D
330
1FC
100
AcDbEntity
  8
DEFAULT
370
     0
100
AcDbVertex
100
AcDb2dVertex
 10
-60.0822930079829
 20
13.79140624655215
 30
0.0
  0
VERTEX
  5
20E
330
1FC
100
AcDbEntity
  8
DEFAULT
370
     0
100
AcDbVertex
100
AcDb2dVertex
 10
-59.75518119165843
 20
14.69557155665597
 30
0.0
  0
VERTEX
  5
20F
330
1FC
100
AcDbEntity
  8
DEFAULT
370
     0
100
AcDbVertex
100
AcDb2dVertex
 10
-58.82776148702917
 20
14.98392604877138
 30
0.0
  0
VERTEX
  5
210
330
1FC
100
AcDbEntity
  8
DEFAULT
370
     0
100
AcDbVertex
100
AcDb2dVertex
 10
-57.68157821908655
 20
14.36225856845805
 30
0.0
  0
VERTEX
  5
211
330
1FC
100
AcDbEntity
  8
DEFAULT
370
     0
100
AcDbVertex
100
AcDb2dVertex
 10
-56.84993216894724
 20
13.48720431520459
 30
0.0
  0
VERTEX
  5
212
330
1FC
100
AcDbEntity
  8
DEFAULT
370
     0
100
AcDbVertex
100
AcDb2dVertex
 10
-56.28338621639791
 20
12.30708685673226
 30
0.0
  0
VERTEX
  5
213
330
1FC
100
AcDbEntity
  8
DEFAULT
370
     0
100
AcDbVertex
100
AcDb2dVertex
 10
-56.59775117942695
 20
11.43788926580372
 30
0.0
  0
VERTEX
  5
214
330
1FC
100
AcDbEntity
  8
DEFAULT
370
     0
100
AcDbVertex
100
AcDb2dVertex
 10
-56.76535507478436
 20
11.49318304834198
 30
0.0
  0
VERTEX
  5
215
330
1FC
100
AcDbEntity
  8
DEFAULT
370
     0
100
AcDbVertex
100
AcDb2dVertex
 10
-56.49491507919225
 20
12.28934461498322
 30
0.0
  0
VERTEX
  5
216
330
1FC
100
AcDbEntity
  8
DEFAULT
370
     0
100
AcDbVertex
100
AcDb2dVertex
 10
-56.98911402655133
 20
13.36972655915757
 30
0.0
  0
VERTEX
  5
217
330
1FC
100
AcDbEntity
  8
DEFAULT
370
     0
100
AcDbVertex
100
AcDb2dVertex
 10
-57.79302705803438
 20
14.21532524601214
 30
0.0
  0
VERTEX
  5
218
330
1FC
100
AcDbEntity
  8
DEFAULT
370
     0
100
AcDbVertex
100
AcDb2dVertex
 10
-58.85101588155461
 20
14.7739474789454
 30
0.0
  0
VERTEX
  5
219
330
1FC
100
AcDbEntity
  8
DEFAULT
370
     0
100
AcDbVertex
100
AcDb2dVertex
 10
-59.60893688830957
 20
14.54949950808138
 30
0.0
  0
VERTEX
  5
21A
330
1FC
100
AcDbEntity
  8
DEFAULT
370
     0
100
AcDbVertex
100
AcDb2dVertex
 10
-59.89074569900301
 20
13.78606634855001
 30
0.0
  0
VERTEX
  5
21B
330
1FC
100
AcDbEntity
  8
DEFAULT
370
     0
100
AcDbVertex
100
AcDb2dVertex
 10
-59.64200980496797
 20
12.98594292210074
 30
0.0
  0
VERTEX
  5
21C
330
1FC
100
AcDbEntity
  8
DEFAULT
370
     0
100
AcDbVertex
100
AcDb2dVertex
 10
-58.56369491808477
 20
11.28337673329027
 30
0.0
  0
VERTEX
  5
21D
330
1FC
100
AcDbEntity
  8
DEFAULT
370
     0
100
AcDbVertex
100
AcDb2dVertex
 10
-58.29670001797791
 20
10.39454209809581
 30
0.0
  0
VERTEX
  5
21E
330
1FC
100
AcDbEntity
  8
DEFAULT
370
     0
100
AcDbVertex
100
AcDb2dVertex
 10
-58.61881644584877
 20
9.51673176845415
 30
0.0
  0
VERTEX
  5
21F
330
1FC
100
AcDbEntity
  8
DEFAULT
370
     0
100
AcDbVertex
100
AcDb2dVertex
 10
-58.93869356165422
 20
9.212874346655115
 30
0.0
  0
SEQEND
  5
220
330
1FC
100
AcDbEntity
  8
DEFAULT
370
     0
  0
HATCH
  5
221
330
12A
100
AcDbEntity
  8
DEFAULT
 62
     7
420
 16777215
100
AcDbHatch
 10
0.0
 20
0.0
 30
0.0
210
0.0
220
0.0
230
1.0
  2
SOLID
 70
     1
 71
     0
 91
        1
 92
        1
 93
       34
 72
     1
 10
-58.93869356165422
 20
9.212874346655115
 11
-59.83493515214197
 21
8.931065535961679
 72
     1
 10
-59.83493515214197
 20
8.931065535961679
 11
-60.98886988492639
 21
9.552560761500748
 72
     1
 10
-60.98886988492639
 20
9.552560761500748
 11
-61.82068818983997
 21
10.42761501475421
 72
     1
 10
-61.82068818983997
 20
10.42761501475421
 11
-62.37948267754749
 21
11.60773247322654
 72
     1
 10
-62.37948267754749
 20
11.60773247322654
 11
-62.06528996929271
 21
12.46917859931326
 72
     1
 10
-62.06528996929271
 20
12.46917859931326
 11
-61.89527450709563
 21
12.42094726251976
 72
     1
 10
-61.89527450709563
 20
12.42094726251976
 11
-62.17725557256333
 21
11.63167588684903
 72
     1
 10
-62.17725557256333
 20
11.63167588684903
 11
-61.66875947894045
 21
10.53165689840875
 72
     1
 10
-61.66875947894045
 20
10.53165689840875
 11
-60.87121987410512
 21
9.693120657298943
 72
     1
 10
-60.87121987410512
 20
9.693120657298943
 11
-59.82063800587817
 21
9.139838322367819
 72
     1
 10
-59.82063800587817
 20
9.139838322367819
 11
-59.02826604427072
 21
9.378238929947107
 72
     1
 10
-59.02826604427072
 20
9.378238929947107
 11
-58.77660181907321
 21
9.618017575720495
 72
     1
 10
-58.77660181907321
 20
9.618017575720495
 11
-58.49496526315404
 21
10.40143228906631
 72
     1
 10
-58.49496526315404
 20
10.40143228906631
 11
-58.74283988331776
 21
11.20620659442067
 72
     1
 10
-58.74283988331776
 20
11.20620659442067
 11
-59.82012124155539
 21
12.9075669998113
 72
     1
 10
-59.82012124155539
 20
12.9075669998113
 11
-60.0822930079829
 21
13.79140624655215
 72
     1
 10
-60.0822930079829
 20
13.79140624655215
 11
-59.75518119165843
 21
14.69557155665597
 72
     1
 10
-59.75518119165843
 20
14.69557155665597
 11
-58.82776148702917
 21
14.98392604877138
 72
     1
 10
-58.82776148702917
 20
14.98392604877138
 11
-57.68157821908655
 21
14.36225856845805
 72
     1
 10
-57.68157821908655
 20
14.36225856845805
 11
-56.84993216894724
 21
13.48720431520459
 72
     1
 10
-56.84993216894724
 20
13.48720431520459
 11
-56.28338621639791
 21
12.30708685673226
 72
     1
 10
-56.28338621639791
 20
12.30708685673226
 11
-56.59775117942695
 21
11.43788926580372
 72
     1
 10
-56.59775117942695
 20
11.43788926580372
 11
-56.76535507478436
 21
11.49318304834198
 72
     1
 10
-56.76535507478436
 20
11.49318304834198
 11
-56.49491507919225
 21
12.28934461498322
 72
     1
 10
-56.49491507919225
 20
12.28934461498322
 11
-56.98911402655133
 21
13.36972655915757
 72
     1
 10
-56.98911402655133
 20
13.36972655915757
 11
-57.79302705803438
 21
14.21532524601214
 72
     1
 10
-57.79302705803438
 20
14.21532524601214
 11
-58.85101588155461
 21
14.7739474789454
 72
     1
 10
-58.85101588155461
 20
14.7739474789454
 11
-59.60893688830957
 21
14.54949950808138
 72
     1
 10
-59.60893688830957
 20
14.54949950808138
 11
-59.89074569900301
 21
13.78606634855001
 72
     1
 10
-59.89074569900301
 20
13.78606634855001
 11
-59.64200980496797
 21
12.98594292210074
 72
     1
 10
-59.64200980496797
 20
12.98594292210074
 11
-58.56369491808477
 21
11.28337673329027
 72
     1
 10
-58.56369491808477
 20
11.28337673329027
 11
-58.29670001797791
 21
10.39454209809581
 72
     1
 10
-58.29670001797791
 20
10.39454209809581
 11
-58.61881644584877
 21
9.51673176845415
 72
     1
 10
-58.61881644584877
 20
9.51673176845415
 11
-58.93869356165422
 21
9.212874346655115
 97
        0
 75
     2
 76
     1
 98
        0
  0
POLYLINE
  5
222
330
12A
100
AcDbEntity
  8
DEFAULT
370
     0
100
AcDb2dPolyline
 66
     1
 10
0.0
 20
0.0
 30
0.0
  0
VERTEX
  5
223
330
222
100
AcDbEntity
  8
DEFAULT
370
     0
100
AcDbVertex
100
AcDb2dVertex
 10
-55.47998994923764
 20
3.717947047681625
 30
0.0
  0
VERTEX
  5
224
330
222
100
AcDbEntity
  8
DEFAULT
370
     0
100
AcDbVertex
100
AcDb2dVertex
 10
-56.4170559212256
 20
3.651801214364828
 30
0.0
  0
VERTEX
  5
225
330
222
100
AcDbEntity
  8
DEFAULT
370
     0
100
AcDbVertex
100
AcDb2dVertex
 10
-57.39580754858508
 20
4.523754881681562
 30
0.0
  0
VERTEX
  5
226
330
222
100
AcDbEntity
  8
DEFAULT
370
     0
100
AcDbVertex
100
AcDb2dVertex
 10
-58.00231660876332
 20
5.567618813712262
 30
0.0
  0
VERTEX
  5
227
330
222
100
AcDbEntity
  8
DEFAULT
370
     0
100
AcDbVertex
100
AcDb2dVertex
 10
-58.27258434958116
 20
6.844715710094377
 30
0.0
  0
VERTEX
  5
228
330
222
100
AcDbEntity
  8
DEFAULT
370
     0
100
AcDbVertex
100
AcDb2dVertex
 10
-57.76736109666928
 20
7.610215926916891
 30
0.0
  0
VERTEX
  5
229
330
222
100
AcDbEntity
  8
DEFAULT
370
     0
100
AcDbVertex
100
AcDb2dVertex
 10
-57.61319307370434
 20
7.52374403023712
 30
0.0
  0
VERTEX
  5
22A
330
222
100
AcDbEntity
  8
DEFAULT
370
     0
100
AcDbVertex
100
AcDb2dVertex
 10
-58.070357244597
 20
6.821289060794678
 30
0.0
  0
VERTEX
  5
22B
330
222
100
AcDbEntity
  8
DEFAULT
370
     0
100
AcDbVertex
100
AcDb2dVertex
 10
-57.83023408927508
 20
5.633764647029059
 30
0.0
  0
VERTEX
  5
22C
330
222
100
AcDbEntity
  8
DEFAULT
370
     0
100
AcDbVertex
100
AcDb2dVertex
 10
-57.24870197136491
 20
4.632964408563981
 30
0.0
  0
VERTEX
  5
22D
330
222
100
AcDbEntity
  8
DEFAULT
370
     0
100
AcDbVertex
100
AcDb2dVertex
 10
-56.35487194771684
 20
3.851616752509318
 30
0.0
  0
VERTEX
  5
22E
330
222
100
AcDbEntity
  8
DEFAULT
370
     0
100
AcDbVertex
100
AcDb2dVertex
 10
-55.52873805035393
 20
3.900192598851341
 30
0.0
  0
VERTEX
  5
22F
330
222
100
AcDbEntity
  8
DEFAULT
370
     0
100
AcDbVertex
100
AcDb2dVertex
 10
-55.2284979788144
 20
4.074514430404983
 30
0.0
  0
VERTEX
  5
230
330
222
100
AcDbEntity
  8
DEFAULT
370
     0
100
AcDbVertex
100
AcDb2dVertex
 10
-54.77305635566438
 20
4.77180175661955
 30
0.0
  0
VERTEX
  5
231
330
222
100
AcDbEntity
  8
DEFAULT
370
     0
100
AcDbVertex
100
AcDb2dVertex
 10
-54.82783337387985
 20
5.612060545471985
 30
0.0
  0
VERTEX
  5
232
330
222
100
AcDbEntity
  8
DEFAULT
370
     0
100
AcDbVertex
100
AcDb2dVertex
 10
-55.48171249698027
 20
7.516509329718096
 30
0.0
  0
VERTEX
  5
233
330
222
100
AcDbEntity
  8
DEFAULT
370
     0
100
AcDbVertex
100
AcDb2dVertex
 10
-55.53218314583918
 20
8.437038843376852
 30
0.0
  0
VERTEX
  5
234
330
222
100
AcDbEntity
  8
DEFAULT
370
     0
100
AcDbVertex
100
AcDb2dVertex
 10
-55.00473902704743
 20
9.24077962008564
 30
0.0
  0
VERTEX
  5
235
330
222
100
AcDbEntity
  8
DEFAULT
370
     0
100
AcDbVertex
100
AcDb2dVertex
 10
-54.03563366704665
 20
9.30658094385391
 30
0.0
  0
VERTEX
  5
236
330
222
100
AcDbEntity
  8
DEFAULT
370
     0
100
AcDbVertex
100
AcDb2dVertex
 10
-53.06463350452898
 20
8.436694333828326
 30
0.0
  0
VERTEX
  5
237
330
222
100
AcDbEntity
  8
DEFAULT
370
     0
100
AcDbVertex
100
AcDb2dVertex
 10
-52.45812444435075
 20
7.392830401797626
 30
0.0
  0
VERTEX
  5
238
330
222
100
AcDbEntity
  8
DEFAULT
370
     0
100
AcDbVertex
100
AcDb2dVertex
 10
-52.18027749346535
 20
6.113666448124362
 30
0.0
  0
VERTEX
  5
239
330
222
100
AcDbEntity
  8
DEFAULT
370
     0
100
AcDbVertex
100
AcDb2dVertex
 10
-52.68739554889412
 20
5.340587021234298
 30
0.0
  0
VERTEX
  5
23A
330
222
100
AcDbEntity
  8
DEFAULT
370
     0
100
AcDbVertex
100
AcDb2dVertex
 10
-52.83760171205102
 20
5.433260089787519
 30
0.0
  0
VERTEX
  5
23B
330
222
100
AcDbEntity
  8
DEFAULT
370
     0
100
AcDbVertex
100
AcDb2dVertex
 10
-52.39008380851706
 20
6.14536132658866
 30
0.0
  0
VERTEX
  5
23C
330
222
100
AcDbEntity
  8
DEFAULT
370
     0
100
AcDbVertex
100
AcDb2dVertex
 10
-52.62073295125454
 20
7.310492619700155
 30
0.0
  0
VERTEX
  5
23D
330
222
100
AcDbEntity
  8
DEFAULT
370
     0
100
AcDbVertex
100
AcDb2dVertex
 10
-53.20708820284406
 20
8.319561087329832
 30
0.0
  0
VERTEX
  5
23E
330
222
100
AcDbEntity
  8
DEFAULT
370
     0
100
AcDbVertex
100
AcDb2dVertex
 10
-54.10677488881706
 20
9.107798934354996
 30
0.0
  0
VERTEX
  5
23F
330
222
100
AcDbEntity
  8
DEFAULT
370
     0
100
AcDbVertex
100
AcDb2dVertex
 10
-54.89621851926206
 20
9.065079750337897
 30
0.0
  0
VERTEX
  5
240
330
222
100
AcDbEntity
  8
DEFAULT
370
     0
100
AcDbVertex
100
AcDb2dVertex
 10
-55.34718151828126
 20
8.387429468389254
 30
0.0
  0
VERTEX
  5
241
330
222
100
AcDbEntity
  8
DEFAULT
370
     0
100
AcDbVertex
100
AcDb2dVertex
 10
-55.29033744277464
 20
7.551649303667643
 30
0.0
  0
VERTEX
  5
242
330
222
100
AcDbEntity
  8
DEFAULT
370
     0
100
AcDbVertex
100
AcDb2dVertex
 10
-54.63576930057717
 20
5.645477971678909
 30
0.0
  0
VERTEX
  5
243
330
222
100
AcDbEntity
  8
DEFAULT
370
     0
100
AcDbVertex
100
AcDb2dVertex
 10
-54.58185355623301
 20
4.719091795695228
 30
0.0
  0
VERTEX
  5
244
330
222
100
AcDbEntity
  8
DEFAULT
370
     0
100
AcDbVertex
100
AcDb2dVertex
 10
-55.09844562424622
 20
3.939811196931714
 30
0.0
  0
VERTEX
  5
245
330
222
100
AcDbEntity
  8
DEFAULT
370
     0
100
AcDbVertex
100
AcDb2dVertex
 10
-55.47998994923764
 20
3.717947047681625
 30
0.0
  0
SEQEND
  5
246
330
222
100
AcDbEntity
  8
DEFAULT
370
     0
  0
HATCH
  5
247
330
12A
100
AcDbEntity
  8
DEFAULT
 62
     7
420
 16777215
100
AcDbHatch
 10
0.0
 20
0.0
 30
0.0
210
0.0
220
0.0
230
1.0
  2
SOLID
 70
     1
 71
     0
 91
        1
 92
        1
 93
       34
 72
     1
 10
-55.47998994923764
 20
3.717947047681625
 11
-56.4170559212256
 21
3.651801214364828
 72
     1
 10
-56.4170559212256
 20
3.651801214364828
 11
-57.39580754858508
 21
4.523754881681562
 72
     1
 10
-57.39580754858508
 20
4.523754881681562
 11
-58.00231660876332
 21
5.567618813712262
 72
     1
 10
-58.00231660876332
 20
5.567618813712262
 11
-58.27258434958116
 21
6.844715710094377
 72
     1
 10
-58.27258434958116
 20
6.844715710094377
 11
-57.76736109666928
 21
7.610215926916891
 72
     1
 10
-57.76736109666928
 20
7.610215926916891
 11
-57.61319307370434
 21
7.52374403023712
 72
     1
 10
-57.61319307370434
 20
7.52374403023712
 11
-58.070357244597
 21
6.821289060794678
 72
     1
 10
-58.070357244597
 20
6.821289060794678
 11
-57.83023408927508
 21
5.633764647029059
 72
     1
 10
-57.83023408927508
 20
5.633764647029059
 11
-57.24870197136491
 21
4.632964408563981
 72
     1
 10
-57.24870197136491
 20
4.632964408563981
 11
-56.35487194771684
 21
3.851616752509318
 72
     1
 10
-56.35487194771684
 20
3.851616752509318
 11
-55.52873805035393
 21
3.900192598851341
 72
     1
 10
-55.52873805035393
 20
3.900192598851341
 11
-55.2284979788144
 21
4.074514430404983
 72
     1
 10
-55.2284979788144
 20
4.074514430404983
 11
-54.77305635566438
 21
4.77180175661955
 72
     1
 10
-54.77305635566438
 20
4.77180175661955
 11
-54.82783337387985
 21
5.612060545471985
 72
     1
 10
-54.82783337387985
 20
5.612060545471985
 11
-55.48171249698027
 21
7.516509329718096
 72
     1
 10
-55.48171249698027
 20
7.516509329718096
 11
-55.53218314583918
 21
8.437038843376852
 72
     1
 10
-55.53218314583918
 20
8.437038843376852
 11
-55.00473902704743
 21
9.24077962008564
 72
     1
 10
-55.00473902704743
 20
9.24077962008564
 11
-54.03563366704665
 21
9.30658094385391
 72
     1
 10
-54.03563366704665
 20
9.30658094385391
 11
-53.06463350452898
 21
8.436694333828326
 72
     1
 10
-53.06463350452898
 20
8.436694333828326
 11
-52.45812444435075
 21
7.392830401797626
 72
     1
 10
-52.45812444435075
 20
7.392830401797626
 11
-52.18027749346535
 21
6.113666448124362
 72
     1
 10
-52.18027749346535
 20
6.113666448124362
 11
-52.68739554889412
 21
5.340587021234298
 72
     1
 10
-52.68739554889412
 20
5.340587021234298
 11
-52.83760171205102
 21
5.433260089787519
 72
     1
 10
-52.83760171205102
 20
5.433260089787519
 11
-52.39008380851706
 21
6.14536132658866
 72
     1
 10
-52.39008380851706
 20
6.14536132658866
 11
-52.62073295125454
 21
7.310492619700155
 72
     1
 10
-52.62073295125454
 20
7.310492619700155
 11
-53.20708820284406
 21
8.319561087329832
 72
     1
 10
-53.20708820284406
 20
8.319561087329832
 11
-54.10677488881706
 21
9.107798934354996
 72
     1
 10
-54.10677488881706
 20
9.107798934354996
 11
-54.89621851926206
 21
9.065079750337897
 72
     1
 10
-54.89621851926206
 20
9.065079750337897
 11
-55.34718151828126
 21
8.387429468389254
 72
     1
 10
-55.34718151828126
 20
8.387429468389254
 11
-55.29033744277464
 21
7.551649303667643
 72
     1
 10
-55.29033744277464
 20
7.551649303667643
 11
-54.63576930057717
 21
5.645477971678909
 72
     1
 10
-54.63576930057717
 20
5.645477971678909
 11
-54.58185355623301
 21
4.719091795695228
 72
     1
 10
-54.58185355623301
 20
4.719091795695228
 11
-55.09844562424622
 21
3.939811196931714
 72
     1
 10
-55.09844562424622
 20
3.939811196931714
 11
-55.47998994923764
 21
3.717947047681625
 97
        0
 75
     2
 76
     1
 98
        0
  0
ENDBLK
  5
12D
330
12A
100
AcDbEntity
  8
0
100
AcDbBlockEnd
  0
BLOCK
  5
24A
330
248
100
AcDbEntity
  8
0
100
AcDbBlockBegin
  2
block 6
 70
     0
 10
0.0
 20
0.0
 30
0.0
  3
block 6
  1

  0
SPLINE
  5
24C
330
248
100
AcDbEntity
  8
DEFAULT
 62
     7
420
 16777215
370
    25
100
AcDbSpline
210
0.0
220
0.0
230
1.0
 70
    11
 71
     3
 72
    20
 73
    16
 74
     0
 42
0.0000000001
 43
0.0000000001
 12
1.0
 22
0.0
 32
0.0
 13
1.0
 23
0.0
 33
0.0
 40
0.0
 40
0.0
 40
0.0
 40
0.0
 40
1.0
 40
1.0
 40
1.0
 40
2.0
 40
2.0
 40
2.0
 40
3.0
 40
3.0
 40
3.0
 40
4.0
 40
4.0
 40
4.0
 40
5.0
 40
5.0
 40
5.0
 40
5.0
 10
-82.20451441228401
 20
-8.19948984128057
 30
0.0
 10
-82.20451441228401
 20
-7.288220004059654
 30
0.0
 10
-81.46578424950503
 20
-6.549489841280351
 30
0.0
 10
-80.5545144122841
 20
-6.549489841280351
 30
0.0
 10
-79.64324457506319
 20
-6.549489841280351
 30
0.0
 10
-78.90451441228421
 20
-7.288220004059654
 30
0.0
 10
-78.90451441228421
 20
-8.19948984128057
 30
0.0
 10
-78.90451441228421
 20
-9.110759678501486
 30
0.0
 10
-79.64324457506319
 20
-9.849489841280146
 30
0.0
 10
-80.5545144122841
 20
-9.849489841280146
 30
0.0
 10
-81.46578424950503
 20
-9.849489841280146
 30
0.0
 10
-82.20451441228401
 20
-9.110759678501486
 30
0.0
 10
-82.20451441228401
 20
-8.19948984128057
 30
0.0
 10
-82.20451441228401
 20
-8.19948984128057
 30
0.0
 10
-82.20451441228401
 20
-8.19948984128057
 30
0.0
 10
-82.20451441228401
 20
-8.19948984128057
 30
0.0
  0
ENDBLK
  5
24B
330
248
100
AcDbEntity
  8
0
100
AcDbBlockEnd
  0
BLOCK
  5
24F
330
24D
100
AcDbEntity
  8
0
100
AcDbBlockBegin
  2
block 7
 70
     0
 10
0.0
 20
0.0
 30
0.0
  3
block 7
  1

  0
POLYLINE
  5
251
330
24D
100
AcDbEntity
  8
DEFAULT
 62
     7
420
 16777215
370
    25
100
AcDb2dPolyline
 66
     1
 10
0.0
 20
0.0
 30
0.0
  0
VERTEX
  5
252
330
251
100
AcDbEntity
  8
DEFAULT
 62
     7
420
 16777215
370
    25
100
AcDbVertex
100
AcDb2dVertex
 10
-122.554514412284
 20
-8.19948984128057
 30
0.0
  0
VERTEX
  5
253
330
251
100
AcDbEntity
  8
DEFAULT
 62
     7
420
 16777215
370
    25
100
AcDbVertex
100
AcDb2dVertex
 10
-38.55451441228423
 20
-8.19948984128057
 30
0.0
  0
SEQEND
  5
254
330
251
100
AcDbEntity
  8
DEFAULT
 62
     7
420
 16777215
370
    25
  0
ENDBLK
  5
250
330
24D
100
AcDbEntity
  8
0
100
AcDbBlockEnd
  0
BLOCK
  5
257
330
255
100
AcDbEntity
  8
0
100
AcDbBlockBegin
  2
block 8
 70
     0
 10
0.0
 20
0.0
 30
0.0
  3
block 8
  1

  0
SPLINE
  5
259
330
255
100
AcDbEntity
  8
DEFAULT
 62
     7
420
 16777215
370
    25
100
AcDbSpline
210
0.0
220
0.0
230
1.0
 70
    11
 71
     3
 72
    20
 73
    16
 74
     0
 42
0.0000000001
 43
0.0000000001
 12
1.0
 22
0.0
 32
0.0
 13
1.0
 23
0.0
 33
0.0
 40
0.0
 40
0.0
 40
0.0
 40
0.0
 40
1.0
 40
1.0
 40
1.0
 40
2.0
 40
2.0
 40
2.0
 40
3.0
 40
3.0
 40
3.0
 40
4.0
 40
4.0
 40
4.0
 40
5.0
 40
5.0
 40
5.0
 40
5.0
 10
-117.0545144122841
 20
-8.19948984128057
 30
0.0
 10
-117.0545144122841
 20
11.95890352754353
 30
0.0
 10
-100.7129077811079
 20
28.30051015871944
 30
0.0
 10
-80.5545144122841
 20
28.30051015871944
 30
0.0
 10
-60.39612104346001
 20
28.30051015871944
 30
0.0
 10
-44.05451441228411
 20
11.95890352754353
 30
0.0
 10
-44.05451441228411
 20
-8.19948984128057
 30
0.0
 10
-44.05451441228411
 20
-28.35788321010434
 30
0.0
 10
-60.39612104346001
 20
-44.69948984128025
 30
0.0
 10
-80.5545144122841
 20
-44.69948984128025
 30
0.0
 10
-100.7129077811082
 20
-44.69948984128025
 30
0.0
 10
-117.0545144122841
 20
-28.35788321010434
 30
0.0
 10
-117.0545144122841
 20
-8.19948984128057
 30
0.0
 10
-117.0545144122841
 20
-8.19948984128057
 30
0.0
 10
-117.0545144122841
 20
-8.19948984128057
 30
0.0
 10
-117.0545144122841
 20
-8.19948984128057
 30
0.0
  0
ENDBLK
  5
258
330
255
100
AcDbEntity
  8
0
100
AcDbBlockEnd
  0
BLOCK
  5
25C
330
25A
100
AcDbEntity
  8
0
100
AcDbBlockBegin
  2
block 9
 70
     0
 10
0.0
 20
0.0
 30
0.0
  3
block 9
  1

  0
SPLINE
  5
25E
330
25A
100
AcDbEntity
  8
DEFAULT
 62
     7
420
 16777215
370
    25
100
AcDbSpline
210
0.0
220
0.0
230
1.0
 70
    11
 71
     3
 72
    20
 73
    16
 74
     0
 42
0.0000000001
 43
0.0000000001
 12
1.0
 22
0.0
 32
0.0
 13
1.0
 23
0.0
 33
0.0
 40
0.0
 40
0.0
 40
0.0
 40
0.0
 40
1.0
 40
1.0
 40
1.0
 40
2.0
 40
2.0
 40
2.0
 40
3.0
 40
3.0
 40
3.0
 40
4.0
 40
4.0
 40
4.0
 40
5.0
 40
5.0
 40
5.0
 40
5.0
 10
-122.554514412284
 20
-8.19948984128057
 30
0.0
 10
-122.554514412284
 20
14.99646965161282
 30
0.0
 10
-103.7504739051775
 20
33.80051015871963
 30
0.0
 10
-80.5545144122841
 20
33.80051015871963
 30
0.0
 10
-57.35855491939072
 20
33.80051015871963
 30
0.0
 10
-38.55451441228391
 20
14.99646965161282
 30
0.0
 10
-38.55451441228423
 20
-8.19948984128057
 30
0.0
 10
-38.55451441228391
 20
-31.39544933417364
 30
0.0
 10
-57.35855491939072
 20
-50.19948984128077
 30
0.0
 10
-80.5545144122841
 20
-50.19948984128077
 30
0.0
 10
-103.7504739051775
 20
-50.19948984128077
 30
0.0
 10
-122.554514412284
 20
-31.39544933417364
 30
0.0
 10
-122.554514412284
 20
-8.19948984128057
 30
0.0
 10
-122.554514412284
 20
-8.19948984128057
 30
0.0
 10
-122.554514412284
 20
-8.19948984128057
 30
0.0
 10
-122.554514412284
 20
-8.19948984128057
 30
0.0
  0
ENDBLK
  5
25D
330
25A
100
AcDbEntity
  8
0
100
AcDbBlockEnd
  0
BLOCK
  5
261
330
25F
100
AcDbEntity
  8
0
100
AcDbBlockBegin
  2
block 10
 70
     0
 10
0.0
 20
0.0
 30
0.0
  3
block 10
  1

  0
POLYLINE
  5
263
330
25F
100
AcDbEntity
  8
DEFAULT
 62
     7
420
 16777215
370
    25
100
AcDb2dPolyline
 66
     1
 10
0.0
 20
0.0
 30
0.0
  0
VERTEX
  5
264
330
263
100
AcDbEntity
  8
DEFAULT
 62
     7
420
 16777215
370
    25
100
AcDbVertex
100
AcDb2dVertex
 10
-395.2111111139333
 20
-217.0347222250886
 30
0.0
  0
VERTEX
  5
265
330
263
100
AcDbEntity
  8
DEFAULT
 62
     7
420
 16777215
370
    25
100
AcDbVertex
100
AcDb2dVertex
 10
417.7888888860666
 20
-217.0347222250886
 30
0.0
  0
SEQEND
  5
266
330
263
100
AcDbEntity
  8
DEFAULT
 62
     7
420
 16777215
370
    25
  0
ENDBLK
  5
262
330
25F
100
AcDbEntity
  8
0
100
AcDbBlockEnd
  0
BLOCK
  5
269
330
267
100
AcDbEntity
  8
0
100
AcDbBlockBegin
  2
block 11
 70
     0
 10
0.0
 20
0.0
 30
0.0
  3
block 11
  1

  0
POLYLINE
  5
26B
330
267
100
AcDbEntity
  8
DEFAULT
 62
     7
420
 16777215
370
    25
100
AcDb2dPolyline
 66
     1
 10
0.0
 20
0.0
 30
0.0
  0
VERTEX
  5
26C
330
26B
100
AcDbEntity
  8
DEFAULT
 62
     7
420
 16777215
370
    25
100
AcDbVertex
100
AcDb2dVertex
 10
417.7888888860666
 20
-217.0347222250886
 30
0.0
  0
VERTEX
  5
26D
330
26B
100
AcDbEntity
  8
DEFAULT
 62
     7
420
 16777215
370
    25
100
AcDbVertex
100
AcDb2dVertex
 10
417.7888888860666
 20
239.9652777749115
 30
0.0
  0
SEQEND
  5
26E
330
26B
100
AcDbEntity
  8
DEFAULT
 62
     7
420
 16777215
370
    25
  0
ENDBLK
  5
26A
330
267
100
AcDbEntity
  8
0
100
AcDbBlockEnd
  0
BLOCK
  5
271
330
26F
100
AcDbEntity
  8
0
100
AcDbBlockBegin
  2
block 12
 70
     0
 10
0.0
 20
0.0
 30
0.0
  3
block 12
  1

  0
POLYLINE
  5
273
330
26F
100
AcDbEntity
  8
DEFAULT
 62
     7
420
 16777215
370
    25
100
AcDb2dPolyline
 66
     1
 10
0.0
 20
0.0
 30
0.0
  0
VERTEX
  5
274
330
273
100
AcDbEntity
  8
DEFAULT
 62
     7
420
 16777215
370
    25
100
AcDbVertex
100
AcDb2dVertex
 10
417.7888888860666
 20
239.9652777749115
 30
0.0
  0
VERTEX
  5
275
330
273
100
AcDbEntity
  8
DEFAULT
 62
     7
420
 16777215
370
    25
100
AcDbVertex
100
AcDb2dVertex
 10
-395.2111111139333
 20
239.9652777749115
 30
0.0
  0
SEQEND
  5
276
330
273
100
AcDbEntity
  8
DEFAULT
 62
     7
420
 16777215
370
    25
  0
ENDBLK
  5
272
330
26F
100
AcDbEntity
  8
0
100
AcDbBlockEnd
  0
BLOCK
  5
279
330
277
100
AcDbEntity
  8
0
100
AcDbBlockBegin
  2
block 13
 70
     0
 10
0.0
 20
0.0
 30
0.0
  3
block 13
  1

  0
POLYLINE
  5
27B
330
277
100
AcDbEntity
  8
DEFAULT
 62
     7
420
 16777215
370
    25
100
AcDb2dPolyline
 66
     1
 10
0.0
 20
0.0
 30
0.0
  0
VERTEX
  5
27C
330
27B
100
AcDbEntity
  8
DEFAULT
 62
     7
420
 16777215
370
    25
100
AcDbVertex
100
AcDb2dVertex
 10
-395.2111111139333
 20
239.9652777749115
 30
0.0
  0
VERTEX
  5
27D
330
27B
100
AcDbEntity
  8
DEFAULT
 62
     7
420
 16777215
370
    25
100
AcDbVertex
100
AcDb2dVertex
 10
-395.2111111139333
 20
-217.0347222250886
 30
0.0
  0
SEQEND
  5
27E
330
27B
100
AcDbEntity
  8
DEFAULT
 62
     7
420
 16777215
370
    25
  0
ENDBLK
  5
27A
330
277
100
AcDbEntity
  8
0
100
AcDbBlockEnd
  0
ENDSEC
  0
SECTION
  2
ENTITIES
  0
INSERT
  5
42
330
1F
100
AcDbEntity
  8
DEFAULT
100
AcDbBlockReference
  2
block 2
 10
0.0
 20
0.0
 30
0.0
  0
INSERT
  5
127
330
1F
100
AcDbEntity
  8
DEFAULT
100
AcDbBlockReference
  2
block 4
 10
0.0
 20
0.0
 30
0.0
  0
INSERT
  5
249
330
1F
100
AcDbEntity
  8
DEFAULT
100
AcDbBlockReference
  2
block 6
 10
0.0
 20
0.0
 30
0.0
  0
INSERT
  5
24E
330
1F
100
AcDbEntity
  8
DEFAULT
100
AcDbBlockReference
  2
block 7
 10
0.0
 20
0.0
 30
0.0
  0
INSERT
  5
256
330
1F
100
AcDbEntity
  8
DEFAULT
100
AcDbBlockReference
  2
block 8
 10
0.0
 20
0.0
 30
0.0
  0
INSERT
  5
25B
330
1F
100
AcDbEntity
  8
DEFAULT
100
AcDbBlockReference
  2
block 9
 10
0.0
 20
0.0
 30
0.0
  0
INSERT
  5
260
330
1F
100
AcDbEntity
  8
DEFAULT
100
AcDbBlockReference
  2
block 10
 10
0.0
 20
0.0
 30
0.0
  0
INSERT
  5
268
330
1F
100
AcDbEntity
  8
DEFAULT
100
AcDbBlockReference
  2
block 11
 10
0.0
 20
0.0
 30
0.0
  0
INSERT
  5
270
330
1F
100
AcDbEntity
  8
DEFAULT
100
AcDbBlockReference
  2
block 12
 10
0.0
 20
0.0
 30
0.0
  0
INSERT
  5
278
330
1F
100
AcDbEntity
  8
DEFAULT
100
AcDbBlockReference
  2
block 13
 10
0.0
 20
0.0
 30
0.0
  0
ENDSEC
  0
SECTION
  2
OBJECTS
  0
DICTIONARY
  5
C
330
0
100
AcDbDictionary
281
     1
  3
ACAD_GROUP
350
D
  3
ACAD_LAYOUT
350
1A
  3
ACAD_MATERIAL
350
3B
  3
ACAD_MLEADERSTYLE
350
280
  3
ACAD_MLINESTYLE
350
17
  3
ACAD_PLOTSETTINGS
350
19
  3
ACAD_PLOTSTYLENAME
350
E
  3
ACAD_TABLESTYLE
350
27F
  3
ACAD_VISUALSTYLE
350
2A
  0
SUN
  5
3F
330
29
100
AcDbSun
 90
        1
290
     0
 63
     7
421
 16777215
 40
1.0
291
     1
 91
  2455826
 92
 54000000
292
     0
 70
     2
 71
   256
280
     1
  0
DICTIONARY
  5
D
102
{ACAD_REACTORS
330
C
102
}
330
C
100
AcDbDictionary
281
     1
  0
DICTIONARY
  5
1A
102
{ACAD_REACTORS
330
C
102
}
330
C
100
AcDbDictionary
281
     1
  3
Layout1
350
1E
  3
Layout2
350
26
  3
Model
350
22
  0
DICTIONARY
  5
3B
102
{ACAD_REACTORS
330
C
102
}
330
C
100
AcDbDictionary
281
     1
  3
ByBlock
350
3D
  3
ByLayer
350
3C
  3
Global
350
3E
  0
DICTIONARY
  5
280
102
{ACAD_REACTORS
330
C
102
}
330
C
100
AcDbDictionary
281
     1
  0
DICTIONARY
  5
17
102
{ACAD_REACTORS
330
C
102
}
330
C
100
AcDbDictionary
281
     1
  3
Standard
350
18
  0
DICTIONARY
  5
19
102
{ACAD_REACTORS
330
C
102
}
330
C
100
AcDbDictionary
281
     1
  0
ACDBDICTIONARYWDFLT
  5
E
102
{ACAD_REACTORS
330
C
102
}
330
C
100
AcDbDictionary
281
     1
  3
Normal
350
F
100
AcDbDictionaryWithDefault
340
F
  0
DICTIONARY
  5
27F
102
{ACAD_REACTORS
330
C
102
}
330
C
100
AcDbDictionary
281
     1
  0
DICTIONARY
  5
2A
102
{ACAD_REACTORS
330
C
102
}
330
C
100
AcDbDictionary
281
     1
  3
2dWireframe
350
2F
  3
3D Hidden
350
31
  3
3dWireframe
350
30
  3
Basic
350
32
  3
Brighten
350
36
  3
ColorChange
350
3A
  3
Conceptual
350
34
  3
Dim
350
35
  3
Facepattern
350
39
  3
Flat
350
2B
  3
FlatWithEdges
350
2C
  3
Gouraud
350
2D
  3
GouraudWithEdges
350
2E
  3
Linepattern
350
38
  3
Realistic
350
33
  3
Thicken
350
37
  0
LAYOUT
  5
1E
102
{ACAD_REACTORS
330
1A
102
}
330
1A
100
AcDbPlotSettings
  1

  2
none_device
  4

  6

 40
0.0
 41
0.0
 42
0.0
 43
0.0
 44
0.0
 45
0.0
 46
0.0
 47
0.0
 48
0.0
 49
0.0
140
0.0
141
0.0
142
1.0
143
1.0
 70
   688
 72
     0
 73
     0
 74
     5
  7

 75
    16
 76
     0
 77
     2
 78
   300
147
1.0
148
0.0
149
0.0
100
AcDbLayout
  1
Layout1
 70
     1
 71
     1
 10
0.0
 20
0.0
 11
12.0
 21
9.0
 12
0.0
 22
0.0
 32
0.0
 14
1.000000000000000E+20
 24
1.000000000000000E+20
 34
1.000000000000000E+20
 15
-1.000000000000000E+20
 25
-1.000000000000000E+20
 35
-1.000000000000000E+20
146
0.0
 13
0.0
 23
0.0
 33
0.0
 16
1.0
 26
0.0
 36
0.0
 17
0.0
 27
1.0
 37
0.0
 76
     0
330
1B
  0
LAYOUT
  5
26
102
{ACAD_REACTORS
330
1A
102
}
330
1A
100
AcDbPlotSettings
  1

  2
none_device
  4

  6

 40
0.0
 41
0.0
 42
0.0
 43
0.0
 44
0.0
 45
0.0
 46
0.0
 47
0.0
 48
0.0
 49
0.0
140
0.0
141
0.0
142
1.0
143
1.0
 70
   688
 72
     0
 73
     0
 74
     5
  7

 75
    16
 76
     0
 77
     2
 78
   300
147
1.0
148
0.0
149
0.0
100
AcDbLayout
  1
Layout2
 70
     1
 71
     2
 10
0.0
 20
0.0
 11
0.0
 21
0.0
 12
0.0
 22
0.0
 32
0.0
 14
0.0
 24
0.0
 34
0.0
 15
0.0
 25
0.0
 35
0.0
146
0.0
 13
0.0
 23
0.0
 33
0.0
 16
1.0
 26
0.0
 36
0.0
 17
0.0
 27
1.0
 37
0.0
 76
     0
330
23
  0
LAYOUT
  5
22
102
{ACAD_REACTORS
330
1A
102
}
330
1A
100
AcDbPlotSettings
  1

  2
none_device
  4

  6

 40
0.0
 41
0.0
 42
0.0
 43
0.0
 44
0.0
 45
0.0
 46
0.0
 47
0.0
 48
0.0
 49
0.0
140
0.0
141
0.0
142
1.0
143
1.0
 70
  1712
 72
     0
 73
     0
 74
     0
  7

 75
     0
 76
     0
 77
     2
 78
   300
147
1.0
148
0.0
149
0.0
100
AcDbLayout
  1
Model
 70
     1
 71
     0
 10
0.0
 20
0.0
 11
12.0
 21
9.0
 12
0.0
 22
0.0
 32
0.0
 14
1.000000000000000E+20
 24
1.000000000000000E+20
 34
1.000000000000000E+20
 15
-1.000000000000000E+20
 25
-1.000000000000000E+20
 35
-1.000000000000000E+20
146
0.0
 13
0.0
 23
0.0
 33
0.0
 16
1.0
 26
0.0
 36
0.0
 17
0.0
 27
1.0
 37
0.0
 76
     0
330
1F
331
29
  0
MATERIAL
  5
3D
102
{ACAD_REACTORS
330
3B
102
}
330
3B
100
AcDbMaterial
  1
ByBlock
 72
     1
 94
      127
  0
MATERIAL
  5
3C
102
{ACAD_REACTORS
330
3B
102
}
330
3B
100
AcDbMaterial
  1
ByLayer
 72
     1
 94
      127
  0
MATERIAL
  5
3E
102
{ACAD_REACTORS
330
3B
102
}
330
3B
100
AcDbMaterial
  1
Global
 72
     1
 94
      127
  0
MLINESTYLE
  5
18
102
{ACAD_REACTORS
330
17
102
}
330
17
100
AcDbMlineStyle
  2
Standard
 70
     0
  3

 62
   256
 51
90.0
 52
90.0
 71
     2
 49
0.5
 62
   256
  6
BYLAYER
 49
-0.5
 62
   256
  6
BYLAYER
  0
ACDBPLACEHOLDER
  5
F
102
{ACAD_REACTORS
330
E
102
}
330
E
  0
VISUALSTYLE
  5
2F
102
{ACAD_REACTORS
330
2A
102
}
330
2A
100
AcDbVisualStyle
  2
2dWireframe
 70
     4
177
     2
291
     0
 71
     0
176
     1
 72
     2
176
     1
 73
     0
176
     1
 90
        0
176
     1
 40
-0.6
176
     1
 41
-30.0
176
     1
 62
     5
 63
     7
421
 16777215
176
     1
 74
     1
176
     1
 91
        4
176
     1
 64
     7
176
     1
 65
   257
176
     1
 75
     1
176
     1
175
     1
176
     1
 42
1.0
176
     1
 92
        0
176
     1
 66
   257
176
     1
 43
1.0
176
     1
 76
     1
176
     1
 77
     6
176
     1
 78
     2
176
     1
 67
     7
176
     1
 79
     5
176
     1
170
     0
176
     1
171
     0
176
     1
290
     0
176
     1
 93
        1
176
     1
 44
0.0
176
     1
173
     0
176
     1
  0
VISUALSTYLE
  5
31
102
{ACAD_REACTORS
330
2A
102
}
330
2A
100
AcDbVisualStyle
  2
3D Hidden
 70
     6
177
     2
291
     0
 71
     1
176
     1
 72
     2
176
     1
 73
     2
176
     1
 90
        0
176
     1
 40
-0.6
176
     1
 41
-30.0
176
     1
 62
     5
 63
     7
421
 16777215
176
     1
 74
     2
176
     1
 91
        2
176
     1
 64
     7
176
     1
 65
   257
176
     1
 75
     2
176
     1
175
     1
176
     1
 42
40.0
176
     1
 92
        0
176
     1
 66
   257
176
     1
 43
1.0
176
     1
 76
     1
176
     1
 77
     6
176
     1
 78
     2
176
     1
 67
     7
176
     1
 79
     3
176
     1
170
     0
176
     1
171
     0
176
     1
290
     0
176
     1
 93
        1
176
     1
 44
0.0
176
     1
173
     0
176
     1
  0
VISUALSTYLE
  5
30
102
{ACAD_REACTORS
330
2A
102
}
330
2A
100
AcDbVisualStyle
  2
3dWireframe
 70
     5
177
     2
291
     0
 71
     0
176
     1
 72
     2
176
     1
 73
     0
176
     1
 90
        0
176
     1
 40
-0.6
176
     1
 41
-30.0
176
     1
 62
     5
 63
     7
421
 16777215
176
     1
 74
     1
176
     1
 91
        4
176
     1
 64
     7
176
     1
 65
   257
176
     1
 75
     1
176
     1
175
     1
176
     1
 42
1.0
176
     1
 92
        0
176
     1
 66
   257
176
     1
 43
1.0
176
     1
 76
     1
176
     1
 77
     6
176
     1
 78
     2
176
     1
 67
     7
176
     1
 79
     5
176
     1
170
     0
176
     1
171
     0
176
     1
290
     0
176
     1
 93
        1
176
     1
 44
0.0
176
     1
173
     0
176
     1
  0
VISUALSTYLE
  5
32
102
{ACAD_REACTORS
330
2A
102
}
330
2A
100
AcDbVisualStyle
  2
Basic
 70
     7
177
     2
291
     1
 71
     1
176
     1
 72
     0
176
     1
 73
     1
176
     1
 90
        0
176
     1
 40
-0.6
176
     1
 41
-30.0
176
     1
 62
     5
 63
     7
421
 16777215
176
     1
 74
     0
176
     1
 91
        4
176
     1
 64
     7
176
     1
 65
   257
176
     1
 75
     1
176
     1
175
     1
176
     1
 42
1.0
176
     1
 92
        8
176
     1
 66
     7
176
     1
 43
1.0
176
     1
 76
     1
176
     1
 77
     6
176
     1
 78
     2
176
     1
 67
     7
176
     1
 79
     5
176
     1
170
     0
176
     1
171
     0
176
     1
290
     0
176
     1
 93
        1
176
     1
 44
0.0
176
     1
173
     0
176
     1
  0
VISUALSTYLE
  5
36
102
{ACAD_REACTORS
330
2A
102
}
330
2A
100
AcDbVisualStyle
  2
Brighten
 70
    12
177
     2
291
     1
 71
     2
176
     1
 72
     2
176
     1
 73
     0
176
     1
 90
        0
176
     1
 40
-0.6
176
     1
 41
-30.0
176
     1
 62
     5
 63
     7
421
 16777215
176
     1
 74
     1
176
     1
 91
        4
176
     1
 64
     7
176
     1
 65
   257
176
     1
 75
     1
176
     1
175
     1
176
     1
 42
1.0
176
     1
 92
        8
176
     1
 66
     7
176
     1
 43
1.0
176
     1
 76
     1
176
     1
 77
     6
176
     1
 78
     2
176
     1
 67
     7
176
     1
 79
     5
176
     1
170
     0
176
     1
171
     0
176
     1
290
     0
176
     1
 93
        1
176
     1
 44
50.0
176
     1
173
     0
176
     1
  0
VISUALSTYLE
  5
3A
102
{ACAD_REACTORS
330
2A
102
}
330
2A
100
AcDbVisualStyle
  2
ColorChange
 70
    16
177
     2
291
     1
 71
     2
176
     1
 72
     2
176
     1
 73
     3
176
     1
 90
        0
176
     1
 40
-0.6
176
     1
 41
-30.0
176
     1
 62
     5
 63
     8
421
  8421504
176
     1
 74
     1
176
     1
 91
        4
176
     1
 64
     7
176
     1
 65
   257
176
     1
 75
     1
176
     1
175
     1
176
     1
 42
1.0
176
     1
 92
        8
176
     1
 66
     8
424
  8421504
176
     1
 43
1.0
176
     1
 76
     1
176
     1
 77
     6
176
     1
 78
     2
176
     1
 67
     7
176
     1
 79
     5
176
     1
170
     0
176
     1
171
     0
176
     1
290
     0
176
     1
 93
        1
176
     1
 44
0.0
176
     1
173
     0
176
     1
  0
VISUALSTYLE
  5
34
102
{ACAD_REACTORS
330
2A
102
}
330
2A
100
AcDbVisualStyle
  2
Conceptual
 70
     9
177
     2
291
     0
 71
     3
176
     1
 72
     2
176
     1
 73
     0
176
     1
 90
        0
176
     1
 40
-0.6
176
     1
 41
-30.0
176
     1
 62
     5
 63
     7
421
 16777215
176
     1
 74
     2
176
     1
 91
        2
176
     1
 64
     7
176
     1
 65
   257
176
     1
 75
     1
176
     1
175
     1
176
     1
 42
40.0
176
     1
 92
        8
176
     1
 66
     7
176
     1
 43
1.0
176
     1
 76
     1
176
     1
 77
     6
176
     1
 78
     2
176
     1
 67
     7
176
     1
 79
     3
176
     1
170
     0
176
     1
171
     0
176
     1
290
     0
176
     1
 93
        1
176
     1
 44
0.0
176
     1
173
     0
176
     1
  0
VISUALSTYLE
  5
35
102
{ACAD_REACTORS
330
2A
102
}
330
2A
100
AcDbVisualStyle
  2
Dim
 70
    11
177
     2
291
     1
 71
     2
176
     1
 72
     2
176
     1
 73
     0
176
     1
 90
        0
176
     1
 40
-0.6
176
     1
 41
-30.0
176
     1
 62
     5
 63
     7
421
 16777215
176
     1
 74
     1
176
     1
 91
        4
176
     1
 64
     7
176
     1
 65
   257
176
     1
 75
     1
176
     1
175
     1
176
     1
 42
1.0
176
     1
 92
        8
176
     1
 66
     7
176
     1
 43
1.0
176
     1
 76
     1
176
     1
 77
     6
176
     1
 78
     2
176
     1
 67
     7
176
     1
 79
     5
176
     1
170
     0
176
     1
171
     0
176
     1
290
     0
176
     1
 93
        1
176
     1
 44
-50.0
176
     1
173
     0
176
     1
  0
VISUALSTYLE
  5
39
102
{ACAD_REACTORS
330
2A
102
}
330
2A
100
AcDbVisualStyle
  2
Facepattern
 70
    15
177
     2
291
     1
 71
     2
176
     1
 72
     2
176
     1
 73
     0
176
     1
 90
        0
176
     1
 40
-0.6
176
     1
 41
-30.0
176
     1
 62
     5
 63
     7
421
 16777215
176
     1
 74
     1
176
     1
 91
        4
176
     1
 64
     7
176
     1
 65
   257
176
     1
 75
     1
176
     1
175
     1
176
     1
 42
1.0
176
     1
 92
        8
176
     1
 66
     7
176
     1
 43
1.0
176
     1
 76
     1
176
     1
 77
     6
176
     1
 78
     2
176
     1
 67
     7
176
     1
 79
     5
176
     1
170
     0
176
     1
171
     0
176
     1
290
     0
176
     1
 93
        1
176
     1
 44
0.0
176
     1
173
     0
176
     1
  0
VISUALSTYLE
  5
2B
102
{ACAD_REACTORS
330
2A
102
}
330
2A
100
AcDbVisualStyle
  2
Flat
 70
     0
177
     2
291
     1
 71
     2
176
     1
 72
     1
176
     1
 73
     1
176
     1
 90
        2
176
     1
 40
-0.6
176
     1
 41
30.0
176
     1
 62
     5
 63
     7
421
 16777215
176
     1
 74
     0
176
     1
 91
        4
176
     1
 64
     7
176
     1
 65
   257
176
     1
 75
     1
176
     1
175
     1
176
     1
 42
1.0
176
     1
 92
        8
176
     1
 66
     7
176
     1
 43
1.0
176
     1
 76
     1
176
     1
 77
     6
176
     1
 78
     2
176
     1
 67
     7
176
     1
 79
     5
176
     1
170
     0
176
     1
171
     0
176
     1
290
     0
176
     1
 93
       13
176
     1
 44
0.0
176
     1
173
     0
176
     1
  0
VISUALSTYLE
  5
2C
102
{ACAD_REACTORS
330
2A
102
}
330
2A
100
AcDbVisualStyle
  2
FlatWithEdges
 70
     1
177
     2
291
     1
 71
     2
176
     1
 72
     1
176
     1
 73
     1
176
     1
 90
        2
176
     1
 40
-0.6
176
     1
 41
30.0
176
     1
 62
     5
 63
     7
421
 16777215
176
     1
 74
     1
176
     1
 91
        4
176
     1
 64
     7
176
     1
 65
   257
176
     1
 75
     1
176
     1
175
     1
176
     1
 42
1.0
176
     1
 92
        0
176
     1
 66
   257
176
     1
 43
1.0
176
     1
 76
     1
176
     1
 77
     6
176
     1
 78
     2
176
     1
 67
     7
176
     1
 79
     5
176
     1
170
     0
176
     1
171
     0
176
     1
290
     0
176
     1
 93
       13
176
     1
 44
0.0
176
     1
173
     0
176
     1
  0
VISUALSTYLE
  5
2D
102
{ACAD_REACTORS
330
2A
102
}
330
2A
100
AcDbVisualStyle
  2
Gouraud
 70
     2
177
     2
291
     1
 71
     2
176
     1
 72
     2
176
     1
 73
     1
176
     1
 90
        2
176
     1
 40
-0.6
176
     1
 41
30.0
176
     1
 62
     5
 63
     7
421
 16777215
176
     1
 74
     0
176
     1
 91
        4
176
     1
 64
     7
176
     1
 65
   257
176
     1
 75
     1
176
     1
175
     1
176
     1
 42
1.0
176
     1
 92
        0
176
     1
 66
     7
176
     1
 43
1.0
176
     1
 76
     1
176
     1
 77
     6
176
     1
 78
     2
176
     1
 67
     7
176
     1
 79
     5
176
     1
170
     0
176
     1
171
     0
176
     1
290
     0
176
     1
 93
       13
176
     1
 44
0.0
176
     1
173
     0
176
     1
  0
VISUALSTYLE
  5
2E
102
{ACAD_REACTORS
330
2A
102
}
330
2A
100
AcDbVisualStyle
  2
GouraudWithEdges
 70
     3
177
     2
291
     1
 71
     2
176
     1
 72
     2
176
     1
 73
     1
176
     1
 90
        2
176
     1
 40
-0.6
176
     1
 41
30.0
176
     1
 62
     5
 63
     7
421
 16777215
176
     1
 74
     1
176
     1
 91
        4
176
     1
 64
     7
176
     1
 65
   257
176
     1
 75
     1
176
     1
175
     1
176
     1
 42
1.0
176
     1
 92
        0
176
     1
 66
   257
176
     1
 43
1.0
176
     1
 76
     1
176
     1
 77
     6
176
     1
 78
     2
176
     1
 67
     7
176
     1
 79
     5
176
     1
170
     0
176
     1
171
     0
176
     1
290
     0
176
     1
 93
       13
176
     1
 44
0.0
176
     1
173
     0
176
     1
  0
VISUALSTYLE
  5
38
102
{ACAD_REACTORS
330
2A
102
}
330
2A
100
AcDbVisualStyle
  2
Linepattern
 70
    14
177
     2
291
     1
 71
     2
176
     1
 72
     2
176
     1
 73
     0
176
     1
 90
        0
176
     1
 40
-0.6
176
     1
 41
-30.0
176
     1
 62
     5
 63
     7
421
 16777215
176
     1
 74
     1
176
     1
 91
        4
176
     1
 64
     7
176
     1
 65
   257
176
     1
 75
     7
176
     1
175
     7
176
     1
 42
1.0
176
     1
 92
        8
176
     1
 66
     7
176
     1
 43
1.0
176
     1
 76
     1
176
     1
 77
     6
176
     1
 78
     2
176
     1
 67
     7
176
     1
 79
     5
176
     1
170
     0
176
     1
171
     0
176
     1
290
     0
176
     1
 93
        1
176
     1
 44
0.0
176
     1
173
     0
176
     1
  0
VISUALSTYLE
  5
33
102
{ACAD_REACTORS
330
2A
102
}
330
2A
100
AcDbVisualStyle
  2
Realistic
 70
     8
177
     2
291
     0
 71
     2
176
     1
 72
     2
176
     1
 73
     0
176
     1
 90
        0
176
     1
 40
-0.6
176
     1
 41
-30.0
176
     1
 62
     5
 63
     7
421
 16777215
176
     1
 74
     1
176
     1
 91
        0
176
     1
 64
     7
176
     1
 65
   257
176
     1
 75
     1
176
     1
175
     1
176
     1
 42
1.0
176
     1
 92
        8
176
     1
 66
     8
424
  7895160
176
     1
 43
1.0
176
     1
 76
     1
176
     1
 77
     6
176
     1
 78
     2
176
     1
 67
     7
176
     1
 79
     5
176
     1
170
     0
176
     1
171
     0
176
     1
290
     0
176
     1
 93
       13
176
     1
 44
0.0
176
     1
173
     0
176
     1
  0
VISUALSTYLE
  5
37
102
{ACAD_REACTORS
330
2A
102
}
330
2A
100
AcDbVisualStyle
  2
Thicken
 70
    13
177
     2
291
     1
 71
     2
176
     1
 72
     2
176
     1
 73
     0
176
     1
 90
        0
176
     1
 40
-0.6
176
     1
 41
-30.0
176
     1
 62
     5
 63
     7
421
 16777215
176
     1
 74
     1
176
     1
 91
        4
176
     1
 64
     7
176
     1
 65
   257
176
     1
 75
     1
176
     1
175
     1
176
     1
 42
1.0
176
     1
 92
       12
176
     1
 66
     7
176
     1
 43
1.0
176
     1
 76
     1
176
     1
 77
     6
176
     1
 78
     2
176
     1
 67
     7
176
     1
 79
     5
176
     1
170
     0
176
     1
171
     0
176
     1
290
     0
176
     1
 93
        1
176
     1
 44
0.0
176
     1
173
     0
176
     1
  0
ENDSEC
  0
EOF
